<?xml version="1.0" encoding="utf-8"?>
<svg xmlns="http://www.w3.org/2000/svg" xmlns:xlink="http://www.w3.org/1999/xlink" width="600" height="400" viewBox="0 0 2400 1600">
<defs>
  <clipPath id="clip650">
    <rect x="0" y="0" width="2400" height="1600"/>
  </clipPath>
</defs>
<path clip-path="url(#clip650)" d="
M0 1600 L2400 1600 L2400 0 L0 0  Z
  " fill="#ffffff" fill-rule="evenodd" fill-opacity="1"/>
<defs>
  <clipPath id="clip651">
    <rect x="480" y="0" width="1681" height="1600"/>
  </clipPath>
</defs>
<path clip-path="url(#clip650)" d="
M234.125 1423.18 L2352.76 1423.18 L2352.76 47.2441 L234.125 47.2441  Z
  " fill="#ffffff" fill-rule="evenodd" fill-opacity="1"/>
<defs>
  <clipPath id="clip652">
    <rect x="234" y="47" width="2120" height="1377"/>
  </clipPath>
</defs>
<polyline clip-path="url(#clip652)" style="stroke:#000000; stroke-linecap:round; stroke-linejoin:round; stroke-width:2; stroke-opacity:0.1; fill:none" points="
  294.087,1423.18 294.087,47.2441 
  "/>
<polyline clip-path="url(#clip652)" style="stroke:#000000; stroke-linecap:round; stroke-linejoin:round; stroke-width:2; stroke-opacity:0.1; fill:none" points="
  793.764,1423.18 793.764,47.2441 
  "/>
<polyline clip-path="url(#clip652)" style="stroke:#000000; stroke-linecap:round; stroke-linejoin:round; stroke-width:2; stroke-opacity:0.1; fill:none" points="
  1293.44,1423.18 1293.44,47.2441 
  "/>
<polyline clip-path="url(#clip652)" style="stroke:#000000; stroke-linecap:round; stroke-linejoin:round; stroke-width:2; stroke-opacity:0.1; fill:none" points="
  1793.12,1423.18 1793.12,47.2441 
  "/>
<polyline clip-path="url(#clip652)" style="stroke:#000000; stroke-linecap:round; stroke-linejoin:round; stroke-width:2; stroke-opacity:0.1; fill:none" points="
  2292.79,1423.18 2292.79,47.2441 
  "/>
<polyline clip-path="url(#clip650)" style="stroke:#000000; stroke-linecap:round; stroke-linejoin:round; stroke-width:4; stroke-opacity:1; fill:none" points="
  234.125,1423.18 2352.76,1423.18 
  "/>
<polyline clip-path="url(#clip650)" style="stroke:#000000; stroke-linecap:round; stroke-linejoin:round; stroke-width:4; stroke-opacity:1; fill:none" points="
  294.087,1423.18 294.087,1404.28 
  "/>
<polyline clip-path="url(#clip650)" style="stroke:#000000; stroke-linecap:round; stroke-linejoin:round; stroke-width:4; stroke-opacity:1; fill:none" points="
  793.764,1423.18 793.764,1404.28 
  "/>
<polyline clip-path="url(#clip650)" style="stroke:#000000; stroke-linecap:round; stroke-linejoin:round; stroke-width:4; stroke-opacity:1; fill:none" points="
  1293.44,1423.18 1293.44,1404.28 
  "/>
<polyline clip-path="url(#clip650)" style="stroke:#000000; stroke-linecap:round; stroke-linejoin:round; stroke-width:4; stroke-opacity:1; fill:none" points="
  1793.12,1423.18 1793.12,1404.28 
  "/>
<polyline clip-path="url(#clip650)" style="stroke:#000000; stroke-linecap:round; stroke-linejoin:round; stroke-width:4; stroke-opacity:1; fill:none" points="
  2292.79,1423.18 2292.79,1404.28 
  "/>
<path clip-path="url(#clip650)" d="M294.087 1454.1 Q290.476 1454.1 288.647 1457.66 Q286.841 1461.2 286.841 1468.33 Q286.841 1475.44 288.647 1479.01 Q290.476 1482.55 294.087 1482.55 Q297.721 1482.55 299.526 1479.01 Q301.355 1475.44 301.355 1468.33 Q301.355 1461.2 299.526 1457.66 Q297.721 1454.1 294.087 1454.1 M294.087 1450.39 Q299.897 1450.39 302.952 1455 Q306.031 1459.58 306.031 1468.33 Q306.031 1477.06 302.952 1481.67 Q299.897 1486.25 294.087 1486.25 Q288.277 1486.25 285.198 1481.67 Q282.142 1477.06 282.142 1468.33 Q282.142 1459.58 285.198 1455 Q288.277 1450.39 294.087 1450.39 Z" fill="#000000" fill-rule="evenodd" fill-opacity="1" /><path clip-path="url(#clip650)" d="M784.146 1481.64 L791.785 1481.64 L791.785 1455.28 L783.474 1456.95 L783.474 1452.69 L791.738 1451.02 L796.414 1451.02 L796.414 1481.64 L804.053 1481.64 L804.053 1485.58 L784.146 1485.58 L784.146 1481.64 Z" fill="#000000" fill-rule="evenodd" fill-opacity="1" /><path clip-path="url(#clip650)" d="M1288.09 1481.64 L1304.41 1481.64 L1304.41 1485.58 L1282.47 1485.58 L1282.47 1481.64 Q1285.13 1478.89 1289.71 1474.26 Q1294.32 1469.61 1295.5 1468.27 Q1297.75 1465.74 1298.63 1464.01 Q1299.53 1462.25 1299.53 1460.56 Q1299.53 1457.8 1297.58 1456.07 Q1295.66 1454.33 1292.56 1454.33 Q1290.36 1454.33 1287.91 1455.09 Q1285.48 1455.86 1282.7 1457.41 L1282.7 1452.69 Q1285.52 1451.55 1287.98 1450.97 Q1290.43 1450.39 1292.47 1450.39 Q1297.84 1450.39 1301.03 1453.08 Q1304.23 1455.77 1304.23 1460.26 Q1304.23 1462.39 1303.42 1464.31 Q1302.63 1466.2 1300.52 1468.8 Q1299.95 1469.47 1296.84 1472.69 Q1293.74 1475.88 1288.09 1481.64 Z" fill="#000000" fill-rule="evenodd" fill-opacity="1" /><path clip-path="url(#clip650)" d="M1797.37 1466.95 Q1800.72 1467.66 1802.6 1469.93 Q1804.49 1472.2 1804.49 1475.53 Q1804.49 1480.65 1800.98 1483.45 Q1797.46 1486.25 1790.98 1486.25 Q1788.8 1486.25 1786.49 1485.81 Q1784.19 1485.39 1781.74 1484.54 L1781.74 1480.02 Q1783.68 1481.16 1786 1481.74 Q1788.31 1482.32 1790.84 1482.32 Q1795.24 1482.32 1797.53 1480.58 Q1799.84 1478.84 1799.84 1475.53 Q1799.84 1472.48 1797.69 1470.77 Q1795.56 1469.03 1791.74 1469.03 L1787.71 1469.03 L1787.71 1465.19 L1791.93 1465.19 Q1795.37 1465.19 1797.2 1463.82 Q1799.03 1462.43 1799.03 1459.84 Q1799.03 1457.18 1797.13 1455.77 Q1795.26 1454.33 1791.74 1454.33 Q1789.82 1454.33 1787.62 1454.75 Q1785.42 1455.16 1782.78 1456.04 L1782.78 1451.88 Q1785.44 1451.14 1787.76 1450.77 Q1790.1 1450.39 1792.16 1450.39 Q1797.48 1450.39 1800.58 1452.83 Q1803.68 1455.23 1803.68 1459.35 Q1803.68 1462.22 1802.04 1464.21 Q1800.4 1466.18 1797.37 1466.95 Z" fill="#000000" fill-rule="evenodd" fill-opacity="1" /><path clip-path="url(#clip650)" d="M2295.8 1455.09 L2284 1473.54 L2295.8 1473.54 L2295.8 1455.09 M2294.58 1451.02 L2300.46 1451.02 L2300.46 1473.54 L2305.39 1473.54 L2305.39 1477.43 L2300.46 1477.43 L2300.46 1485.58 L2295.8 1485.58 L2295.8 1477.43 L2280.2 1477.43 L2280.2 1472.92 L2294.58 1451.02 Z" fill="#000000" fill-rule="evenodd" fill-opacity="1" /><path clip-path="url(#clip650)" d="M1269.52 1532.4 L1275.38 1532.4 L1282.7 1560.21 L1289.99 1532.4 L1296.89 1532.4 L1304.21 1560.21 L1311.5 1532.4 L1317.36 1532.4 L1308.03 1568.04 L1301.13 1568.04 L1293.46 1538.83 L1285.75 1568.04 L1278.85 1568.04 L1269.52 1532.4 Z" fill="#000000" fill-rule="evenodd" fill-opacity="1" /><polyline clip-path="url(#clip652)" style="stroke:#000000; stroke-linecap:round; stroke-linejoin:round; stroke-width:2; stroke-opacity:0.1; fill:none" points="
  234.125,1399.54 2352.76,1399.54 
  "/>
<polyline clip-path="url(#clip652)" style="stroke:#000000; stroke-linecap:round; stroke-linejoin:round; stroke-width:2; stroke-opacity:0.1; fill:none" points="
  234.125,1168.53 2352.76,1168.53 
  "/>
<polyline clip-path="url(#clip652)" style="stroke:#000000; stroke-linecap:round; stroke-linejoin:round; stroke-width:2; stroke-opacity:0.1; fill:none" points="
  234.125,937.516 2352.76,937.516 
  "/>
<polyline clip-path="url(#clip652)" style="stroke:#000000; stroke-linecap:round; stroke-linejoin:round; stroke-width:2; stroke-opacity:0.1; fill:none" points="
  234.125,706.503 2352.76,706.503 
  "/>
<polyline clip-path="url(#clip652)" style="stroke:#000000; stroke-linecap:round; stroke-linejoin:round; stroke-width:2; stroke-opacity:0.1; fill:none" points="
  234.125,475.49 2352.76,475.49 
  "/>
<polyline clip-path="url(#clip652)" style="stroke:#000000; stroke-linecap:round; stroke-linejoin:round; stroke-width:2; stroke-opacity:0.1; fill:none" points="
  234.125,244.477 2352.76,244.477 
  "/>
<polyline clip-path="url(#clip650)" style="stroke:#000000; stroke-linecap:round; stroke-linejoin:round; stroke-width:4; stroke-opacity:1; fill:none" points="
  234.125,1423.18 234.125,47.2441 
  "/>
<polyline clip-path="url(#clip650)" style="stroke:#000000; stroke-linecap:round; stroke-linejoin:round; stroke-width:4; stroke-opacity:1; fill:none" points="
  234.125,1399.54 253.023,1399.54 
  "/>
<polyline clip-path="url(#clip650)" style="stroke:#000000; stroke-linecap:round; stroke-linejoin:round; stroke-width:4; stroke-opacity:1; fill:none" points="
  234.125,1168.53 253.023,1168.53 
  "/>
<polyline clip-path="url(#clip650)" style="stroke:#000000; stroke-linecap:round; stroke-linejoin:round; stroke-width:4; stroke-opacity:1; fill:none" points="
  234.125,937.516 253.023,937.516 
  "/>
<polyline clip-path="url(#clip650)" style="stroke:#000000; stroke-linecap:round; stroke-linejoin:round; stroke-width:4; stroke-opacity:1; fill:none" points="
  234.125,706.503 253.023,706.503 
  "/>
<polyline clip-path="url(#clip650)" style="stroke:#000000; stroke-linecap:round; stroke-linejoin:round; stroke-width:4; stroke-opacity:1; fill:none" points="
  234.125,475.49 253.023,475.49 
  "/>
<polyline clip-path="url(#clip650)" style="stroke:#000000; stroke-linecap:round; stroke-linejoin:round; stroke-width:4; stroke-opacity:1; fill:none" points="
  234.125,244.477 253.023,244.477 
  "/>
<path clip-path="url(#clip650)" d="M146.066 1382.26 L164.422 1382.26 L164.422 1386.2 L150.348 1386.2 L150.348 1394.67 Q151.366 1394.32 152.385 1394.16 Q153.403 1393.97 154.422 1393.97 Q160.209 1393.97 163.589 1397.15 Q166.968 1400.32 166.968 1405.73 Q166.968 1411.31 163.496 1414.41 Q160.024 1417.49 153.704 1417.49 Q151.528 1417.49 149.26 1417.12 Q147.015 1416.75 144.607 1416.01 L144.607 1411.31 Q146.691 1412.45 148.913 1413 Q151.135 1413.56 153.612 1413.56 Q157.616 1413.56 159.954 1411.45 Q162.292 1409.34 162.292 1405.73 Q162.292 1402.12 159.954 1400.02 Q157.616 1397.91 153.612 1397.91 Q151.737 1397.91 149.862 1398.33 Q148.01 1398.74 146.066 1399.62 L146.066 1382.26 Z" fill="#000000" fill-rule="evenodd" fill-opacity="1" /><path clip-path="url(#clip650)" d="M186.181 1385.34 Q182.57 1385.34 180.741 1388.91 Q178.936 1392.45 178.936 1399.58 Q178.936 1406.68 180.741 1410.25 Q182.57 1413.79 186.181 1413.79 Q189.815 1413.79 191.621 1410.25 Q193.45 1406.68 193.45 1399.58 Q193.45 1392.45 191.621 1388.91 Q189.815 1385.34 186.181 1385.34 M186.181 1381.64 Q191.991 1381.64 195.047 1386.24 Q198.125 1390.83 198.125 1399.58 Q198.125 1408.3 195.047 1412.91 Q191.991 1417.49 186.181 1417.49 Q180.371 1417.49 177.292 1412.91 Q174.237 1408.3 174.237 1399.58 Q174.237 1390.83 177.292 1386.24 Q180.371 1381.64 186.181 1381.64 Z" fill="#000000" fill-rule="evenodd" fill-opacity="1" /><path clip-path="url(#clip650)" d="M116.668 1181.87 L124.306 1181.87 L124.306 1155.51 L115.996 1157.17 L115.996 1152.92 L124.26 1151.25 L128.936 1151.25 L128.936 1181.87 L136.575 1181.87 L136.575 1185.81 L116.668 1185.81 L116.668 1181.87 Z" fill="#000000" fill-rule="evenodd" fill-opacity="1" /><path clip-path="url(#clip650)" d="M156.019 1154.33 Q152.408 1154.33 150.579 1157.89 Q148.774 1161.43 148.774 1168.56 Q148.774 1175.67 150.579 1179.23 Q152.408 1182.78 156.019 1182.78 Q159.653 1182.78 161.459 1179.23 Q163.288 1175.67 163.288 1168.56 Q163.288 1161.43 161.459 1157.89 Q159.653 1154.33 156.019 1154.33 M156.019 1150.62 Q161.829 1150.62 164.885 1155.23 Q167.964 1159.81 167.964 1168.56 Q167.964 1177.29 164.885 1181.9 Q161.829 1186.48 156.019 1186.48 Q150.209 1186.48 147.13 1181.9 Q144.075 1177.29 144.075 1168.56 Q144.075 1159.81 147.13 1155.23 Q150.209 1150.62 156.019 1150.62 Z" fill="#000000" fill-rule="evenodd" fill-opacity="1" /><path clip-path="url(#clip650)" d="M186.181 1154.33 Q182.57 1154.33 180.741 1157.89 Q178.936 1161.43 178.936 1168.56 Q178.936 1175.67 180.741 1179.23 Q182.57 1182.78 186.181 1182.78 Q189.815 1182.78 191.621 1179.23 Q193.45 1175.67 193.45 1168.56 Q193.45 1161.43 191.621 1157.89 Q189.815 1154.33 186.181 1154.33 M186.181 1150.62 Q191.991 1150.62 195.047 1155.23 Q198.125 1159.81 198.125 1168.56 Q198.125 1177.29 195.047 1181.9 Q191.991 1186.48 186.181 1186.48 Q180.371 1186.48 177.292 1181.9 Q174.237 1177.29 174.237 1168.56 Q174.237 1159.81 177.292 1155.23 Q180.371 1150.62 186.181 1150.62 Z" fill="#000000" fill-rule="evenodd" fill-opacity="1" /><path clip-path="url(#clip650)" d="M116.668 950.86 L124.306 950.86 L124.306 924.495 L115.996 926.162 L115.996 921.902 L124.26 920.236 L128.936 920.236 L128.936 950.86 L136.575 950.86 L136.575 954.796 L116.668 954.796 L116.668 950.86 Z" fill="#000000" fill-rule="evenodd" fill-opacity="1" /><path clip-path="url(#clip650)" d="M146.066 920.236 L164.422 920.236 L164.422 924.171 L150.348 924.171 L150.348 932.643 Q151.366 932.296 152.385 932.134 Q153.403 931.949 154.422 931.949 Q160.209 931.949 163.589 935.12 Q166.968 938.291 166.968 943.708 Q166.968 949.286 163.496 952.388 Q160.024 955.467 153.704 955.467 Q151.528 955.467 149.26 955.097 Q147.015 954.726 144.607 953.985 L144.607 949.286 Q146.691 950.421 148.913 950.976 Q151.135 951.532 153.612 951.532 Q157.616 951.532 159.954 949.425 Q162.292 947.319 162.292 943.708 Q162.292 940.097 159.954 937.99 Q157.616 935.884 153.612 935.884 Q151.737 935.884 149.862 936.3 Q148.01 936.717 146.066 937.597 L146.066 920.236 Z" fill="#000000" fill-rule="evenodd" fill-opacity="1" /><path clip-path="url(#clip650)" d="M186.181 923.314 Q182.57 923.314 180.741 926.879 Q178.936 930.421 178.936 937.55 Q178.936 944.657 180.741 948.222 Q182.57 951.763 186.181 951.763 Q189.815 951.763 191.621 948.222 Q193.45 944.657 193.45 937.55 Q193.45 930.421 191.621 926.879 Q189.815 923.314 186.181 923.314 M186.181 919.611 Q191.991 919.611 195.047 924.217 Q198.125 928.8 198.125 937.55 Q198.125 946.277 195.047 950.884 Q191.991 955.467 186.181 955.467 Q180.371 955.467 177.292 950.884 Q174.237 946.277 174.237 937.55 Q174.237 928.8 177.292 924.217 Q180.371 919.611 186.181 919.611 Z" fill="#000000" fill-rule="evenodd" fill-opacity="1" /><path clip-path="url(#clip650)" d="M119.885 719.847 L136.204 719.847 L136.204 723.783 L114.26 723.783 L114.26 719.847 Q116.922 717.093 121.505 712.463 Q126.112 707.81 127.292 706.468 Q129.538 703.945 130.417 702.209 Q131.32 700.449 131.32 698.76 Q131.32 696.005 129.376 694.269 Q127.455 692.533 124.353 692.533 Q122.154 692.533 119.7 693.297 Q117.269 694.061 114.492 695.611 L114.492 690.889 Q117.316 689.755 119.769 689.176 Q122.223 688.598 124.26 688.598 Q129.63 688.598 132.825 691.283 Q136.019 693.968 136.019 698.459 Q136.019 700.588 135.209 702.51 Q134.422 704.408 132.316 707 Q131.737 707.672 128.635 710.889 Q125.533 714.084 119.885 719.847 Z" fill="#000000" fill-rule="evenodd" fill-opacity="1" /><path clip-path="url(#clip650)" d="M156.019 692.301 Q152.408 692.301 150.579 695.866 Q148.774 699.408 148.774 706.537 Q148.774 713.644 150.579 717.209 Q152.408 720.75 156.019 720.75 Q159.653 720.75 161.459 717.209 Q163.288 713.644 163.288 706.537 Q163.288 699.408 161.459 695.866 Q159.653 692.301 156.019 692.301 M156.019 688.598 Q161.829 688.598 164.885 693.204 Q167.964 697.787 167.964 706.537 Q167.964 715.264 164.885 719.871 Q161.829 724.454 156.019 724.454 Q150.209 724.454 147.13 719.871 Q144.075 715.264 144.075 706.537 Q144.075 697.787 147.13 693.204 Q150.209 688.598 156.019 688.598 Z" fill="#000000" fill-rule="evenodd" fill-opacity="1" /><path clip-path="url(#clip650)" d="M186.181 692.301 Q182.57 692.301 180.741 695.866 Q178.936 699.408 178.936 706.537 Q178.936 713.644 180.741 717.209 Q182.57 720.75 186.181 720.75 Q189.815 720.75 191.621 717.209 Q193.45 713.644 193.45 706.537 Q193.45 699.408 191.621 695.866 Q189.815 692.301 186.181 692.301 M186.181 688.598 Q191.991 688.598 195.047 693.204 Q198.125 697.787 198.125 706.537 Q198.125 715.264 195.047 719.871 Q191.991 724.454 186.181 724.454 Q180.371 724.454 177.292 719.871 Q174.237 715.264 174.237 706.537 Q174.237 697.787 177.292 693.204 Q180.371 688.598 186.181 688.598 Z" fill="#000000" fill-rule="evenodd" fill-opacity="1" /><path clip-path="url(#clip650)" d="M119.885 488.834 L136.204 488.834 L136.204 492.77 L114.26 492.77 L114.26 488.834 Q116.922 486.08 121.505 481.45 Q126.112 476.797 127.292 475.455 Q129.538 472.932 130.417 471.196 Q131.32 469.436 131.32 467.747 Q131.32 464.992 129.376 463.256 Q127.455 461.52 124.353 461.52 Q122.154 461.52 119.7 462.284 Q117.269 463.048 114.492 464.598 L114.492 459.876 Q117.316 458.742 119.769 458.163 Q122.223 457.585 124.26 457.585 Q129.63 457.585 132.825 460.27 Q136.019 462.955 136.019 467.446 Q136.019 469.575 135.209 471.497 Q134.422 473.395 132.316 475.987 Q131.737 476.659 128.635 479.876 Q125.533 483.071 119.885 488.834 Z" fill="#000000" fill-rule="evenodd" fill-opacity="1" /><path clip-path="url(#clip650)" d="M146.066 458.21 L164.422 458.21 L164.422 462.145 L150.348 462.145 L150.348 470.617 Q151.366 470.27 152.385 470.108 Q153.403 469.923 154.422 469.923 Q160.209 469.923 163.589 473.094 Q166.968 476.265 166.968 481.682 Q166.968 487.26 163.496 490.362 Q160.024 493.441 153.704 493.441 Q151.528 493.441 149.26 493.071 Q147.015 492.7 144.607 491.959 L144.607 487.26 Q146.691 488.395 148.913 488.95 Q151.135 489.506 153.612 489.506 Q157.616 489.506 159.954 487.399 Q162.292 485.293 162.292 481.682 Q162.292 478.071 159.954 475.964 Q157.616 473.858 153.612 473.858 Q151.737 473.858 149.862 474.274 Q148.01 474.691 146.066 475.571 L146.066 458.21 Z" fill="#000000" fill-rule="evenodd" fill-opacity="1" /><path clip-path="url(#clip650)" d="M186.181 461.288 Q182.57 461.288 180.741 464.853 Q178.936 468.395 178.936 475.524 Q178.936 482.631 180.741 486.196 Q182.57 489.737 186.181 489.737 Q189.815 489.737 191.621 486.196 Q193.45 482.631 193.45 475.524 Q193.45 468.395 191.621 464.853 Q189.815 461.288 186.181 461.288 M186.181 457.585 Q191.991 457.585 195.047 462.191 Q198.125 466.774 198.125 475.524 Q198.125 484.251 195.047 488.858 Q191.991 493.441 186.181 493.441 Q180.371 493.441 177.292 488.858 Q174.237 484.251 174.237 475.524 Q174.237 466.774 177.292 462.191 Q180.371 457.585 186.181 457.585 Z" fill="#000000" fill-rule="evenodd" fill-opacity="1" /><path clip-path="url(#clip650)" d="M130.024 243.122 Q133.38 243.84 135.255 246.109 Q137.154 248.377 137.154 251.71 Q137.154 256.826 133.635 259.627 Q130.117 262.428 123.635 262.428 Q121.459 262.428 119.144 261.988 Q116.853 261.571 114.399 260.715 L114.399 256.201 Q116.343 257.335 118.658 257.914 Q120.973 258.493 123.496 258.493 Q127.894 258.493 130.186 256.757 Q132.501 255.021 132.501 251.71 Q132.501 248.655 130.348 246.942 Q128.218 245.206 124.399 245.206 L120.371 245.206 L120.371 241.363 L124.584 241.363 Q128.033 241.363 129.862 239.997 Q131.691 238.609 131.691 236.016 Q131.691 233.354 129.792 231.942 Q127.917 230.507 124.399 230.507 Q122.478 230.507 120.279 230.923 Q118.08 231.34 115.441 232.22 L115.441 228.053 Q118.103 227.312 120.418 226.942 Q122.755 226.572 124.816 226.572 Q130.14 226.572 133.242 229.002 Q136.343 231.41 136.343 235.53 Q136.343 238.4 134.7 240.391 Q133.056 242.359 130.024 243.122 Z" fill="#000000" fill-rule="evenodd" fill-opacity="1" /><path clip-path="url(#clip650)" d="M156.019 230.275 Q152.408 230.275 150.579 233.84 Q148.774 237.382 148.774 244.511 Q148.774 251.618 150.579 255.183 Q152.408 258.724 156.019 258.724 Q159.653 258.724 161.459 255.183 Q163.288 251.618 163.288 244.511 Q163.288 237.382 161.459 233.84 Q159.653 230.275 156.019 230.275 M156.019 226.572 Q161.829 226.572 164.885 231.178 Q167.964 235.761 167.964 244.511 Q167.964 253.238 164.885 257.845 Q161.829 262.428 156.019 262.428 Q150.209 262.428 147.13 257.845 Q144.075 253.238 144.075 244.511 Q144.075 235.761 147.13 231.178 Q150.209 226.572 156.019 226.572 Z" fill="#000000" fill-rule="evenodd" fill-opacity="1" /><path clip-path="url(#clip650)" d="M186.181 230.275 Q182.57 230.275 180.741 233.84 Q178.936 237.382 178.936 244.511 Q178.936 251.618 180.741 255.183 Q182.57 258.724 186.181 258.724 Q189.815 258.724 191.621 255.183 Q193.45 251.618 193.45 244.511 Q193.45 237.382 191.621 233.84 Q189.815 230.275 186.181 230.275 M186.181 226.572 Q191.991 226.572 195.047 231.178 Q198.125 235.761 198.125 244.511 Q198.125 253.238 195.047 257.845 Q191.991 262.428 186.181 262.428 Q180.371 262.428 177.292 257.845 Q174.237 253.238 174.237 244.511 Q174.237 235.761 177.292 231.178 Q180.371 226.572 186.181 226.572 Z" fill="#000000" fill-rule="evenodd" fill-opacity="1" /><path clip-path="url(#clip650)" d="M44.7161 779.279 L47.5806 779.279 L47.5806 806.206 Q53.6281 805.824 56.8109 802.577 Q59.9619 799.299 59.9619 793.474 Q59.9619 790.1 59.1344 786.949 Q58.3069 783.766 56.6518 780.647 L62.1899 780.647 Q63.5267 783.798 64.227 787.108 Q64.9272 790.419 64.9272 793.824 Q64.9272 802.354 59.9619 807.351 Q54.9967 812.317 46.5303 812.317 Q37.7774 812.317 32.6531 807.606 Q27.4968 802.864 27.4968 794.843 Q27.4968 787.649 32.1438 783.48 Q36.7589 779.279 44.7161 779.279 M42.9973 785.135 Q38.1912 785.199 35.3266 787.84 Q32.4621 790.45 32.4621 794.779 Q32.4621 799.681 35.2312 802.641 Q38.0002 805.569 43.0292 806.015 L42.9973 785.135 Z" fill="#000000" fill-rule="evenodd" fill-opacity="1" /><path clip-path="url(#clip650)" d="M33.8307 749.01 Q33.2578 749.996 33.0032 751.174 Q32.7167 752.32 32.7167 753.72 Q32.7167 758.686 35.9632 761.359 Q39.1779 764.001 45.2253 764.001 L64.0042 764.001 L64.0042 769.889 L28.3562 769.889 L28.3562 764.001 L33.8944 764.001 Q30.6479 762.155 29.0883 759.195 Q27.4968 756.235 27.4968 752.002 Q27.4968 751.397 27.5923 750.665 Q27.656 749.933 27.8151 749.041 L33.8307 749.01 Z" fill="#000000" fill-rule="evenodd" fill-opacity="1" /><path clip-path="url(#clip650)" d="M33.8307 723.356 Q33.2578 724.343 33.0032 725.52 Q32.7167 726.666 32.7167 728.066 Q32.7167 733.032 35.9632 735.705 Q39.1779 738.347 45.2253 738.347 L64.0042 738.347 L64.0042 744.235 L28.3562 744.235 L28.3562 738.347 L33.8944 738.347 Q30.6479 736.501 29.0883 733.541 Q27.4968 730.581 27.4968 726.348 Q27.4968 725.743 27.5923 725.011 Q27.656 724.279 27.8151 723.388 L33.8307 723.356 Z" fill="#000000" fill-rule="evenodd" fill-opacity="1" /><path clip-path="url(#clip650)" d="M32.4621 704.832 Q32.4621 709.542 36.1542 712.28 Q39.8145 715.017 46.212 715.017 Q52.6095 715.017 56.3017 712.311 Q59.9619 709.574 59.9619 704.832 Q59.9619 700.153 56.2698 697.416 Q52.5777 694.678 46.212 694.678 Q39.8781 694.678 36.186 697.416 Q32.4621 700.153 32.4621 704.832 M27.4968 704.832 Q27.4968 697.193 32.4621 692.832 Q37.4273 688.472 46.212 688.472 Q54.9649 688.472 59.9619 692.832 Q64.9272 697.193 64.9272 704.832 Q64.9272 712.502 59.9619 716.863 Q54.9649 721.191 46.212 721.191 Q37.4273 721.191 32.4621 716.863 Q27.4968 712.502 27.4968 704.832 Z" fill="#000000" fill-rule="evenodd" fill-opacity="1" /><path clip-path="url(#clip650)" d="M33.8307 658.107 Q33.2578 659.094 33.0032 660.272 Q32.7167 661.418 32.7167 662.818 Q32.7167 667.783 35.9632 670.457 Q39.1779 673.099 45.2253 673.099 L64.0042 673.099 L64.0042 678.987 L28.3562 678.987 L28.3562 673.099 L33.8944 673.099 Q30.6479 671.253 29.0883 668.292 Q27.4968 665.332 27.4968 661.099 Q27.4968 660.494 27.5923 659.762 Q27.656 659.03 27.8151 658.139 L33.8307 658.107 Z" fill="#000000" fill-rule="evenodd" fill-opacity="1" /><polyline clip-path="url(#clip652)" style="stroke:#009af9; stroke-linecap:round; stroke-linejoin:round; stroke-width:4; stroke-opacity:1; fill:none" points="
  294.087,180.187 299.083,192.427 304.08,204.604 309.077,216.719 314.074,228.771 319.071,240.761 324.067,252.688 329.064,264.553 334.061,276.355 339.058,288.095 
  344.054,299.772 349.051,311.386 354.048,322.938 359.045,334.428 364.041,345.855 369.038,357.219 374.035,368.521 379.032,379.76 384.029,390.937 389.025,402.052 
  394.022,413.103 399.019,424.093 404.016,435.019 409.012,445.884 414.009,456.685 419.006,467.424 424.003,478.101 428.999,488.715 433.996,499.266 438.993,509.755 
  443.99,520.182 448.987,530.546 453.983,540.847 458.98,551.086 463.977,561.262 468.974,571.376 473.97,581.428 478.967,591.416 483.964,601.343 488.961,611.206 
  493.957,621.007 498.954,630.746 503.951,640.422 508.948,650.036 513.945,659.587 518.941,669.075 523.938,678.501 528.935,687.865 533.932,697.166 538.928,706.404 
  543.925,715.58 548.922,724.693 553.919,733.744 558.915,742.732 563.912,751.658 568.909,760.521 573.906,769.322 578.903,778.06 583.899,786.735 588.896,795.349 
  593.893,803.899 598.89,812.387 603.886,820.813 608.883,829.176 613.88,837.476 618.877,845.714 623.874,853.889 628.87,862.002 633.867,870.052 638.864,878.04 
  643.861,885.965 648.857,893.828 653.854,901.628 658.851,909.366 663.848,917.041 668.844,924.654 673.841,932.204 678.838,939.691 683.835,947.116 688.832,954.479 
  693.828,961.779 698.825,969.016 703.822,976.191 708.819,983.303 713.815,990.353 718.812,997.34 723.809,1004.27 728.806,1011.13 733.802,1017.93 738.799,1024.66 
  743.796,1031.34 748.793,1037.95 753.79,1044.5 758.786,1050.99 763.783,1057.41 768.78,1063.77 773.777,1070.07 778.773,1076.31 783.77,1082.48 788.767,1088.6 
  793.764,1094.65 798.76,1100.63 803.757,1106.56 808.754,1112.42 813.751,1118.22 818.748,1123.95 823.744,1129.63 828.741,1135.24 833.738,1140.79 838.735,1146.28 
  843.731,1151.7 848.728,1157.06 853.725,1162.36 858.722,1167.6 863.718,1172.77 868.715,1177.88 873.712,1182.93 878.709,1187.92 883.706,1192.84 888.702,1197.7 
  893.699,1202.5 898.696,1207.24 903.693,1211.91 908.689,1216.52 913.686,1221.07 918.683,1225.56 923.68,1229.98 928.676,1234.34 933.673,1238.64 938.67,1242.88 
  943.667,1247.05 948.664,1251.16 953.66,1255.21 958.657,1259.19 963.654,1263.12 968.651,1266.98 973.647,1270.78 978.644,1274.51 983.641,1278.18 988.638,1281.8 
  993.634,1285.34 998.631,1288.83 1003.63,1292.25 1008.62,1295.61 1013.62,1298.91 1018.62,1302.15 1023.62,1305.32 1028.61,1308.43 1033.61,1311.48 1038.61,1314.46 
  1043.6,1317.39 1048.6,1320.25 1053.6,1323.04 1058.59,1325.78 1063.59,1328.45 1068.59,1331.06 1073.58,1333.61 1078.58,1336.09 1083.58,1338.52 1088.57,1340.88 
  1093.57,1343.17 1098.57,1345.41 1103.56,1347.58 1108.56,1349.69 1113.56,1351.74 1118.55,1353.72 1123.55,1355.65 1128.55,1357.51 1133.54,1359.3 1138.54,1361.04 
  1143.54,1362.71 1148.53,1364.32 1153.53,1365.87 1158.53,1367.35 1163.52,1368.77 1168.52,1370.13 1173.52,1371.43 1178.51,1372.66 1183.51,1373.84 1188.51,1374.95 
  1193.51,1375.99 1198.5,1376.98 1203.5,1377.9 1208.5,1378.76 1213.49,1379.55 1218.49,1380.29 1223.49,1380.96 1228.48,1381.57 1233.48,1382.12 1238.48,1382.6 
  1243.47,1383.02 1248.47,1383.38 1253.47,1383.68 1258.46,1383.91 1263.46,1384.08 1268.46,1384.19 1273.45,1384.24 1278.45,1384.22 1283.45,1384.14 1288.44,1384 
  1293.44,1383.8 1298.44,1383.53 1303.43,1383.2 1308.43,1382.81 1313.43,1382.36 1318.42,1381.84 1323.42,1381.26 1328.42,1380.62 1333.41,1379.92 1338.41,1379.15 
  1343.41,1378.32 1348.41,1377.43 1353.4,1376.48 1358.4,1375.46 1363.4,1374.38 1368.39,1373.24 1373.39,1372.03 1378.39,1370.77 1383.38,1369.44 1388.38,1368.05 
  1393.38,1366.59 1398.37,1365.08 1403.37,1363.5 1408.37,1361.85 1413.36,1360.15 1418.36,1358.38 1423.36,1356.55 1428.35,1354.66 1433.35,1352.71 1438.35,1350.69 
  1443.34,1348.61 1448.34,1346.47 1453.34,1344.26 1458.33,1342 1463.33,1339.67 1468.33,1337.27 1473.32,1334.82 1478.32,1332.3 1483.32,1329.72 1488.31,1327.08 
  1493.31,1324.37 1498.31,1321.61 1503.31,1318.78 1508.3,1315.88 1513.3,1312.93 1518.3,1309.91 1523.29,1306.83 1528.29,1303.69 1533.29,1300.48 1538.28,1297.22 
  1543.28,1293.89 1548.28,1290.49 1553.27,1287.04 1558.27,1283.52 1563.27,1279.94 1568.26,1276.3 1573.26,1272.59 1578.26,1268.82 1583.25,1264.99 1588.25,1261.1 
  1593.25,1257.14 1598.24,1253.13 1603.24,1249.04 1608.24,1244.9 1613.23,1240.7 1618.23,1236.43 1623.23,1232.1 1628.22,1227.7 1633.22,1223.25 1638.22,1218.73 
  1643.21,1214.15 1648.21,1209.5 1653.21,1204.8 1658.2,1200.03 1663.2,1195.2 1668.2,1190.31 1673.2,1185.35 1678.19,1180.33 1683.19,1175.25 1688.19,1170.11 
  1693.18,1164.9 1698.18,1159.63 1703.18,1154.3 1708.17,1148.91 1713.17,1143.45 1718.17,1137.93 1723.16,1132.35 1728.16,1126.71 1733.16,1121 1738.15,1115.23 
  1743.15,1109.4 1748.15,1103.51 1753.14,1097.55 1758.14,1091.53 1763.14,1085.45 1768.13,1079.3 1773.13,1073.1 1778.13,1066.83 1783.12,1060.5 1788.12,1054.1 
  1793.12,1047.65 1798.11,1041.13 1803.11,1034.54 1808.11,1027.9 1813.1,1021.19 1818.1,1014.42 1823.1,1007.59 1828.1,1000.7 1833.09,993.74 1838.09,986.72 
  1843.09,979.638 1848.08,972.493 1853.08,965.286 1858.08,958.016 1863.07,950.684 1868.07,943.289 1873.07,935.832 1878.06,928.312 1883.06,920.73 1888.06,913.085 
  1893.05,905.378 1898.05,897.608 1903.05,889.775 1908.04,881.88 1913.04,873.923 1918.04,865.903 1923.03,857.82 1928.03,849.675 1933.03,841.467 1938.02,833.197 
  1943.02,824.864 1948.02,816.469 1953.01,808.011 1958.01,799.491 1963.01,790.908 1968,782.263 1973,773.555 1978,764.785 1982.99,755.952 1987.99,747.056 
  1992.99,738.098 1997.99,729.078 2002.98,719.994 2007.98,710.849 2012.98,701.641 2017.97,692.37 2022.97,683.037 2027.97,673.641 2032.96,664.183 2037.96,654.662 
  2042.96,645.079 2047.95,635.433 2052.95,625.724 2057.95,615.953 2062.94,606.12 2067.94,596.224 2072.94,586.266 2077.93,576.244 2082.93,566.161 2087.93,556.015 
  2092.92,545.806 2097.92,535.535 2102.92,525.201 2107.91,514.805 2112.91,504.346 2117.91,493.825 2122.9,483.241 2127.9,472.595 2132.9,461.886 2137.89,451.115 
  2142.89,440.281 2147.89,429.384 2152.89,418.425 2157.88,407.404 2162.88,396.32 2167.88,385.173 2172.87,373.964 2177.87,362.692 2182.87,351.358 2187.86,339.961 
  2192.86,328.502 2197.86,316.98 2202.85,305.396 2207.85,293.749 2212.85,282.04 2217.84,270.268 2222.84,258.433 2227.84,246.536 2232.83,234.577 2237.83,222.555 
  2242.83,210.47 2247.82,198.323 2252.82,186.114 2257.82,173.842 2262.81,161.507 2267.81,149.11 2272.81,136.65 2277.8,124.128 2282.8,111.543 2287.8,98.8955 
  2292.79,86.1857 
  "/>
</svg>
