<?xml version="1.0" encoding="utf-8"?>
<svg xmlns="http://www.w3.org/2000/svg" xmlns:xlink="http://www.w3.org/1999/xlink" width="600" height="400" viewBox="0 0 2400 1600">
<defs>
  <clipPath id="clip010">
    <rect x="0" y="0" width="2400" height="1600"/>
  </clipPath>
</defs>
<path clip-path="url(#clip010)" d="
M0 1600 L2400 1600 L2400 0 L0 0  Z
  " fill="#ffffff" fill-rule="evenodd" fill-opacity="1"/>
<defs>
  <clipPath id="clip011">
    <rect x="480" y="0" width="1681" height="1600"/>
  </clipPath>
</defs>
<path clip-path="url(#clip010)" d="
M604.664 1486.45 L2352.76 1486.45 L2352.76 47.2441 L604.664 47.2441  Z
  " fill="#ffffff" fill-rule="evenodd" fill-opacity="1"/>
<defs>
  <clipPath id="clip012">
    <rect x="604" y="47" width="1749" height="1440"/>
  </clipPath>
</defs>
<polyline clip-path="url(#clip012)" style="stroke:#000000; stroke-linecap:round; stroke-linejoin:round; stroke-width:2; stroke-opacity:0.1; fill:none" points="
  654.139,1486.45 654.139,47.2441 
  "/>
<polyline clip-path="url(#clip012)" style="stroke:#000000; stroke-linecap:round; stroke-linejoin:round; stroke-width:2; stroke-opacity:0.1; fill:none" points="
  1066.42,1486.45 1066.42,47.2441 
  "/>
<polyline clip-path="url(#clip012)" style="stroke:#000000; stroke-linecap:round; stroke-linejoin:round; stroke-width:2; stroke-opacity:0.1; fill:none" points="
  1478.71,1486.45 1478.71,47.2441 
  "/>
<polyline clip-path="url(#clip012)" style="stroke:#000000; stroke-linecap:round; stroke-linejoin:round; stroke-width:2; stroke-opacity:0.1; fill:none" points="
  1891,1486.45 1891,47.2441 
  "/>
<polyline clip-path="url(#clip012)" style="stroke:#000000; stroke-linecap:round; stroke-linejoin:round; stroke-width:2; stroke-opacity:0.1; fill:none" points="
  2303.28,1486.45 2303.28,47.2441 
  "/>
<polyline clip-path="url(#clip010)" style="stroke:#000000; stroke-linecap:round; stroke-linejoin:round; stroke-width:4; stroke-opacity:1; fill:none" points="
  604.664,1486.45 2352.76,1486.45 
  "/>
<polyline clip-path="url(#clip010)" style="stroke:#000000; stroke-linecap:round; stroke-linejoin:round; stroke-width:4; stroke-opacity:1; fill:none" points="
  654.139,1486.45 654.139,1467.55 
  "/>
<polyline clip-path="url(#clip010)" style="stroke:#000000; stroke-linecap:round; stroke-linejoin:round; stroke-width:4; stroke-opacity:1; fill:none" points="
  1066.42,1486.45 1066.42,1467.55 
  "/>
<polyline clip-path="url(#clip010)" style="stroke:#000000; stroke-linecap:round; stroke-linejoin:round; stroke-width:4; stroke-opacity:1; fill:none" points="
  1478.71,1486.45 1478.71,1467.55 
  "/>
<polyline clip-path="url(#clip010)" style="stroke:#000000; stroke-linecap:round; stroke-linejoin:round; stroke-width:4; stroke-opacity:1; fill:none" points="
  1891,1486.45 1891,1467.55 
  "/>
<polyline clip-path="url(#clip010)" style="stroke:#000000; stroke-linecap:round; stroke-linejoin:round; stroke-width:4; stroke-opacity:1; fill:none" points="
  2303.28,1486.45 2303.28,1467.55 
  "/>
<path clip-path="url(#clip010)" d="M654.139 1517.37 Q650.528 1517.37 648.699 1520.93 Q646.893 1524.47 646.893 1531.6 Q646.893 1538.71 648.699 1542.27 Q650.528 1545.82 654.139 1545.82 Q657.773 1545.82 659.578 1542.27 Q661.407 1538.71 661.407 1531.6 Q661.407 1524.47 659.578 1520.93 Q657.773 1517.37 654.139 1517.37 M654.139 1513.66 Q659.949 1513.66 663.004 1518.27 Q666.083 1522.85 666.083 1531.6 Q666.083 1540.33 663.004 1544.94 Q659.949 1549.52 654.139 1549.52 Q648.329 1549.52 645.25 1544.94 Q642.194 1540.33 642.194 1531.6 Q642.194 1522.85 645.25 1518.27 Q648.329 1513.66 654.139 1513.66 Z" fill="#000000" fill-rule="evenodd" fill-opacity="1" /><path clip-path="url(#clip010)" d="M1056.81 1544.91 L1064.45 1544.91 L1064.45 1518.55 L1056.14 1520.21 L1056.14 1515.95 L1064.4 1514.29 L1069.07 1514.29 L1069.07 1544.91 L1076.71 1544.91 L1076.71 1548.85 L1056.81 1548.85 L1056.81 1544.91 Z" fill="#000000" fill-rule="evenodd" fill-opacity="1" /><path clip-path="url(#clip010)" d="M1473.36 1544.91 L1489.68 1544.91 L1489.68 1548.85 L1467.74 1548.85 L1467.74 1544.91 Q1470.4 1542.16 1474.98 1537.53 Q1479.59 1532.88 1480.77 1531.53 Q1483.02 1529.01 1483.9 1527.27 Q1484.8 1525.51 1484.8 1523.82 Q1484.8 1521.07 1482.85 1519.33 Q1480.93 1517.6 1477.83 1517.6 Q1475.63 1517.6 1473.18 1518.36 Q1470.75 1519.13 1467.97 1520.68 L1467.97 1515.95 Q1470.79 1514.82 1473.25 1514.24 Q1475.7 1513.66 1477.74 1513.66 Q1483.11 1513.66 1486.3 1516.35 Q1489.5 1519.03 1489.5 1523.52 Q1489.5 1525.65 1488.69 1527.57 Q1487.9 1529.47 1485.79 1532.07 Q1485.21 1532.74 1482.11 1535.95 Q1479.01 1539.15 1473.36 1544.91 Z" fill="#000000" fill-rule="evenodd" fill-opacity="1" /><path clip-path="url(#clip010)" d="M1895.24 1530.21 Q1898.6 1530.93 1900.48 1533.2 Q1902.37 1535.47 1902.37 1538.8 Q1902.37 1543.92 1898.85 1546.72 Q1895.34 1549.52 1888.85 1549.52 Q1886.68 1549.52 1884.36 1549.08 Q1882.07 1548.66 1879.62 1547.81 L1879.62 1543.29 Q1881.56 1544.43 1883.88 1545.01 Q1886.19 1545.58 1888.72 1545.58 Q1893.11 1545.58 1895.41 1543.85 Q1897.72 1542.11 1897.72 1538.8 Q1897.72 1535.75 1895.57 1534.03 Q1893.44 1532.3 1889.62 1532.3 L1885.59 1532.3 L1885.59 1528.45 L1889.8 1528.45 Q1893.25 1528.45 1895.08 1527.09 Q1896.91 1525.7 1896.91 1523.11 Q1896.91 1520.45 1895.01 1519.03 Q1893.14 1517.6 1889.62 1517.6 Q1887.7 1517.6 1885.5 1518.01 Q1883.3 1518.43 1880.66 1519.31 L1880.66 1515.14 Q1883.32 1514.4 1885.64 1514.03 Q1887.98 1513.66 1890.04 1513.66 Q1895.36 1513.66 1898.46 1516.09 Q1901.56 1518.5 1901.56 1522.62 Q1901.56 1525.49 1899.92 1527.48 Q1898.28 1529.45 1895.24 1530.21 Z" fill="#000000" fill-rule="evenodd" fill-opacity="1" /><path clip-path="url(#clip010)" d="M2306.29 1518.36 L2294.49 1536.81 L2306.29 1536.81 L2306.29 1518.36 M2305.06 1514.29 L2310.94 1514.29 L2310.94 1536.81 L2315.87 1536.81 L2315.87 1540.7 L2310.94 1540.7 L2310.94 1548.85 L2306.29 1548.85 L2306.29 1540.7 L2290.69 1540.7 L2290.69 1536.19 L2305.06 1514.29 Z" fill="#000000" fill-rule="evenodd" fill-opacity="1" /><polyline clip-path="url(#clip012)" style="stroke:#000000; stroke-linecap:round; stroke-linejoin:round; stroke-width:2; stroke-opacity:0.1; fill:none" points="
  604.664,1486.45 2352.76,1486.45 
  "/>
<polyline clip-path="url(#clip012)" style="stroke:#000000; stroke-linecap:round; stroke-linejoin:round; stroke-width:2; stroke-opacity:0.1; fill:none" points="
  604.664,1006.71 2352.76,1006.71 
  "/>
<polyline clip-path="url(#clip012)" style="stroke:#000000; stroke-linecap:round; stroke-linejoin:round; stroke-width:2; stroke-opacity:0.1; fill:none" points="
  604.664,526.979 2352.76,526.979 
  "/>
<polyline clip-path="url(#clip012)" style="stroke:#000000; stroke-linecap:round; stroke-linejoin:round; stroke-width:2; stroke-opacity:0.1; fill:none" points="
  604.664,47.2441 2352.76,47.2441 
  "/>
<polyline clip-path="url(#clip010)" style="stroke:#000000; stroke-linecap:round; stroke-linejoin:round; stroke-width:4; stroke-opacity:1; fill:none" points="
  604.664,1486.45 604.664,47.2441 
  "/>
<polyline clip-path="url(#clip010)" style="stroke:#000000; stroke-linecap:round; stroke-linejoin:round; stroke-width:4; stroke-opacity:1; fill:none" points="
  604.664,1486.45 623.562,1486.45 
  "/>
<polyline clip-path="url(#clip010)" style="stroke:#000000; stroke-linecap:round; stroke-linejoin:round; stroke-width:4; stroke-opacity:1; fill:none" points="
  604.664,1006.71 623.562,1006.71 
  "/>
<polyline clip-path="url(#clip010)" style="stroke:#000000; stroke-linecap:round; stroke-linejoin:round; stroke-width:4; stroke-opacity:1; fill:none" points="
  604.664,526.979 623.562,526.979 
  "/>
<polyline clip-path="url(#clip010)" style="stroke:#000000; stroke-linecap:round; stroke-linejoin:round; stroke-width:4; stroke-opacity:1; fill:none" points="
  604.664,47.2441 623.562,47.2441 
  "/>
<path clip-path="url(#clip010)" d="M50.9921 1493.35 L80.6679 1493.35 L80.6679 1497.28 L50.9921 1497.28 L50.9921 1493.35 Z" fill="#000000" fill-rule="evenodd" fill-opacity="1" /><path clip-path="url(#clip010)" d="M90.8067 1475.62 L109.163 1475.62 L109.163 1479.55 L95.0891 1479.55 L95.0891 1488.02 Q96.1076 1487.68 97.1261 1487.51 Q98.1447 1487.33 99.1632 1487.33 Q104.95 1487.33 108.33 1490.5 Q111.709 1493.67 111.709 1499.09 Q111.709 1504.67 108.237 1507.77 Q104.765 1510.85 98.4456 1510.85 Q96.2697 1510.85 94.0012 1510.48 Q91.7558 1510.11 89.3484 1509.37 L89.3484 1504.67 Q91.4317 1505.8 93.6539 1506.36 Q95.8761 1506.91 98.353 1506.91 Q102.358 1506.91 104.696 1504.81 Q107.033 1502.7 107.033 1499.09 Q107.033 1495.48 104.696 1493.37 Q102.358 1491.26 98.353 1491.26 Q96.478 1491.26 94.603 1491.68 Q92.7512 1492.1 90.8067 1492.98 L90.8067 1475.62 Z" fill="#000000" fill-rule="evenodd" fill-opacity="1" /><path clip-path="url(#clip010)" d="M120.922 1504.3 L125.807 1504.3 L125.807 1510.18 L120.922 1510.18 L120.922 1504.3 Z" fill="#000000" fill-rule="evenodd" fill-opacity="1" /><path clip-path="url(#clip010)" d="M145.992 1478.69 Q142.381 1478.69 140.552 1482.26 Q138.746 1485.8 138.746 1492.93 Q138.746 1500.04 140.552 1503.6 Q142.381 1507.14 145.992 1507.14 Q149.626 1507.14 151.431 1503.6 Q153.26 1500.04 153.26 1492.93 Q153.26 1485.8 151.431 1482.26 Q149.626 1478.69 145.992 1478.69 M145.992 1474.99 Q151.802 1474.99 154.857 1479.6 Q157.936 1484.18 157.936 1492.93 Q157.936 1501.66 154.857 1506.26 Q151.802 1510.85 145.992 1510.85 Q140.181 1510.85 137.103 1506.26 Q134.047 1501.66 134.047 1492.93 Q134.047 1484.18 137.103 1479.6 Q140.181 1474.99 145.992 1474.99 Z" fill="#000000" fill-rule="evenodd" fill-opacity="1" /><path clip-path="url(#clip010)" d="M166.292 1509.46 L166.292 1505.2 Q168.052 1506.03 169.857 1506.47 Q171.663 1506.91 173.399 1506.91 Q178.028 1506.91 180.459 1503.81 Q182.913 1500.68 183.26 1494.34 Q181.917 1496.33 179.857 1497.4 Q177.797 1498.46 175.297 1498.46 Q170.112 1498.46 167.079 1495.34 Q164.07 1492.19 164.07 1486.75 Q164.07 1481.43 167.218 1478.21 Q170.366 1474.99 175.598 1474.99 Q181.593 1474.99 184.741 1479.6 Q187.913 1484.18 187.913 1492.93 Q187.913 1501.1 184.024 1505.99 Q180.158 1510.85 173.607 1510.85 Q171.848 1510.85 170.042 1510.5 Q168.237 1510.15 166.292 1509.46 M175.598 1494.81 Q178.746 1494.81 180.575 1492.65 Q182.427 1490.5 182.427 1486.75 Q182.427 1483.02 180.575 1480.87 Q178.746 1478.69 175.598 1478.69 Q172.45 1478.69 170.598 1480.87 Q168.769 1483.02 168.769 1486.75 Q168.769 1490.5 170.598 1492.65 Q172.45 1494.81 175.598 1494.81 Z" fill="#000000" fill-rule="evenodd" fill-opacity="1" /><path clip-path="url(#clip010)" d="M206.315 1478.69 Q202.704 1478.69 200.876 1482.26 Q199.07 1485.8 199.07 1492.93 Q199.07 1500.04 200.876 1503.6 Q202.704 1507.14 206.315 1507.14 Q209.95 1507.14 211.755 1503.6 Q213.584 1500.04 213.584 1492.93 Q213.584 1485.8 211.755 1482.26 Q209.95 1478.69 206.315 1478.69 M206.315 1474.99 Q212.126 1474.99 215.181 1479.6 Q218.26 1484.18 218.26 1492.93 Q218.26 1501.66 215.181 1506.26 Q212.126 1510.85 206.315 1510.85 Q200.505 1510.85 197.427 1506.26 Q194.371 1501.66 194.371 1492.93 Q194.371 1484.18 197.427 1479.6 Q200.505 1474.99 206.315 1474.99 Z" fill="#000000" fill-rule="evenodd" fill-opacity="1" /><path clip-path="url(#clip010)" d="M237.056 1491.03 Q233.908 1491.03 232.056 1493.18 Q230.227 1495.34 230.227 1499.09 Q230.227 1502.81 232.056 1504.99 Q233.908 1507.14 237.056 1507.14 Q240.204 1507.14 242.033 1504.99 Q243.885 1502.81 243.885 1499.09 Q243.885 1495.34 242.033 1493.18 Q240.204 1491.03 237.056 1491.03 M246.338 1476.38 L246.338 1480.64 Q244.579 1479.81 242.774 1479.37 Q240.991 1478.93 239.232 1478.93 Q234.602 1478.93 232.149 1482.05 Q229.718 1485.18 229.371 1491.5 Q230.737 1489.48 232.797 1488.42 Q234.857 1487.33 237.334 1487.33 Q242.542 1487.33 245.551 1490.5 Q248.584 1493.65 248.584 1499.09 Q248.584 1504.41 245.436 1507.63 Q242.287 1510.85 237.056 1510.85 Q231.061 1510.85 227.889 1506.26 Q224.718 1501.66 224.718 1492.93 Q224.718 1484.74 228.607 1479.87 Q232.496 1474.99 239.047 1474.99 Q240.806 1474.99 242.588 1475.34 Q244.394 1475.68 246.338 1476.38 Z" fill="#000000" fill-rule="evenodd" fill-opacity="1" /><path clip-path="url(#clip010)" d="M256.685 1475.62 L275.042 1475.62 L275.042 1479.55 L260.968 1479.55 L260.968 1488.02 Q261.986 1487.68 263.005 1487.51 Q264.023 1487.33 265.042 1487.33 Q270.829 1487.33 274.209 1490.5 Q277.588 1493.67 277.588 1499.09 Q277.588 1504.67 274.116 1507.77 Q270.644 1510.85 264.324 1510.85 Q262.148 1510.85 259.88 1510.48 Q257.635 1510.11 255.227 1509.37 L255.227 1504.67 Q257.31 1505.8 259.533 1506.36 Q261.755 1506.91 264.232 1506.91 Q268.236 1506.91 270.574 1504.81 Q272.912 1502.7 272.912 1499.09 Q272.912 1495.48 270.574 1493.37 Q268.236 1491.26 264.232 1491.26 Q262.357 1491.26 260.482 1491.68 Q258.63 1492.1 256.685 1492.98 L256.685 1475.62 Z" fill="#000000" fill-rule="evenodd" fill-opacity="1" /><path clip-path="url(#clip010)" d="M285.62 1475.62 L307.843 1475.62 L307.843 1477.61 L295.296 1510.18 L290.412 1510.18 L302.218 1479.55 L285.62 1479.55 L285.62 1475.62 Z" fill="#000000" fill-rule="evenodd" fill-opacity="1" /><path clip-path="url(#clip010)" d="M320.991 1506.24 L337.31 1506.24 L337.31 1510.18 L315.366 1510.18 L315.366 1506.24 Q318.028 1503.49 322.611 1498.86 Q327.217 1494.2 328.398 1492.86 Q330.643 1490.34 331.523 1488.6 Q332.426 1486.84 332.426 1485.15 Q332.426 1482.4 330.481 1480.66 Q328.56 1478.93 325.458 1478.93 Q323.259 1478.93 320.805 1479.69 Q318.375 1480.45 315.597 1482 L315.597 1477.28 Q318.421 1476.15 320.875 1475.57 Q323.329 1474.99 325.366 1474.99 Q330.736 1474.99 333.93 1477.68 Q337.125 1480.36 337.125 1484.85 Q337.125 1486.98 336.315 1488.9 Q335.528 1490.8 333.421 1493.39 Q332.842 1494.06 329.741 1497.28 Q326.639 1500.48 320.991 1506.24 Z" fill="#000000" fill-rule="evenodd" fill-opacity="1" /><path clip-path="url(#clip010)" d="M347.935 1506.24 L355.574 1506.24 L355.574 1479.87 L347.264 1481.54 L347.264 1477.28 L355.528 1475.62 L360.203 1475.62 L360.203 1506.24 L367.842 1506.24 L367.842 1510.18 L347.935 1510.18 L347.935 1506.24 Z" fill="#000000" fill-rule="evenodd" fill-opacity="1" /><path clip-path="url(#clip010)" d="M405.458 1484.71 L394.879 1495.34 L405.458 1505.92 L402.703 1508.72 L392.078 1498.09 L381.453 1508.72 L378.722 1505.92 L389.277 1495.34 L378.722 1484.71 L381.453 1481.91 L392.078 1492.54 L402.703 1481.91 L405.458 1484.71 Z" fill="#000000" fill-rule="evenodd" fill-opacity="1" /><path clip-path="url(#clip010)" d="M417.819 1506.24 L425.458 1506.24 L425.458 1479.87 L417.148 1481.54 L417.148 1477.28 L425.411 1475.62 L430.087 1475.62 L430.087 1506.24 L437.726 1506.24 L437.726 1510.18 L417.819 1510.18 L417.819 1506.24 Z" fill="#000000" fill-rule="evenodd" fill-opacity="1" /><path clip-path="url(#clip010)" d="M457.171 1478.69 Q453.559 1478.69 451.731 1482.26 Q449.925 1485.8 449.925 1492.93 Q449.925 1500.04 451.731 1503.6 Q453.559 1507.14 457.171 1507.14 Q460.805 1507.14 462.61 1503.6 Q464.439 1500.04 464.439 1492.93 Q464.439 1485.8 462.61 1482.26 Q460.805 1478.69 457.171 1478.69 M457.171 1474.99 Q462.981 1474.99 466.036 1479.6 Q469.115 1484.18 469.115 1492.93 Q469.115 1501.66 466.036 1506.26 Q462.981 1510.85 457.171 1510.85 Q451.36 1510.85 448.282 1506.26 Q445.226 1501.66 445.226 1492.93 Q445.226 1484.18 448.282 1479.6 Q451.36 1474.99 457.171 1474.99 Z" fill="#000000" fill-rule="evenodd" fill-opacity="1" /><path clip-path="url(#clip010)" d="M469.115 1469.09 L493.226 1469.09 L493.226 1472.29 L469.115 1472.29 L469.115 1469.09 Z" fill="#000000" fill-rule="evenodd" fill-opacity="1" /><path clip-path="url(#clip010)" d="M504.699 1479.57 L517.959 1479.57 L517.959 1482.77 L500.129 1482.77 L500.129 1479.57 Q502.292 1477.33 506.016 1473.57 Q509.758 1469.79 510.718 1468.7 Q512.542 1466.65 513.257 1465.24 Q513.99 1463.81 513.99 1462.43 Q513.99 1460.2 512.41 1458.79 Q510.849 1457.37 508.329 1457.37 Q506.542 1457.37 504.549 1458 Q502.574 1458.62 500.317 1459.88 L500.317 1456.04 Q502.612 1455.12 504.605 1454.65 Q506.599 1454.18 508.254 1454.18 Q512.617 1454.18 515.213 1456.36 Q517.808 1458.54 517.808 1462.19 Q517.808 1463.92 517.15 1465.48 Q516.51 1467.02 514.799 1469.13 Q514.329 1469.67 511.809 1472.29 Q509.288 1474.88 504.699 1479.57 Z" fill="#000000" fill-rule="evenodd" fill-opacity="1" /><path clip-path="url(#clip010)" d="M526.046 1482.18 L526.046 1478.72 Q527.475 1479.4 528.942 1479.76 Q530.409 1480.11 531.82 1480.11 Q535.582 1480.11 537.556 1477.59 Q539.55 1475.05 539.832 1469.9 Q538.741 1471.52 537.067 1472.38 Q535.393 1473.25 533.362 1473.25 Q529.149 1473.25 526.685 1470.71 Q524.24 1468.15 524.24 1463.73 Q524.24 1459.41 526.798 1456.79 Q529.356 1454.18 533.607 1454.18 Q538.478 1454.18 541.036 1457.92 Q543.612 1461.64 543.612 1468.75 Q543.612 1475.39 540.453 1479.36 Q537.312 1483.31 531.989 1483.31 Q530.56 1483.31 529.093 1483.03 Q527.626 1482.75 526.046 1482.18 M533.607 1470.28 Q536.165 1470.28 537.65 1468.53 Q539.155 1466.78 539.155 1463.73 Q539.155 1460.7 537.65 1458.95 Q536.165 1457.19 533.607 1457.19 Q531.049 1457.19 529.544 1458.95 Q528.058 1460.7 528.058 1463.73 Q528.058 1466.78 529.544 1468.53 Q531.049 1470.28 533.607 1470.28 Z" fill="#000000" fill-rule="evenodd" fill-opacity="1" /><path clip-path="url(#clip010)" d="M560.878 1458 L551.286 1472.99 L560.878 1472.99 L560.878 1458 M559.881 1454.69 L564.658 1454.69 L564.658 1472.99 L568.664 1472.99 L568.664 1476.14 L564.658 1476.14 L564.658 1482.77 L560.878 1482.77 L560.878 1476.14 L548.202 1476.14 L548.202 1472.48 L559.881 1454.69 Z" fill="#000000" fill-rule="evenodd" fill-opacity="1" /><path clip-path="url(#clip010)" d="M91.7283 995.881 L110.085 995.881 L110.085 999.816 L96.0107 999.816 L96.0107 1008.29 Q97.0292 1007.94 98.0477 1007.78 Q99.0662 1007.59 100.085 1007.59 Q105.872 1007.59 109.251 1010.77 Q112.631 1013.94 112.631 1019.35 Q112.631 1024.93 109.159 1028.03 Q105.687 1031.11 99.3672 1031.11 Q97.1912 1031.11 94.9227 1030.74 Q92.6774 1030.37 90.27 1029.63 L90.27 1024.93 Q92.3533 1026.07 94.5755 1026.62 Q96.7977 1027.18 99.2746 1027.18 Q103.279 1027.18 105.617 1025.07 Q107.955 1022.96 107.955 1019.35 Q107.955 1015.74 105.617 1013.64 Q103.279 1011.53 99.2746 1011.53 Q97.3996 1011.53 95.5246 1011.95 Q93.6727 1012.36 91.7283 1013.24 L91.7283 995.881 Z" fill="#000000" fill-rule="evenodd" fill-opacity="1" /><path clip-path="url(#clip010)" d="M121.844 1024.56 L126.728 1024.56 L126.728 1030.44 L121.844 1030.44 L121.844 1024.56 Z" fill="#000000" fill-rule="evenodd" fill-opacity="1" /><path clip-path="url(#clip010)" d="M149.76 999.955 L137.955 1018.4 L149.76 1018.4 L149.76 999.955 M148.534 995.881 L154.413 995.881 L154.413 1018.4 L159.344 1018.4 L159.344 1022.29 L154.413 1022.29 L154.413 1030.44 L149.76 1030.44 L149.76 1022.29 L134.159 1022.29 L134.159 1017.78 L148.534 995.881 Z" fill="#000000" fill-rule="evenodd" fill-opacity="1" /><path clip-path="url(#clip010)" d="M177.075 1014.03 Q173.742 1014.03 171.82 1015.81 Q169.922 1017.59 169.922 1020.72 Q169.922 1023.84 171.82 1025.63 Q173.742 1027.41 177.075 1027.41 Q180.408 1027.41 182.33 1025.63 Q184.251 1023.82 184.251 1020.72 Q184.251 1017.59 182.33 1015.81 Q180.432 1014.03 177.075 1014.03 M172.399 1012.04 Q169.39 1011.3 167.7 1009.24 Q166.033 1007.18 166.033 1004.21 Q166.033 1000.07 168.973 997.663 Q171.936 995.256 177.075 995.256 Q182.237 995.256 185.177 997.663 Q188.117 1000.07 188.117 1004.21 Q188.117 1007.18 186.427 1009.24 Q184.76 1011.3 181.774 1012.04 Q185.154 1012.83 187.029 1015.12 Q188.927 1017.41 188.927 1020.72 Q188.927 1025.74 185.848 1028.43 Q182.793 1031.11 177.075 1031.11 Q171.358 1031.11 168.279 1028.43 Q165.223 1025.74 165.223 1020.72 Q165.223 1017.41 167.121 1015.12 Q169.02 1012.83 172.399 1012.04 M170.686 1004.65 Q170.686 1007.34 172.353 1008.84 Q174.043 1010.35 177.075 1010.35 Q180.084 1010.35 181.774 1008.84 Q183.487 1007.34 183.487 1004.65 Q183.487 1001.97 181.774 1000.46 Q180.084 998.96 177.075 998.96 Q174.043 998.96 172.353 1000.46 Q170.686 1001.97 170.686 1004.65 Z" fill="#000000" fill-rule="evenodd" fill-opacity="1" /><path clip-path="url(#clip010)" d="M207.816 1011.3 Q204.668 1011.3 202.816 1013.45 Q200.987 1015.6 200.987 1019.35 Q200.987 1023.08 202.816 1025.26 Q204.668 1027.41 207.816 1027.41 Q210.964 1027.41 212.792 1025.26 Q214.644 1023.08 214.644 1019.35 Q214.644 1015.6 212.792 1013.45 Q210.964 1011.3 207.816 1011.3 M217.098 996.645 L217.098 1000.9 Q215.339 1000.07 213.533 999.631 Q211.751 999.191 209.992 999.191 Q205.362 999.191 202.908 1002.32 Q200.478 1005.44 200.131 1011.76 Q201.496 1009.75 203.556 1008.68 Q205.617 1007.59 208.093 1007.59 Q213.302 1007.59 216.311 1010.77 Q219.343 1013.91 219.343 1019.35 Q219.343 1024.68 216.195 1027.89 Q213.047 1031.11 207.816 1031.11 Q201.82 1031.11 198.649 1026.53 Q195.478 1021.92 195.478 1013.2 Q195.478 1005 199.367 1000.14 Q203.255 995.256 209.806 995.256 Q211.566 995.256 213.348 995.603 Q215.154 995.95 217.098 996.645 Z" fill="#000000" fill-rule="evenodd" fill-opacity="1" /><path clip-path="url(#clip010)" d="M227.445 995.881 L245.802 995.881 L245.802 999.816 L231.728 999.816 L231.728 1008.29 Q232.746 1007.94 233.765 1007.78 Q234.783 1007.59 235.802 1007.59 Q241.589 1007.59 244.968 1010.77 Q248.348 1013.94 248.348 1019.35 Q248.348 1024.93 244.876 1028.03 Q241.403 1031.11 235.084 1031.11 Q232.908 1031.11 230.64 1030.74 Q228.394 1030.37 225.987 1029.63 L225.987 1024.93 Q228.07 1026.07 230.292 1026.62 Q232.515 1027.18 234.991 1027.18 Q238.996 1027.18 241.334 1025.07 Q243.672 1022.96 243.672 1019.35 Q243.672 1015.74 241.334 1013.64 Q238.996 1011.53 234.991 1011.53 Q233.116 1011.53 231.241 1011.95 Q229.39 1012.36 227.445 1013.24 L227.445 995.881 Z" fill="#000000" fill-rule="evenodd" fill-opacity="1" /><path clip-path="url(#clip010)" d="M257.7 1029.72 L257.7 1025.46 Q259.459 1026.3 261.264 1026.74 Q263.07 1027.18 264.806 1027.18 Q269.436 1027.18 271.866 1024.08 Q274.32 1020.95 274.667 1014.61 Q273.325 1016.6 271.264 1017.66 Q269.204 1018.73 266.704 1018.73 Q261.519 1018.73 258.487 1015.6 Q255.477 1012.45 255.477 1007.02 Q255.477 1001.69 258.626 998.473 Q261.774 995.256 267.005 995.256 Q273 995.256 276.149 999.862 Q279.32 1004.45 279.32 1013.2 Q279.32 1021.37 275.431 1026.25 Q271.565 1031.11 265.014 1031.11 Q263.255 1031.11 261.45 1030.76 Q259.644 1030.42 257.7 1029.72 M267.005 1015.07 Q270.153 1015.07 271.982 1012.92 Q273.834 1010.77 273.834 1007.02 Q273.834 1003.29 271.982 1001.14 Q270.153 998.96 267.005 998.96 Q263.857 998.96 262.005 1001.14 Q260.176 1003.29 260.176 1007.02 Q260.176 1010.77 262.005 1012.92 Q263.857 1015.07 267.005 1015.07 Z" fill="#000000" fill-rule="evenodd" fill-opacity="1" /><path clip-path="url(#clip010)" d="M286.542 995.881 L308.764 995.881 L308.764 997.872 L296.218 1030.44 L291.334 1030.44 L303.139 999.816 L286.542 999.816 L286.542 995.881 Z" fill="#000000" fill-rule="evenodd" fill-opacity="1" /><path clip-path="url(#clip010)" d="M321.912 1026.51 L338.232 1026.51 L338.232 1030.44 L316.287 1030.44 L316.287 1026.51 Q318.949 1023.75 323.533 1019.12 Q328.139 1014.47 329.32 1013.13 Q331.565 1010.6 332.445 1008.87 Q333.347 1007.11 333.347 1005.42 Q333.347 1002.66 331.403 1000.93 Q329.482 999.191 326.38 999.191 Q324.181 999.191 321.727 999.955 Q319.297 1000.72 316.519 1002.27 L316.519 997.548 Q319.343 996.413 321.797 995.835 Q324.25 995.256 326.287 995.256 Q331.658 995.256 334.852 997.941 Q338.046 1000.63 338.046 1005.12 Q338.046 1007.25 337.236 1009.17 Q336.449 1011.07 334.343 1013.66 Q333.764 1014.33 330.662 1017.55 Q327.56 1020.74 321.912 1026.51 Z" fill="#000000" fill-rule="evenodd" fill-opacity="1" /><path clip-path="url(#clip010)" d="M352.074 1026.51 L368.393 1026.51 L368.393 1030.44 L346.449 1030.44 L346.449 1026.51 Q349.111 1023.75 353.694 1019.12 Q358.301 1014.47 359.482 1013.13 Q361.727 1010.6 362.606 1008.87 Q363.509 1007.11 363.509 1005.42 Q363.509 1002.66 361.565 1000.93 Q359.644 999.191 356.542 999.191 Q354.343 999.191 351.889 999.955 Q349.458 1000.72 346.681 1002.27 L346.681 997.548 Q349.505 996.413 351.958 995.835 Q354.412 995.256 356.449 995.256 Q361.819 995.256 365.014 997.941 Q368.208 1000.63 368.208 1005.12 Q368.208 1007.25 367.398 1009.17 Q366.611 1011.07 364.505 1013.66 Q363.926 1014.33 360.824 1017.55 Q357.722 1020.74 352.074 1026.51 Z" fill="#000000" fill-rule="evenodd" fill-opacity="1" /><path clip-path="url(#clip010)" d="M406.379 1004.98 L395.801 1015.6 L406.379 1026.18 L403.625 1028.98 L393 1018.36 L382.375 1028.98 L379.643 1026.18 L390.199 1015.6 L379.643 1004.98 L382.375 1002.18 L393 1012.8 L403.625 1002.18 L406.379 1004.98 Z" fill="#000000" fill-rule="evenodd" fill-opacity="1" /><path clip-path="url(#clip010)" d="M418.74 1026.51 L426.379 1026.51 L426.379 1000.14 L418.069 1001.81 L418.069 997.548 L426.333 995.881 L431.009 995.881 L431.009 1026.51 L438.648 1026.51 L438.648 1030.44 L418.74 1030.44 L418.74 1026.51 Z" fill="#000000" fill-rule="evenodd" fill-opacity="1" /><path clip-path="url(#clip010)" d="M458.092 998.96 Q454.481 998.96 452.652 1002.52 Q450.847 1006.07 450.847 1013.2 Q450.847 1020.3 452.652 1023.87 Q454.481 1027.41 458.092 1027.41 Q461.726 1027.41 463.532 1023.87 Q465.361 1020.3 465.361 1013.2 Q465.361 1006.07 463.532 1002.52 Q461.726 998.96 458.092 998.96 M458.092 995.256 Q463.902 995.256 466.958 999.862 Q470.036 1004.45 470.036 1013.2 Q470.036 1021.92 466.958 1026.53 Q463.902 1031.11 458.092 1031.11 Q452.282 1031.11 449.203 1026.53 Q446.148 1021.92 446.148 1013.2 Q446.148 1004.45 449.203 999.862 Q452.282 995.256 458.092 995.256 Z" fill="#000000" fill-rule="evenodd" fill-opacity="1" /><path clip-path="url(#clip010)" d="M470.036 989.357 L494.148 989.357 L494.148 992.555 L470.036 992.555 L470.036 989.357 Z" fill="#000000" fill-rule="evenodd" fill-opacity="1" /><path clip-path="url(#clip010)" d="M505.621 999.833 L518.88 999.833 L518.88 1003.03 L501.05 1003.03 L501.05 999.833 Q503.213 997.595 506.937 993.833 Q510.68 990.053 511.639 988.962 Q513.464 986.912 514.178 985.502 Q514.912 984.072 514.912 982.699 Q514.912 980.461 513.332 979.051 Q511.771 977.64 509.251 977.64 Q507.464 977.64 505.47 978.261 Q503.495 978.881 501.239 980.141 L501.239 976.305 Q503.533 975.383 505.527 974.913 Q507.52 974.443 509.175 974.443 Q513.539 974.443 516.134 976.624 Q518.73 978.806 518.73 982.455 Q518.73 984.185 518.072 985.746 Q517.432 987.288 515.721 989.395 Q515.25 989.94 512.73 992.555 Q510.21 995.15 505.621 999.833 Z" fill="#000000" fill-rule="evenodd" fill-opacity="1" /><path clip-path="url(#clip010)" d="M526.968 1002.45 L526.968 998.987 Q528.397 999.664 529.864 1000.02 Q531.331 1000.38 532.742 1000.38 Q536.503 1000.38 538.478 997.858 Q540.472 995.319 540.754 990.166 Q539.663 991.783 537.989 992.649 Q536.315 993.514 534.284 993.514 Q530.071 993.514 527.607 990.975 Q525.162 988.417 525.162 983.997 Q525.162 979.671 527.72 977.057 Q530.278 974.443 534.528 974.443 Q539.4 974.443 541.957 978.185 Q544.534 981.909 544.534 989.019 Q544.534 995.658 541.374 999.626 Q538.233 1003.58 532.911 1003.58 Q531.481 1003.58 530.014 1003.29 Q528.547 1003.01 526.968 1002.45 M534.528 990.542 Q537.086 990.542 538.572 988.793 Q540.077 987.044 540.077 983.997 Q540.077 980.969 538.572 979.22 Q537.086 977.452 534.528 977.452 Q531.97 977.452 530.466 979.22 Q528.98 980.969 528.98 983.997 Q528.98 987.044 530.466 988.793 Q531.97 990.542 534.528 990.542 Z" fill="#000000" fill-rule="evenodd" fill-opacity="1" /><path clip-path="url(#clip010)" d="M562.872 987.89 Q565.599 988.473 567.122 990.316 Q568.664 992.16 568.664 994.868 Q568.664 999.024 565.806 1001.3 Q562.947 1003.58 557.681 1003.58 Q555.913 1003.58 554.032 1003.22 Q552.17 1002.88 550.176 1002.18 L550.176 998.517 Q551.756 999.438 553.637 999.908 Q555.518 1000.38 557.568 1000.38 Q561.141 1000.38 563.003 998.968 Q564.884 997.557 564.884 994.868 Q564.884 992.385 563.135 990.994 Q561.405 989.583 558.301 989.583 L555.029 989.583 L555.029 986.461 L558.452 986.461 Q561.254 986.461 562.74 985.351 Q564.226 984.223 564.226 982.116 Q564.226 979.953 562.684 978.806 Q561.16 977.64 558.301 977.64 Q556.74 977.64 554.954 977.979 Q553.167 978.317 551.023 979.032 L551.023 975.646 Q553.186 975.045 555.066 974.744 Q556.966 974.443 558.64 974.443 Q562.966 974.443 565.486 976.417 Q568.006 978.373 568.006 981.721 Q568.006 984.053 566.671 985.671 Q565.335 987.27 562.872 987.89 Z" fill="#000000" fill-rule="evenodd" fill-opacity="1" /><path clip-path="url(#clip010)" d="M93.2633 546.771 L100.902 546.771 L100.902 520.406 L92.592 522.072 L92.592 517.813 L100.856 516.146 L105.532 516.146 L105.532 546.771 L113.171 546.771 L113.171 550.706 L93.2633 550.706 L93.2633 546.771 Z" fill="#000000" fill-rule="evenodd" fill-opacity="1" /><path clip-path="url(#clip010)" d="M122.615 544.827 L127.499 544.827 L127.499 550.706 L122.615 550.706 L122.615 544.827 Z" fill="#000000" fill-rule="evenodd" fill-opacity="1" /><path clip-path="url(#clip010)" d="M138.495 546.771 L146.133 546.771 L146.133 520.406 L137.823 522.072 L137.823 517.813 L146.087 516.146 L150.763 516.146 L150.763 546.771 L158.402 546.771 L158.402 550.706 L138.495 550.706 L138.495 546.771 Z" fill="#000000" fill-rule="evenodd" fill-opacity="1" /><path clip-path="url(#clip010)" d="M180.693 520.22 L168.888 538.669 L180.693 538.669 L180.693 520.22 M179.467 516.146 L185.346 516.146 L185.346 538.669 L190.277 538.669 L190.277 542.558 L185.346 542.558 L185.346 550.706 L180.693 550.706 L180.693 542.558 L165.092 542.558 L165.092 538.044 L179.467 516.146 Z" fill="#000000" fill-rule="evenodd" fill-opacity="1" /><path clip-path="url(#clip010)" d="M208.008 534.294 Q204.675 534.294 202.753 536.077 Q200.855 537.859 200.855 540.984 Q200.855 544.109 202.753 545.891 Q204.675 547.674 208.008 547.674 Q211.341 547.674 213.263 545.891 Q215.184 544.086 215.184 540.984 Q215.184 537.859 213.263 536.077 Q211.365 534.294 208.008 534.294 M203.332 532.304 Q200.323 531.563 198.633 529.503 Q196.966 527.443 196.966 524.48 Q196.966 520.336 199.906 517.929 Q202.869 515.521 208.008 515.521 Q213.17 515.521 216.11 517.929 Q219.05 520.336 219.05 524.48 Q219.05 527.443 217.36 529.503 Q215.693 531.563 212.707 532.304 Q216.087 533.091 217.962 535.382 Q219.86 537.674 219.86 540.984 Q219.86 546.007 216.781 548.692 Q213.726 551.378 208.008 551.378 Q202.291 551.378 199.212 548.692 Q196.156 546.007 196.156 540.984 Q196.156 537.674 198.054 535.382 Q199.953 533.091 203.332 532.304 M201.619 524.919 Q201.619 527.605 203.286 529.109 Q204.976 530.614 208.008 530.614 Q211.017 530.614 212.707 529.109 Q214.42 527.605 214.42 524.919 Q214.42 522.234 212.707 520.73 Q211.017 519.225 208.008 519.225 Q204.976 519.225 203.286 520.73 Q201.619 522.234 201.619 524.919 Z" fill="#000000" fill-rule="evenodd" fill-opacity="1" /><path clip-path="url(#clip010)" d="M232.198 546.771 L248.517 546.771 L248.517 550.706 L226.573 550.706 L226.573 546.771 Q229.235 544.017 233.818 539.387 Q238.425 534.734 239.605 533.392 Q241.85 530.868 242.73 529.132 Q243.633 527.373 243.633 525.683 Q243.633 522.929 241.688 521.193 Q239.767 519.456 236.665 519.456 Q234.466 519.456 232.013 520.22 Q229.582 520.984 226.804 522.535 L226.804 517.813 Q229.628 516.679 232.082 516.1 Q234.536 515.521 236.573 515.521 Q241.943 515.521 245.137 518.206 Q248.332 520.892 248.332 525.382 Q248.332 527.512 247.522 529.433 Q246.735 531.331 244.628 533.924 Q244.05 534.595 240.948 537.813 Q237.846 541.007 232.198 546.771 Z" fill="#000000" fill-rule="evenodd" fill-opacity="1" /><path clip-path="url(#clip010)" d="M262.36 546.771 L278.679 546.771 L278.679 550.706 L256.735 550.706 L256.735 546.771 Q259.397 544.017 263.98 539.387 Q268.586 534.734 269.767 533.392 Q272.012 530.868 272.892 529.132 Q273.795 527.373 273.795 525.683 Q273.795 522.929 271.85 521.193 Q269.929 519.456 266.827 519.456 Q264.628 519.456 262.174 520.22 Q259.744 520.984 256.966 522.535 L256.966 517.813 Q259.79 516.679 262.244 516.1 Q264.698 515.521 266.735 515.521 Q272.105 515.521 275.299 518.206 Q278.494 520.892 278.494 525.382 Q278.494 527.512 277.684 529.433 Q276.897 531.331 274.79 533.924 Q274.211 534.595 271.11 537.813 Q268.008 541.007 262.36 546.771 Z" fill="#000000" fill-rule="evenodd" fill-opacity="1" /><path clip-path="url(#clip010)" d="M299.072 531.563 Q295.924 531.563 294.072 533.716 Q292.244 535.868 292.244 539.618 Q292.244 543.345 294.072 545.521 Q295.924 547.674 299.072 547.674 Q302.221 547.674 304.049 545.521 Q305.901 543.345 305.901 539.618 Q305.901 535.868 304.049 533.716 Q302.221 531.563 299.072 531.563 M308.355 516.91 L308.355 521.169 Q306.596 520.336 304.79 519.896 Q303.008 519.456 301.248 519.456 Q296.619 519.456 294.165 522.581 Q291.734 525.706 291.387 532.026 Q292.753 530.012 294.813 528.947 Q296.873 527.859 299.35 527.859 Q304.558 527.859 307.568 531.03 Q310.6 534.179 310.6 539.618 Q310.6 544.942 307.452 548.16 Q304.304 551.378 299.072 551.378 Q293.077 551.378 289.906 546.794 Q286.734 542.188 286.734 533.461 Q286.734 525.267 290.623 520.406 Q294.512 515.521 301.063 515.521 Q302.822 515.521 304.605 515.869 Q306.41 516.216 308.355 516.91 Z" fill="#000000" fill-rule="evenodd" fill-opacity="1" /><path clip-path="url(#clip010)" d="M328.656 519.225 Q325.044 519.225 323.216 522.79 Q321.41 526.331 321.41 533.461 Q321.41 540.567 323.216 544.132 Q325.044 547.674 328.656 547.674 Q332.29 547.674 334.095 544.132 Q335.924 540.567 335.924 533.461 Q335.924 526.331 334.095 522.79 Q332.29 519.225 328.656 519.225 M328.656 515.521 Q334.466 515.521 337.521 520.128 Q340.6 524.711 340.6 533.461 Q340.6 542.188 337.521 546.794 Q334.466 551.378 328.656 551.378 Q322.845 551.378 319.767 546.794 Q316.711 542.188 316.711 533.461 Q316.711 524.711 319.767 520.128 Q322.845 515.521 328.656 515.521 Z" fill="#000000" fill-rule="evenodd" fill-opacity="1" /><path clip-path="url(#clip010)" d="M352.845 546.771 L369.165 546.771 L369.165 550.706 L347.22 550.706 L347.22 546.771 Q349.882 544.017 354.466 539.387 Q359.072 534.734 360.253 533.392 Q362.498 530.868 363.378 529.132 Q364.28 527.373 364.28 525.683 Q364.28 522.929 362.336 521.193 Q360.415 519.456 357.313 519.456 Q355.114 519.456 352.66 520.22 Q350.23 520.984 347.452 522.535 L347.452 517.813 Q350.276 516.679 352.73 516.1 Q355.183 515.521 357.22 515.521 Q362.591 515.521 365.785 518.206 Q368.979 520.892 368.979 525.382 Q368.979 527.512 368.169 529.433 Q367.382 531.331 365.276 533.924 Q364.697 534.595 361.595 537.813 Q358.493 541.007 352.845 546.771 Z" fill="#000000" fill-rule="evenodd" fill-opacity="1" /><path clip-path="url(#clip010)" d="M407.151 525.243 L396.572 535.868 L407.151 546.447 L404.396 549.248 L393.771 538.623 L383.146 549.248 L380.415 546.447 L390.97 535.868 L380.415 525.243 L383.146 522.443 L393.771 533.067 L404.396 522.443 L407.151 525.243 Z" fill="#000000" fill-rule="evenodd" fill-opacity="1" /><path clip-path="url(#clip010)" d="M419.512 546.771 L427.15 546.771 L427.15 520.406 L418.84 522.072 L418.84 517.813 L427.104 516.146 L431.78 516.146 L431.78 546.771 L439.419 546.771 L439.419 550.706 L419.512 550.706 L419.512 546.771 Z" fill="#000000" fill-rule="evenodd" fill-opacity="1" /><path clip-path="url(#clip010)" d="M458.863 519.225 Q455.252 519.225 453.423 522.79 Q451.618 526.331 451.618 533.461 Q451.618 540.567 453.423 544.132 Q455.252 547.674 458.863 547.674 Q462.497 547.674 464.303 544.132 Q466.132 540.567 466.132 533.461 Q466.132 526.331 464.303 522.79 Q462.497 519.225 458.863 519.225 M458.863 515.521 Q464.673 515.521 467.729 520.128 Q470.808 524.711 470.808 533.461 Q470.808 542.188 467.729 546.794 Q464.673 551.378 458.863 551.378 Q453.053 551.378 449.974 546.794 Q446.919 542.188 446.919 533.461 Q446.919 524.711 449.974 520.128 Q453.053 515.521 458.863 515.521 Z" fill="#000000" fill-rule="evenodd" fill-opacity="1" /><path clip-path="url(#clip010)" d="M470.808 509.623 L494.919 509.623 L494.919 512.82 L470.808 512.82 L470.808 509.623 Z" fill="#000000" fill-rule="evenodd" fill-opacity="1" /><path clip-path="url(#clip010)" d="M506.392 520.099 L519.651 520.099 L519.651 523.296 L501.822 523.296 L501.822 520.099 Q503.984 517.86 507.708 514.099 Q511.451 510.319 512.41 509.228 Q514.235 507.178 514.949 505.767 Q515.683 504.338 515.683 502.965 Q515.683 500.727 514.103 499.316 Q512.542 497.905 510.022 497.905 Q508.235 497.905 506.241 498.526 Q504.267 499.147 502.01 500.407 L502.01 496.57 Q504.304 495.648 506.298 495.178 Q508.291 494.708 509.947 494.708 Q514.31 494.708 516.905 496.89 Q519.501 499.071 519.501 502.72 Q519.501 504.451 518.843 506.012 Q518.203 507.554 516.492 509.66 Q516.021 510.206 513.501 512.82 Q510.981 515.415 506.392 520.099 Z" fill="#000000" fill-rule="evenodd" fill-opacity="1" /><path clip-path="url(#clip010)" d="M527.739 522.713 L527.739 519.252 Q529.168 519.929 530.635 520.287 Q532.102 520.644 533.513 520.644 Q537.274 520.644 539.249 518.124 Q541.243 515.585 541.525 510.431 Q540.434 512.049 538.76 512.914 Q537.086 513.779 535.055 513.779 Q530.842 513.779 528.378 511.24 Q525.933 508.682 525.933 504.262 Q525.933 499.937 528.491 497.322 Q531.049 494.708 535.299 494.708 Q540.171 494.708 542.728 498.451 Q545.305 502.175 545.305 509.284 Q545.305 515.923 542.145 519.892 Q539.005 523.841 533.682 523.841 Q532.253 523.841 530.786 523.559 Q529.319 523.277 527.739 522.713 M535.299 510.808 Q537.857 510.808 539.343 509.058 Q540.848 507.309 540.848 504.262 Q540.848 501.234 539.343 499.485 Q537.857 497.717 535.299 497.717 Q532.742 497.717 531.237 499.485 Q529.751 501.234 529.751 504.262 Q529.751 507.309 531.237 509.058 Q532.742 510.808 535.299 510.808 Z" fill="#000000" fill-rule="evenodd" fill-opacity="1" /><path clip-path="url(#clip010)" d="M555.405 520.099 L568.664 520.099 L568.664 523.296 L550.835 523.296 L550.835 520.099 Q552.998 517.86 556.721 514.099 Q560.464 510.319 561.423 509.228 Q563.248 507.178 563.962 505.767 Q564.696 504.338 564.696 502.965 Q564.696 500.727 563.116 499.316 Q561.555 497.905 559.035 497.905 Q557.248 497.905 555.254 498.526 Q553.28 499.147 551.023 500.407 L551.023 496.57 Q553.317 495.648 555.311 495.178 Q557.305 494.708 558.96 494.708 Q563.323 494.708 565.918 496.89 Q568.514 499.071 568.514 502.72 Q568.514 504.451 567.856 506.012 Q567.216 507.554 565.505 509.66 Q565.035 510.206 562.514 512.82 Q559.994 515.415 555.405 520.099 Z" fill="#000000" fill-rule="evenodd" fill-opacity="1" /><path clip-path="url(#clip010)" d="M93.2633 67.0365 L100.902 67.0365 L100.902 40.6709 L92.592 42.3376 L92.592 38.0784 L100.856 36.4117 L105.532 36.4117 L105.532 67.0365 L113.171 67.0365 L113.171 70.9717 L93.2633 70.9717 L93.2633 67.0365 Z" fill="#000000" fill-rule="evenodd" fill-opacity="1" /><path clip-path="url(#clip010)" d="M122.615 65.0921 L127.499 65.0921 L127.499 70.9717 L122.615 70.9717 L122.615 65.0921 Z" fill="#000000" fill-rule="evenodd" fill-opacity="1" /><path clip-path="url(#clip010)" d="M136.504 36.4117 L158.726 36.4117 L158.726 38.4024 L146.18 70.9717 L141.295 70.9717 L153.101 40.3469 L136.504 40.3469 L136.504 36.4117 Z" fill="#000000" fill-rule="evenodd" fill-opacity="1" /><path clip-path="url(#clip010)" d="M180.693 40.4857 L168.888 58.9347 L180.693 58.9347 L180.693 40.4857 M179.467 36.4117 L185.346 36.4117 L185.346 58.9347 L190.277 58.9347 L190.277 62.8236 L185.346 62.8236 L185.346 70.9717 L180.693 70.9717 L180.693 62.8236 L165.092 62.8236 L165.092 58.3097 L179.467 36.4117 Z" fill="#000000" fill-rule="evenodd" fill-opacity="1" /><path clip-path="url(#clip010)" d="M196.828 36.4117 L219.05 36.4117 L219.05 38.4024 L206.503 70.9717 L201.619 70.9717 L213.425 40.3469 L196.828 40.3469 L196.828 36.4117 Z" fill="#000000" fill-rule="evenodd" fill-opacity="1" /><path clip-path="url(#clip010)" d="M226.989 36.4117 L249.212 36.4117 L249.212 38.4024 L236.665 70.9717 L231.781 70.9717 L243.587 40.3469 L226.989 40.3469 L226.989 36.4117 Z" fill="#000000" fill-rule="evenodd" fill-opacity="1" /><path clip-path="url(#clip010)" d="M258.471 70.2541 L258.471 65.9949 Q260.23 66.8282 262.036 67.268 Q263.841 67.7078 265.577 67.7078 Q270.207 67.7078 272.637 64.606 Q275.091 61.481 275.438 55.1384 Q274.096 57.1292 272.036 58.194 Q269.975 59.2588 267.475 59.2588 Q262.29 59.2588 259.258 56.1338 Q256.249 52.9857 256.249 47.5459 Q256.249 42.2218 259.397 39.0043 Q262.545 35.7867 267.776 35.7867 Q273.772 35.7867 276.92 40.3932 Q280.091 44.9765 280.091 53.7264 Q280.091 61.8977 276.202 66.7819 Q272.336 71.643 265.786 71.643 Q264.026 71.643 262.221 71.2958 Q260.415 70.9485 258.471 70.2541 M267.776 55.6014 Q270.924 55.6014 272.753 53.4486 Q274.605 51.2959 274.605 47.5459 Q274.605 43.8191 272.753 41.6663 Q270.924 39.4904 267.776 39.4904 Q264.628 39.4904 262.776 41.6663 Q260.948 43.8191 260.948 47.5459 Q260.948 51.2959 262.776 53.4486 Q264.628 55.6014 267.776 55.6014 Z" fill="#000000" fill-rule="evenodd" fill-opacity="1" /><path clip-path="url(#clip010)" d="M292.522 67.0365 L308.841 67.0365 L308.841 70.9717 L286.897 70.9717 L286.897 67.0365 Q289.559 64.2819 294.142 59.6523 Q298.748 54.9996 299.929 53.657 Q302.174 51.1338 303.054 49.3977 Q303.957 47.6385 303.957 45.9487 Q303.957 43.1941 302.012 41.458 Q300.091 39.7219 296.989 39.7219 Q294.79 39.7219 292.336 40.4857 Q289.906 41.2496 287.128 42.8005 L287.128 38.0784 Q289.952 36.9441 292.406 36.3654 Q294.859 35.7867 296.896 35.7867 Q302.267 35.7867 305.461 38.4719 Q308.656 41.157 308.656 45.6478 Q308.656 47.7774 307.845 49.6987 Q307.058 51.5968 304.952 54.1894 Q304.373 54.8607 301.271 58.0782 Q298.17 61.2727 292.522 67.0365 Z" fill="#000000" fill-rule="evenodd" fill-opacity="1" /><path clip-path="url(#clip010)" d="M332.822 52.3375 Q336.179 53.0551 338.054 55.3236 Q339.952 57.5921 339.952 60.9255 Q339.952 66.0412 336.433 68.8421 Q332.915 71.643 326.433 71.643 Q324.257 71.643 321.943 71.2032 Q319.651 70.7865 317.197 69.93 L317.197 65.4162 Q319.142 66.5504 321.457 67.1291 Q323.771 67.7078 326.294 67.7078 Q330.693 67.7078 332.984 65.9717 Q335.299 64.2356 335.299 60.9255 Q335.299 57.8699 333.146 56.157 Q331.017 54.4209 327.197 54.4209 L323.169 54.4209 L323.169 50.5783 L327.382 50.5783 Q330.831 50.5783 332.66 49.2126 Q334.489 47.8237 334.489 45.2311 Q334.489 42.5691 332.591 41.157 Q330.716 39.7219 327.197 39.7219 Q325.276 39.7219 323.077 40.1385 Q320.878 40.5552 318.239 41.4348 L318.239 37.2682 Q320.901 36.5274 323.216 36.1571 Q325.554 35.7867 327.614 35.7867 Q332.938 35.7867 336.04 38.2172 Q339.142 40.6246 339.142 44.745 Q339.142 47.6153 337.498 49.6061 Q335.855 51.5737 332.822 52.3375 Z" fill="#000000" fill-rule="evenodd" fill-opacity="1" /><path clip-path="url(#clip010)" d="M349.628 67.0365 L357.267 67.0365 L357.267 40.6709 L348.956 42.3376 L348.956 38.0784 L357.22 36.4117 L361.896 36.4117 L361.896 67.0365 L369.535 67.0365 L369.535 70.9717 L349.628 70.9717 L349.628 67.0365 Z" fill="#000000" fill-rule="evenodd" fill-opacity="1" /><path clip-path="url(#clip010)" d="M407.151 45.5089 L396.572 56.1338 L407.151 66.7125 L404.396 69.5134 L393.771 58.8884 L383.146 69.5134 L380.415 66.7125 L390.97 56.1338 L380.415 45.5089 L383.146 42.708 L393.771 53.3329 L404.396 42.708 L407.151 45.5089 Z" fill="#000000" fill-rule="evenodd" fill-opacity="1" /><path clip-path="url(#clip010)" d="M419.512 67.0365 L427.15 67.0365 L427.15 40.6709 L418.84 42.3376 L418.84 38.0784 L427.104 36.4117 L431.78 36.4117 L431.78 67.0365 L439.419 67.0365 L439.419 70.9717 L419.512 70.9717 L419.512 67.0365 Z" fill="#000000" fill-rule="evenodd" fill-opacity="1" /><path clip-path="url(#clip010)" d="M458.863 39.4904 Q455.252 39.4904 453.423 43.0552 Q451.618 46.5968 451.618 53.7264 Q451.618 60.8329 453.423 64.3977 Q455.252 67.9393 458.863 67.9393 Q462.497 67.9393 464.303 64.3977 Q466.132 60.8329 466.132 53.7264 Q466.132 46.5968 464.303 43.0552 Q462.497 39.4904 458.863 39.4904 M458.863 35.7867 Q464.673 35.7867 467.729 40.3932 Q470.808 44.9765 470.808 53.7264 Q470.808 62.4532 467.729 67.0597 Q464.673 71.643 458.863 71.643 Q453.053 71.643 449.974 67.0597 Q446.919 62.4532 446.919 53.7264 Q446.919 44.9765 449.974 40.3932 Q453.053 35.7867 458.863 35.7867 Z" fill="#000000" fill-rule="evenodd" fill-opacity="1" /><path clip-path="url(#clip010)" d="M470.808 29.888 L494.919 29.888 L494.919 33.0854 L470.808 33.0854 L470.808 29.888 Z" fill="#000000" fill-rule="evenodd" fill-opacity="1" /><path clip-path="url(#clip010)" d="M506.392 40.364 L519.651 40.364 L519.651 43.5613 L501.822 43.5613 L501.822 40.364 Q503.984 38.1258 507.708 34.3643 Q511.451 30.5839 512.41 29.4931 Q514.235 27.443 514.949 26.0325 Q515.683 24.6031 515.683 23.2301 Q515.683 20.992 514.103 19.5814 Q512.542 18.1708 510.022 18.1708 Q508.235 18.1708 506.241 18.7915 Q504.267 19.4121 502.01 20.6722 L502.01 16.8355 Q504.304 15.9139 506.298 15.4437 Q508.291 14.9735 509.947 14.9735 Q514.31 14.9735 516.905 17.1552 Q519.501 19.3369 519.501 22.9856 Q519.501 24.7159 518.843 26.277 Q518.203 27.8192 516.492 29.9257 Q516.021 30.4711 513.501 33.0854 Q510.981 35.6808 506.392 40.364 Z" fill="#000000" fill-rule="evenodd" fill-opacity="1" /><path clip-path="url(#clip010)" d="M527.739 42.9783 L527.739 39.5176 Q529.168 40.1947 530.635 40.5521 Q532.102 40.9094 533.513 40.9094 Q537.274 40.9094 539.249 38.3892 Q541.243 35.8501 541.525 30.6968 Q540.434 32.3142 538.76 33.1794 Q537.086 34.0446 535.055 34.0446 Q530.842 34.0446 528.378 31.5055 Q525.933 28.9477 525.933 24.5278 Q525.933 20.202 528.491 17.5878 Q531.049 14.9735 535.299 14.9735 Q540.171 14.9735 542.728 18.7162 Q545.305 22.4402 545.305 29.5495 Q545.305 36.1886 542.145 40.1571 Q539.005 44.1067 533.682 44.1067 Q532.253 44.1067 530.786 43.8246 Q529.319 43.5425 527.739 42.9783 M535.299 31.0729 Q537.857 31.0729 539.343 29.3238 Q540.848 27.5747 540.848 24.5278 Q540.848 21.4998 539.343 19.7507 Q537.857 17.9827 535.299 17.9827 Q532.742 17.9827 531.237 19.7507 Q529.751 21.4998 529.751 24.5278 Q529.751 27.5747 531.237 29.3238 Q532.742 31.0729 535.299 31.0729 Z" fill="#000000" fill-rule="evenodd" fill-opacity="1" /><path clip-path="url(#clip010)" d="M555.405 40.364 L568.664 40.364 L568.664 43.5613 L550.835 43.5613 L550.835 40.364 Q552.998 38.1258 556.721 34.3643 Q560.464 30.5839 561.423 29.4931 Q563.248 27.443 563.962 26.0325 Q564.696 24.6031 564.696 23.2301 Q564.696 20.992 563.116 19.5814 Q561.555 18.1708 559.035 18.1708 Q557.248 18.1708 555.254 18.7915 Q553.28 19.4121 551.023 20.6722 L551.023 16.8355 Q553.317 15.9139 555.311 15.4437 Q557.305 14.9735 558.96 14.9735 Q563.323 14.9735 565.918 17.1552 Q568.514 19.3369 568.514 22.9856 Q568.514 24.7159 567.856 26.277 Q567.216 27.8192 565.505 29.9257 Q565.035 30.4711 562.514 33.0854 Q559.994 35.6808 555.405 40.364 Z" fill="#000000" fill-rule="evenodd" fill-opacity="1" /><polyline clip-path="url(#clip012)" style="stroke:#009af9; stroke-linecap:round; stroke-linejoin:round; stroke-width:4; stroke-opacity:1; fill:none" points="
  654.139,1445.72 658.262,1445.72 662.384,1445.72 666.507,1445.72 670.63,1445.72 674.753,1445.72 678.876,1445.72 682.999,1445.72 687.122,1445.72 691.244,1445.72 
  695.367,1445.72 699.49,1445.72 703.613,1445.72 707.736,1445.72 711.859,1445.72 715.982,1445.72 720.104,1445.72 724.227,1445.72 728.35,1445.72 732.473,1445.72 
  736.596,1445.72 740.719,1445.72 744.842,1445.72 748.964,1445.72 753.087,1445.72 757.21,1445.72 761.333,1445.72 765.456,1445.72 769.579,1445.72 773.702,1445.72 
  777.824,1445.72 781.947,1445.72 786.07,1445.72 790.193,1445.72 794.316,1445.72 798.439,1445.72 802.562,1445.72 806.684,1445.72 810.807,1445.72 814.93,1445.72 
  819.053,1445.72 823.176,1445.72 827.299,1445.72 831.422,1445.72 835.544,1445.72 839.667,1445.72 843.79,1445.72 847.913,1445.72 852.036,1445.72 856.159,1445.72 
  860.282,1445.72 864.404,1445.72 868.527,1445.72 872.65,1445.72 876.773,1445.72 880.896,1445.72 885.019,1445.72 889.142,1445.72 893.264,1445.72 897.387,1445.72 
  901.51,1445.72 905.633,1445.72 909.756,1445.72 913.879,1445.72 918.002,1445.72 922.124,1445.72 926.247,1445.72 930.37,1445.72 934.493,1445.72 938.616,1445.72 
  942.739,1445.72 946.862,1445.72 950.984,1445.72 955.107,1445.72 959.23,1445.72 963.353,1445.72 967.476,1445.72 971.599,1445.72 975.722,1445.72 979.844,1445.72 
  983.967,1445.72 988.09,1445.72 992.213,1445.72 996.336,1445.72 1000.46,1445.72 1004.58,1445.72 1008.7,1445.72 1012.83,1445.72 1016.95,1445.72 1021.07,1445.72 
  1025.2,1445.72 1029.32,1445.72 1033.44,1445.72 1037.56,1445.72 1041.69,1445.72 1045.81,1445.72 1049.93,1445.72 1054.06,1445.72 1058.18,1445.72 1062.3,1445.72 
  1066.42,1445.72 1070.55,1445.72 1074.67,1445.72 1078.79,1445.72 1082.92,1445.72 1087.04,1445.72 1091.16,1445.72 1095.28,1445.72 1099.41,1445.72 1103.53,1445.72 
  1107.65,1445.72 1111.78,1445.72 1115.9,1445.72 1120.02,1445.72 1124.14,1445.72 1128.27,1445.72 1132.39,1445.72 1136.51,1445.72 1140.64,1445.72 1144.76,1445.72 
  1148.88,1445.72 1153,1445.72 1157.13,1445.72 1161.25,1445.72 1165.37,1445.72 1169.5,1445.72 1173.62,1445.72 1177.74,1445.72 1181.86,1445.72 1185.99,1445.72 
  1190.11,1445.72 1194.23,1445.72 1198.36,1445.72 1202.48,1445.72 1206.6,1445.72 1210.72,1445.72 1214.85,1445.72 1218.97,1445.72 1223.09,1445.72 1227.22,1445.72 
  1231.34,1445.72 1235.46,1445.72 1239.58,1445.72 1243.71,1445.72 1247.83,1445.72 1251.95,1445.72 1256.08,1445.72 1260.2,1445.72 1264.32,1445.72 1268.44,1445.72 
  1272.57,1445.72 1276.69,1445.72 1280.81,1445.72 1284.94,1445.72 1289.06,1445.72 1293.18,1445.72 1297.3,1445.71 1301.43,1445.71 1305.55,1445.71 1309.67,1445.71 
  1313.8,1445.71 1317.92,1445.7 1322.04,1445.69 1326.16,1445.67 1330.29,1445.64 1334.41,1445.59 1338.53,1445.5 1342.66,1445.37 1346.78,1445.17 1350.9,1444.86 
  1355.02,1444.39 1359.15,1443.68 1363.27,1442.64 1367.39,1441.13 1371.52,1438.97 1375.64,1435.92 1379.76,1431.7 1383.88,1425.92 1388.01,1418.14 1392.13,1407.82 
  1396.25,1394.33 1400.38,1376.98 1404.5,1355 1408.62,1327.61 1412.74,1294.01 1416.87,1253.48 1420.99,1205.39 1425.11,1149.31 1429.24,1085.06 1433.36,1012.79 
  1437.48,933.011 1441.6,846.696 1445.73,755.259 1449.85,660.563 1453.97,564.881 1458.1,470.823 1462.22,381.226 1466.34,299.02 1470.46,227.07 1474.59,168.016 
  1478.71,124.109 1482.83,97.0687 1486.96,87.9763 1491.08,97.1974 1495.2,124.361 1499.32,168.382 1503.45,227.535 1507.57,299.567 1511.69,381.835 1515.82,471.474 
  1519.94,565.553 1524.06,661.237 1528.18,755.917 1532.31,847.325 1536.43,933.597 1540.55,1013.32 1544.68,1085.55 1548.8,1149.74 1552.92,1205.76 1557.04,1253.79 
  1561.17,1294.27 1565.29,1327.82 1569.41,1355.17 1573.54,1377.11 1577.66,1394.44 1581.78,1407.9 1585.9,1418.2 1590.03,1425.97 1594.15,1431.73 1598.27,1435.95 
  1602.4,1438.98 1606.52,1441.14 1610.64,1442.65 1614.76,1443.68 1618.89,1444.39 1623.01,1444.86 1627.13,1445.17 1631.26,1445.38 1635.38,1445.51 1639.5,1445.59 
  1643.62,1445.64 1647.75,1445.67 1651.87,1445.69 1655.99,1445.7 1660.12,1445.71 1664.24,1445.71 1668.36,1445.71 1672.48,1445.71 1676.61,1445.71 1680.73,1445.72 
  1684.85,1445.72 1688.98,1445.72 1693.1,1445.72 1697.22,1445.72 1701.34,1445.72 1705.47,1445.72 1709.59,1445.72 1713.71,1445.72 1717.84,1445.72 1721.96,1445.72 
  1726.08,1445.72 1730.2,1445.72 1734.33,1445.72 1738.45,1445.72 1742.57,1445.72 1746.7,1445.72 1750.82,1445.72 1754.94,1445.72 1759.06,1445.72 1763.19,1445.72 
  1767.31,1445.72 1771.43,1445.72 1775.56,1445.72 1779.68,1445.72 1783.8,1445.72 1787.92,1445.72 1792.05,1445.72 1796.17,1445.72 1800.29,1445.72 1804.42,1445.72 
  1808.54,1445.72 1812.66,1445.72 1816.78,1445.72 1820.91,1445.72 1825.03,1445.72 1829.15,1445.72 1833.28,1445.72 1837.4,1445.72 1841.52,1445.72 1845.64,1445.72 
  1849.77,1445.72 1853.89,1445.72 1858.01,1445.72 1862.14,1445.72 1866.26,1445.72 1870.38,1445.72 1874.5,1445.72 1878.63,1445.72 1882.75,1445.72 1886.87,1445.72 
  1891,1445.72 1895.12,1445.72 1899.24,1445.72 1903.36,1445.72 1907.49,1445.72 1911.61,1445.72 1915.73,1445.72 1919.86,1445.72 1923.98,1445.72 1928.1,1445.72 
  1932.22,1445.72 1936.35,1445.72 1940.47,1445.72 1944.59,1445.72 1948.72,1445.72 1952.84,1445.72 1956.96,1445.72 1961.08,1445.72 1965.21,1445.72 1969.33,1445.72 
  1973.45,1445.72 1977.58,1445.72 1981.7,1445.72 1985.82,1445.72 1989.94,1445.72 1994.07,1445.72 1998.19,1445.72 2002.31,1445.72 2006.44,1445.72 2010.56,1445.72 
  2014.68,1445.72 2018.8,1445.72 2022.93,1445.72 2027.05,1445.72 2031.17,1445.72 2035.3,1445.72 2039.42,1445.72 2043.54,1445.72 2047.66,1445.72 2051.79,1445.72 
  2055.91,1445.72 2060.03,1445.72 2064.16,1445.72 2068.28,1445.72 2072.4,1445.72 2076.52,1445.72 2080.65,1445.72 2084.77,1445.72 2088.89,1445.72 2093.02,1445.72 
  2097.14,1445.72 2101.26,1445.72 2105.38,1445.72 2109.51,1445.72 2113.63,1445.72 2117.75,1445.72 2121.88,1445.72 2126,1445.72 2130.12,1445.72 2134.24,1445.72 
  2138.37,1445.72 2142.49,1445.72 2146.61,1445.72 2150.74,1445.72 2154.86,1445.72 2158.98,1445.72 2163.1,1445.72 2167.23,1445.72 2171.35,1445.72 2175.47,1445.72 
  2179.6,1445.72 2183.72,1445.72 2187.84,1445.72 2191.96,1445.72 2196.09,1445.72 2200.21,1445.72 2204.33,1445.72 2208.46,1445.72 2212.58,1445.72 2216.7,1445.72 
  2220.82,1445.72 2224.95,1445.72 2229.07,1445.72 2233.19,1445.72 2237.32,1445.72 2241.44,1445.72 2245.56,1445.72 2249.68,1445.72 2253.81,1445.72 2257.93,1445.72 
  2262.05,1445.72 2266.18,1445.72 2270.3,1445.72 2274.42,1445.72 2278.54,1445.72 2282.67,1445.72 2286.79,1445.72 2290.91,1445.72 2295.04,1445.72 2299.16,1445.72 
  2303.28,1445.72 
  "/>
<path clip-path="url(#clip010)" d="
M2067.25 198.898 L2294.49 198.898 L2294.49 95.2176 L2067.25 95.2176  Z
  " fill="#ffffff" fill-rule="evenodd" fill-opacity="1"/>
<polyline clip-path="url(#clip010)" style="stroke:#000000; stroke-linecap:round; stroke-linejoin:round; stroke-width:4; stroke-opacity:1; fill:none" points="
  2067.25,198.898 2294.49,198.898 2294.49,95.2176 2067.25,95.2176 2067.25,198.898 
  "/>
<polyline clip-path="url(#clip010)" style="stroke:#009af9; stroke-linecap:round; stroke-linejoin:round; stroke-width:4; stroke-opacity:1; fill:none" points="
  2086.67,147.058 2203.21,147.058 
  "/>
<path clip-path="url(#clip010)" d="M2236.48 166.745 Q2234.67 171.375 2232.96 172.787 Q2231.24 174.199 2228.37 174.199 L2224.97 174.199 L2224.97 170.634 L2227.47 170.634 Q2229.23 170.634 2230.2 169.8 Q2231.17 168.967 2232.35 165.865 L2233.12 163.921 L2222.63 138.412 L2227.15 138.412 L2235.25 158.689 L2243.35 138.412 L2247.86 138.412 L2236.48 166.745 Z" fill="#000000" fill-rule="evenodd" fill-opacity="1" /><path clip-path="url(#clip010)" d="M2255.16 160.402 L2262.79 160.402 L2262.79 134.037 L2254.48 135.703 L2254.48 131.444 L2262.75 129.778 L2267.42 129.778 L2267.42 160.402 L2275.06 160.402 L2275.06 164.338 L2255.16 164.338 L2255.16 160.402 Z" fill="#000000" fill-rule="evenodd" fill-opacity="1" /></svg>
