<?xml version="1.0" encoding="utf-8"?>
<svg xmlns="http://www.w3.org/2000/svg" xmlns:xlink="http://www.w3.org/1999/xlink" width="600" height="400" viewBox="0 0 2400 1600">
<defs>
  <clipPath id="clip810">
    <rect x="0" y="0" width="2400" height="1600"/>
  </clipPath>
</defs>
<path clip-path="url(#clip810)" d="
M0 1600 L2400 1600 L2400 0 L0 0  Z
  " fill="#ffffff" fill-rule="evenodd" fill-opacity="1"/>
<defs>
  <clipPath id="clip811">
    <rect x="480" y="0" width="1681" height="1600"/>
  </clipPath>
</defs>
<path clip-path="url(#clip810)" d="
M264.287 1423.18 L2352.76 1423.18 L2352.76 47.2441 L264.287 47.2441  Z
  " fill="#ffffff" fill-rule="evenodd" fill-opacity="1"/>
<defs>
  <clipPath id="clip812">
    <rect x="264" y="47" width="2089" height="1377"/>
  </clipPath>
</defs>
<polyline clip-path="url(#clip812)" style="stroke:#000000; stroke-linecap:round; stroke-linejoin:round; stroke-width:2; stroke-opacity:0.1; fill:none" points="
  323.395,1423.18 323.395,47.2441 
  "/>
<polyline clip-path="url(#clip812)" style="stroke:#000000; stroke-linecap:round; stroke-linejoin:round; stroke-width:2; stroke-opacity:0.1; fill:none" points="
  815.958,1423.18 815.958,47.2441 
  "/>
<polyline clip-path="url(#clip812)" style="stroke:#000000; stroke-linecap:round; stroke-linejoin:round; stroke-width:2; stroke-opacity:0.1; fill:none" points="
  1308.52,1423.18 1308.52,47.2441 
  "/>
<polyline clip-path="url(#clip812)" style="stroke:#000000; stroke-linecap:round; stroke-linejoin:round; stroke-width:2; stroke-opacity:0.1; fill:none" points="
  1801.08,1423.18 1801.08,47.2441 
  "/>
<polyline clip-path="url(#clip812)" style="stroke:#000000; stroke-linecap:round; stroke-linejoin:round; stroke-width:2; stroke-opacity:0.1; fill:none" points="
  2293.65,1423.18 2293.65,47.2441 
  "/>
<polyline clip-path="url(#clip810)" style="stroke:#000000; stroke-linecap:round; stroke-linejoin:round; stroke-width:4; stroke-opacity:1; fill:none" points="
  264.287,1423.18 2352.76,1423.18 
  "/>
<polyline clip-path="url(#clip810)" style="stroke:#000000; stroke-linecap:round; stroke-linejoin:round; stroke-width:4; stroke-opacity:1; fill:none" points="
  323.395,1423.18 323.395,1404.28 
  "/>
<polyline clip-path="url(#clip810)" style="stroke:#000000; stroke-linecap:round; stroke-linejoin:round; stroke-width:4; stroke-opacity:1; fill:none" points="
  815.958,1423.18 815.958,1404.28 
  "/>
<polyline clip-path="url(#clip810)" style="stroke:#000000; stroke-linecap:round; stroke-linejoin:round; stroke-width:4; stroke-opacity:1; fill:none" points="
  1308.52,1423.18 1308.52,1404.28 
  "/>
<polyline clip-path="url(#clip810)" style="stroke:#000000; stroke-linecap:round; stroke-linejoin:round; stroke-width:4; stroke-opacity:1; fill:none" points="
  1801.08,1423.18 1801.08,1404.28 
  "/>
<polyline clip-path="url(#clip810)" style="stroke:#000000; stroke-linecap:round; stroke-linejoin:round; stroke-width:4; stroke-opacity:1; fill:none" points="
  2293.65,1423.18 2293.65,1404.28 
  "/>
<path clip-path="url(#clip810)" d="M323.395 1454.1 Q319.784 1454.1 317.955 1457.66 Q316.15 1461.2 316.15 1468.33 Q316.15 1475.44 317.955 1479.01 Q319.784 1482.55 323.395 1482.55 Q327.029 1482.55 328.835 1479.01 Q330.663 1475.44 330.663 1468.33 Q330.663 1461.2 328.835 1457.66 Q327.029 1454.1 323.395 1454.1 M323.395 1450.39 Q329.205 1450.39 332.261 1455 Q335.339 1459.58 335.339 1468.33 Q335.339 1477.06 332.261 1481.67 Q329.205 1486.25 323.395 1486.25 Q317.585 1486.25 314.506 1481.67 Q311.451 1477.06 311.451 1468.33 Q311.451 1459.58 314.506 1455 Q317.585 1450.39 323.395 1450.39 Z" fill="#000000" fill-rule="evenodd" fill-opacity="1" /><path clip-path="url(#clip810)" d="M806.34 1481.64 L813.979 1481.64 L813.979 1455.28 L805.669 1456.95 L805.669 1452.69 L813.933 1451.02 L818.609 1451.02 L818.609 1481.64 L826.248 1481.64 L826.248 1485.58 L806.34 1485.58 L806.34 1481.64 Z" fill="#000000" fill-rule="evenodd" fill-opacity="1" /><path clip-path="url(#clip810)" d="M1303.17 1481.64 L1319.49 1481.64 L1319.49 1485.58 L1297.55 1485.58 L1297.55 1481.64 Q1300.21 1478.89 1304.79 1474.26 Q1309.4 1469.61 1310.58 1468.27 Q1312.83 1465.74 1313.71 1464.01 Q1314.61 1462.25 1314.61 1460.56 Q1314.61 1457.8 1312.67 1456.07 Q1310.74 1454.33 1307.64 1454.33 Q1305.44 1454.33 1302.99 1455.09 Q1300.56 1455.86 1297.78 1457.41 L1297.78 1452.69 Q1300.6 1451.55 1303.06 1450.97 Q1305.51 1450.39 1307.55 1450.39 Q1312.92 1450.39 1316.11 1453.08 Q1319.31 1455.77 1319.31 1460.26 Q1319.31 1462.39 1318.5 1464.31 Q1317.71 1466.2 1315.6 1468.8 Q1315.03 1469.47 1311.92 1472.69 Q1308.82 1475.88 1303.17 1481.64 Z" fill="#000000" fill-rule="evenodd" fill-opacity="1" /><path clip-path="url(#clip810)" d="M1805.33 1466.95 Q1808.69 1467.66 1810.56 1469.93 Q1812.46 1472.2 1812.46 1475.53 Q1812.46 1480.65 1808.94 1483.45 Q1805.43 1486.25 1798.94 1486.25 Q1796.77 1486.25 1794.45 1485.81 Q1792.16 1485.39 1789.71 1484.54 L1789.71 1480.02 Q1791.65 1481.16 1793.97 1481.74 Q1796.28 1482.32 1798.8 1482.32 Q1803.2 1482.32 1805.49 1480.58 Q1807.81 1478.84 1807.81 1475.53 Q1807.81 1472.48 1805.66 1470.77 Q1803.53 1469.03 1799.71 1469.03 L1795.68 1469.03 L1795.68 1465.19 L1799.89 1465.19 Q1803.34 1465.19 1805.17 1463.82 Q1807 1462.43 1807 1459.84 Q1807 1457.18 1805.1 1455.77 Q1803.23 1454.33 1799.71 1454.33 Q1797.79 1454.33 1795.59 1454.75 Q1793.39 1455.16 1790.75 1456.04 L1790.75 1451.88 Q1793.41 1451.14 1795.73 1450.77 Q1798.06 1450.39 1800.12 1450.39 Q1805.45 1450.39 1808.55 1452.83 Q1811.65 1455.23 1811.65 1459.35 Q1811.65 1462.22 1810.01 1464.21 Q1808.37 1466.18 1805.33 1466.95 Z" fill="#000000" fill-rule="evenodd" fill-opacity="1" /><path clip-path="url(#clip810)" d="M2296.66 1455.09 L2284.85 1473.54 L2296.66 1473.54 L2296.66 1455.09 M2295.43 1451.02 L2301.31 1451.02 L2301.31 1473.54 L2306.24 1473.54 L2306.24 1477.43 L2301.31 1477.43 L2301.31 1485.58 L2296.66 1485.58 L2296.66 1477.43 L2281.06 1477.43 L2281.06 1472.92 L2295.43 1451.02 Z" fill="#000000" fill-rule="evenodd" fill-opacity="1" /><path clip-path="url(#clip810)" d="M1284.6 1532.4 L1290.46 1532.4 L1297.78 1560.21 L1305.07 1532.4 L1311.98 1532.4 L1319.3 1560.21 L1326.58 1532.4 L1332.44 1532.4 L1323.11 1568.04 L1316.21 1568.04 L1308.54 1538.83 L1300.84 1568.04 L1293.93 1568.04 L1284.6 1532.4 Z" fill="#000000" fill-rule="evenodd" fill-opacity="1" /><polyline clip-path="url(#clip812)" style="stroke:#000000; stroke-linecap:round; stroke-linejoin:round; stroke-width:2; stroke-opacity:0.1; fill:none" points="
  264.287,1274.6 2352.76,1274.6 
  "/>
<polyline clip-path="url(#clip812)" style="stroke:#000000; stroke-linecap:round; stroke-linejoin:round; stroke-width:2; stroke-opacity:0.1; fill:none" points="
  264.287,1039.54 2352.76,1039.54 
  "/>
<polyline clip-path="url(#clip812)" style="stroke:#000000; stroke-linecap:round; stroke-linejoin:round; stroke-width:2; stroke-opacity:0.1; fill:none" points="
  264.287,804.479 2352.76,804.479 
  "/>
<polyline clip-path="url(#clip812)" style="stroke:#000000; stroke-linecap:round; stroke-linejoin:round; stroke-width:2; stroke-opacity:0.1; fill:none" points="
  264.287,569.419 2352.76,569.419 
  "/>
<polyline clip-path="url(#clip812)" style="stroke:#000000; stroke-linecap:round; stroke-linejoin:round; stroke-width:2; stroke-opacity:0.1; fill:none" points="
  264.287,334.359 2352.76,334.359 
  "/>
<polyline clip-path="url(#clip812)" style="stroke:#000000; stroke-linecap:round; stroke-linejoin:round; stroke-width:2; stroke-opacity:0.1; fill:none" points="
  264.287,99.2995 2352.76,99.2995 
  "/>
<polyline clip-path="url(#clip810)" style="stroke:#000000; stroke-linecap:round; stroke-linejoin:round; stroke-width:4; stroke-opacity:1; fill:none" points="
  264.287,1423.18 264.287,47.2441 
  "/>
<polyline clip-path="url(#clip810)" style="stroke:#000000; stroke-linecap:round; stroke-linejoin:round; stroke-width:4; stroke-opacity:1; fill:none" points="
  264.287,1274.6 283.185,1274.6 
  "/>
<polyline clip-path="url(#clip810)" style="stroke:#000000; stroke-linecap:round; stroke-linejoin:round; stroke-width:4; stroke-opacity:1; fill:none" points="
  264.287,1039.54 283.185,1039.54 
  "/>
<polyline clip-path="url(#clip810)" style="stroke:#000000; stroke-linecap:round; stroke-linejoin:round; stroke-width:4; stroke-opacity:1; fill:none" points="
  264.287,804.479 283.185,804.479 
  "/>
<polyline clip-path="url(#clip810)" style="stroke:#000000; stroke-linecap:round; stroke-linejoin:round; stroke-width:4; stroke-opacity:1; fill:none" points="
  264.287,569.419 283.185,569.419 
  "/>
<polyline clip-path="url(#clip810)" style="stroke:#000000; stroke-linecap:round; stroke-linejoin:round; stroke-width:4; stroke-opacity:1; fill:none" points="
  264.287,334.359 283.185,334.359 
  "/>
<polyline clip-path="url(#clip810)" style="stroke:#000000; stroke-linecap:round; stroke-linejoin:round; stroke-width:4; stroke-opacity:1; fill:none" points="
  264.287,99.2995 283.185,99.2995 
  "/>
<path clip-path="url(#clip810)" d="M116.668 1287.94 L124.306 1287.94 L124.306 1261.58 L115.996 1263.24 L115.996 1258.99 L124.26 1257.32 L128.936 1257.32 L128.936 1287.94 L136.575 1287.94 L136.575 1291.88 L116.668 1291.88 L116.668 1287.94 Z" fill="#000000" fill-rule="evenodd" fill-opacity="1" /><path clip-path="url(#clip810)" d="M156.019 1275.47 Q152.686 1275.47 150.765 1277.25 Q148.866 1279.03 148.866 1282.16 Q148.866 1285.28 150.765 1287.06 Q152.686 1288.85 156.019 1288.85 Q159.353 1288.85 161.274 1287.06 Q163.195 1285.26 163.195 1282.16 Q163.195 1279.03 161.274 1277.25 Q159.376 1275.47 156.019 1275.47 M151.343 1273.48 Q148.334 1272.74 146.644 1270.68 Q144.978 1268.62 144.978 1265.65 Q144.978 1261.51 147.917 1259.1 Q150.88 1256.69 156.019 1256.69 Q161.181 1256.69 164.121 1259.1 Q167.061 1261.51 167.061 1265.65 Q167.061 1268.62 165.371 1270.68 Q163.704 1272.74 160.718 1273.48 Q164.098 1274.26 165.973 1276.55 Q167.871 1278.85 167.871 1282.16 Q167.871 1287.18 164.792 1289.87 Q161.737 1292.55 156.019 1292.55 Q150.302 1292.55 147.223 1289.87 Q144.167 1287.18 144.167 1282.16 Q144.167 1278.85 146.066 1276.55 Q147.964 1274.26 151.343 1273.48 M149.63 1266.09 Q149.63 1268.78 151.297 1270.28 Q152.987 1271.79 156.019 1271.79 Q159.028 1271.79 160.718 1270.28 Q162.431 1268.78 162.431 1266.09 Q162.431 1263.41 160.718 1261.9 Q159.028 1260.4 156.019 1260.4 Q152.987 1260.4 151.297 1261.9 Q149.63 1263.41 149.63 1266.09 Z" fill="#000000" fill-rule="evenodd" fill-opacity="1" /><path clip-path="url(#clip810)" d="M176.227 1257.32 L194.584 1257.32 L194.584 1261.25 L180.51 1261.25 L180.51 1269.73 Q181.528 1269.38 182.547 1269.22 Q183.565 1269.03 184.584 1269.03 Q190.371 1269.03 193.75 1272.2 Q197.13 1275.37 197.13 1280.79 Q197.13 1286.37 193.658 1289.47 Q190.186 1292.55 183.866 1292.55 Q181.69 1292.55 179.422 1292.18 Q177.176 1291.81 174.769 1291.07 L174.769 1286.37 Q176.852 1287.5 179.075 1288.06 Q181.297 1288.62 183.774 1288.62 Q187.778 1288.62 190.116 1286.51 Q192.454 1284.4 192.454 1280.79 Q192.454 1277.18 190.116 1275.07 Q187.778 1272.97 183.774 1272.97 Q181.899 1272.97 180.024 1273.38 Q178.172 1273.8 176.227 1274.68 L176.227 1257.32 Z" fill="#000000" fill-rule="evenodd" fill-opacity="1" /><path clip-path="url(#clip810)" d="M216.343 1260.4 Q212.732 1260.4 210.903 1263.96 Q209.098 1267.5 209.098 1274.63 Q209.098 1281.74 210.903 1285.3 Q212.732 1288.85 216.343 1288.85 Q219.977 1288.85 221.783 1285.3 Q223.611 1281.74 223.611 1274.63 Q223.611 1267.5 221.783 1263.96 Q219.977 1260.4 216.343 1260.4 M216.343 1256.69 Q222.153 1256.69 225.209 1261.3 Q228.287 1265.88 228.287 1274.63 Q228.287 1283.36 225.209 1287.97 Q222.153 1292.55 216.343 1292.55 Q210.533 1292.55 207.454 1287.97 Q204.399 1283.36 204.399 1274.63 Q204.399 1265.88 207.454 1261.3 Q210.533 1256.69 216.343 1256.69 Z" fill="#000000" fill-rule="evenodd" fill-opacity="1" /><path clip-path="url(#clip810)" d="M116.668 1052.88 L124.306 1052.88 L124.306 1026.52 L115.996 1028.18 L115.996 1023.93 L124.26 1022.26 L128.936 1022.26 L128.936 1052.88 L136.575 1052.88 L136.575 1056.82 L116.668 1056.82 L116.668 1052.88 Z" fill="#000000" fill-rule="evenodd" fill-opacity="1" /><path clip-path="url(#clip810)" d="M146.158 1056.1 L146.158 1051.84 Q147.917 1052.68 149.723 1053.12 Q151.528 1053.56 153.265 1053.56 Q157.894 1053.56 160.325 1050.45 Q162.778 1047.33 163.126 1040.99 Q161.783 1042.98 159.723 1044.04 Q157.663 1045.11 155.163 1045.11 Q149.978 1045.11 146.945 1041.98 Q143.936 1038.83 143.936 1033.39 Q143.936 1028.07 147.084 1024.85 Q150.232 1021.63 155.464 1021.63 Q161.459 1021.63 164.607 1026.24 Q167.778 1030.82 167.778 1039.57 Q167.778 1047.75 163.89 1052.63 Q160.024 1057.49 153.473 1057.49 Q151.714 1057.49 149.908 1057.14 Q148.103 1056.8 146.158 1056.1 M155.464 1041.45 Q158.612 1041.45 160.44 1039.3 Q162.292 1037.14 162.292 1033.39 Q162.292 1029.67 160.44 1027.51 Q158.612 1025.34 155.464 1025.34 Q152.316 1025.34 150.464 1027.51 Q148.635 1029.67 148.635 1033.39 Q148.635 1037.14 150.464 1039.3 Q152.316 1041.45 155.464 1041.45 Z" fill="#000000" fill-rule="evenodd" fill-opacity="1" /><path clip-path="url(#clip810)" d="M186.181 1025.34 Q182.57 1025.34 180.741 1028.9 Q178.936 1032.44 178.936 1039.57 Q178.936 1046.68 180.741 1050.25 Q182.57 1053.79 186.181 1053.79 Q189.815 1053.79 191.621 1050.25 Q193.45 1046.68 193.45 1039.57 Q193.45 1032.44 191.621 1028.9 Q189.815 1025.34 186.181 1025.34 M186.181 1021.63 Q191.991 1021.63 195.047 1026.24 Q198.125 1030.82 198.125 1039.57 Q198.125 1048.3 195.047 1052.91 Q191.991 1057.49 186.181 1057.49 Q180.371 1057.49 177.292 1052.91 Q174.237 1048.3 174.237 1039.57 Q174.237 1030.82 177.292 1026.24 Q180.371 1021.63 186.181 1021.63 Z" fill="#000000" fill-rule="evenodd" fill-opacity="1" /><path clip-path="url(#clip810)" d="M216.343 1025.34 Q212.732 1025.34 210.903 1028.9 Q209.098 1032.44 209.098 1039.57 Q209.098 1046.68 210.903 1050.25 Q212.732 1053.79 216.343 1053.79 Q219.977 1053.79 221.783 1050.25 Q223.611 1046.68 223.611 1039.57 Q223.611 1032.44 221.783 1028.9 Q219.977 1025.34 216.343 1025.34 M216.343 1021.63 Q222.153 1021.63 225.209 1026.24 Q228.287 1030.82 228.287 1039.57 Q228.287 1048.3 225.209 1052.91 Q222.153 1057.49 216.343 1057.49 Q210.533 1057.49 207.454 1052.91 Q204.399 1048.3 204.399 1039.57 Q204.399 1030.82 207.454 1026.24 Q210.533 1021.63 216.343 1021.63 Z" fill="#000000" fill-rule="evenodd" fill-opacity="1" /><path clip-path="url(#clip810)" d="M116.668 817.824 L124.306 817.824 L124.306 791.458 L115.996 793.125 L115.996 788.866 L124.26 787.199 L128.936 787.199 L128.936 817.824 L136.575 817.824 L136.575 821.759 L116.668 821.759 L116.668 817.824 Z" fill="#000000" fill-rule="evenodd" fill-opacity="1" /><path clip-path="url(#clip810)" d="M146.158 821.042 L146.158 816.782 Q147.917 817.616 149.723 818.055 Q151.528 818.495 153.265 818.495 Q157.894 818.495 160.325 815.393 Q162.778 812.268 163.126 805.926 Q161.783 807.917 159.723 808.981 Q157.663 810.046 155.163 810.046 Q149.978 810.046 146.945 806.921 Q143.936 803.773 143.936 798.333 Q143.936 793.009 147.084 789.792 Q150.232 786.574 155.464 786.574 Q161.459 786.574 164.607 791.181 Q167.778 795.764 167.778 804.514 Q167.778 812.685 163.89 817.569 Q160.024 822.43 153.473 822.43 Q151.714 822.43 149.908 822.083 Q148.103 821.736 146.158 821.042 M155.464 806.389 Q158.612 806.389 160.44 804.236 Q162.292 802.083 162.292 798.333 Q162.292 794.607 160.44 792.454 Q158.612 790.278 155.464 790.278 Q152.316 790.278 150.464 792.454 Q148.635 794.607 148.635 798.333 Q148.635 802.083 150.464 804.236 Q152.316 806.389 155.464 806.389 Z" fill="#000000" fill-rule="evenodd" fill-opacity="1" /><path clip-path="url(#clip810)" d="M176.227 787.199 L194.584 787.199 L194.584 791.134 L180.51 791.134 L180.51 799.607 Q181.528 799.259 182.547 799.097 Q183.565 798.912 184.584 798.912 Q190.371 798.912 193.75 802.083 Q197.13 805.255 197.13 810.671 Q197.13 816.25 193.658 819.352 Q190.186 822.43 183.866 822.43 Q181.69 822.43 179.422 822.06 Q177.176 821.69 174.769 820.949 L174.769 816.25 Q176.852 817.384 179.075 817.94 Q181.297 818.495 183.774 818.495 Q187.778 818.495 190.116 816.389 Q192.454 814.282 192.454 810.671 Q192.454 807.06 190.116 804.954 Q187.778 802.847 183.774 802.847 Q181.899 802.847 180.024 803.264 Q178.172 803.681 176.227 804.56 L176.227 787.199 Z" fill="#000000" fill-rule="evenodd" fill-opacity="1" /><path clip-path="url(#clip810)" d="M216.343 790.278 Q212.732 790.278 210.903 793.843 Q209.098 797.384 209.098 804.514 Q209.098 811.62 210.903 815.185 Q212.732 818.727 216.343 818.727 Q219.977 818.727 221.783 815.185 Q223.611 811.62 223.611 804.514 Q223.611 797.384 221.783 793.843 Q219.977 790.278 216.343 790.278 M216.343 786.574 Q222.153 786.574 225.209 791.181 Q228.287 795.764 228.287 804.514 Q228.287 813.241 225.209 817.847 Q222.153 822.43 216.343 822.43 Q210.533 822.43 207.454 817.847 Q204.399 813.241 204.399 804.514 Q204.399 795.764 207.454 791.181 Q210.533 786.574 216.343 786.574 Z" fill="#000000" fill-rule="evenodd" fill-opacity="1" /><path clip-path="url(#clip810)" d="M119.885 582.764 L136.204 582.764 L136.204 586.699 L114.26 586.699 L114.26 582.764 Q116.922 580.01 121.505 575.38 Q126.112 570.727 127.292 569.385 Q129.538 566.861 130.417 565.125 Q131.32 563.366 131.32 561.676 Q131.32 558.922 129.376 557.186 Q127.455 555.449 124.353 555.449 Q122.154 555.449 119.7 556.213 Q117.269 556.977 114.492 558.528 L114.492 553.806 Q117.316 552.672 119.769 552.093 Q122.223 551.514 124.26 551.514 Q129.63 551.514 132.825 554.199 Q136.019 556.885 136.019 561.375 Q136.019 563.505 135.209 565.426 Q134.422 567.324 132.316 569.917 Q131.737 570.588 128.635 573.806 Q125.533 577 119.885 582.764 Z" fill="#000000" fill-rule="evenodd" fill-opacity="1" /><path clip-path="url(#clip810)" d="M156.019 555.218 Q152.408 555.218 150.579 558.783 Q148.774 562.324 148.774 569.454 Q148.774 576.56 150.579 580.125 Q152.408 583.667 156.019 583.667 Q159.653 583.667 161.459 580.125 Q163.288 576.56 163.288 569.454 Q163.288 562.324 161.459 558.783 Q159.653 555.218 156.019 555.218 M156.019 551.514 Q161.829 551.514 164.885 556.121 Q167.964 560.704 167.964 569.454 Q167.964 578.181 164.885 582.787 Q161.829 587.371 156.019 587.371 Q150.209 587.371 147.13 582.787 Q144.075 578.181 144.075 569.454 Q144.075 560.704 147.13 556.121 Q150.209 551.514 156.019 551.514 Z" fill="#000000" fill-rule="evenodd" fill-opacity="1" /><path clip-path="url(#clip810)" d="M186.181 555.218 Q182.57 555.218 180.741 558.783 Q178.936 562.324 178.936 569.454 Q178.936 576.56 180.741 580.125 Q182.57 583.667 186.181 583.667 Q189.815 583.667 191.621 580.125 Q193.45 576.56 193.45 569.454 Q193.45 562.324 191.621 558.783 Q189.815 555.218 186.181 555.218 M186.181 551.514 Q191.991 551.514 195.047 556.121 Q198.125 560.704 198.125 569.454 Q198.125 578.181 195.047 582.787 Q191.991 587.371 186.181 587.371 Q180.371 587.371 177.292 582.787 Q174.237 578.181 174.237 569.454 Q174.237 560.704 177.292 556.121 Q180.371 551.514 186.181 551.514 Z" fill="#000000" fill-rule="evenodd" fill-opacity="1" /><path clip-path="url(#clip810)" d="M216.343 555.218 Q212.732 555.218 210.903 558.783 Q209.098 562.324 209.098 569.454 Q209.098 576.56 210.903 580.125 Q212.732 583.667 216.343 583.667 Q219.977 583.667 221.783 580.125 Q223.611 576.56 223.611 569.454 Q223.611 562.324 221.783 558.783 Q219.977 555.218 216.343 555.218 M216.343 551.514 Q222.153 551.514 225.209 556.121 Q228.287 560.704 228.287 569.454 Q228.287 578.181 225.209 582.787 Q222.153 587.371 216.343 587.371 Q210.533 587.371 207.454 582.787 Q204.399 578.181 204.399 569.454 Q204.399 560.704 207.454 556.121 Q210.533 551.514 216.343 551.514 Z" fill="#000000" fill-rule="evenodd" fill-opacity="1" /><path clip-path="url(#clip810)" d="M119.885 347.704 L136.204 347.704 L136.204 351.639 L114.26 351.639 L114.26 347.704 Q116.922 344.95 121.505 340.32 Q126.112 335.667 127.292 334.325 Q129.538 331.802 130.417 330.065 Q131.32 328.306 131.32 326.616 Q131.32 323.862 129.376 322.126 Q127.455 320.39 124.353 320.39 Q122.154 320.39 119.7 321.153 Q117.269 321.917 114.492 323.468 L114.492 318.746 Q117.316 317.612 119.769 317.033 Q122.223 316.454 124.26 316.454 Q129.63 316.454 132.825 319.14 Q136.019 321.825 136.019 326.315 Q136.019 328.445 135.209 330.366 Q134.422 332.264 132.316 334.857 Q131.737 335.528 128.635 338.746 Q125.533 341.94 119.885 347.704 Z" fill="#000000" fill-rule="evenodd" fill-opacity="1" /><path clip-path="url(#clip810)" d="M156.019 320.158 Q152.408 320.158 150.579 323.723 Q148.774 327.265 148.774 334.394 Q148.774 341.501 150.579 345.065 Q152.408 348.607 156.019 348.607 Q159.653 348.607 161.459 345.065 Q163.288 341.501 163.288 334.394 Q163.288 327.265 161.459 323.723 Q159.653 320.158 156.019 320.158 M156.019 316.454 Q161.829 316.454 164.885 321.061 Q167.964 325.644 167.964 334.394 Q167.964 343.121 164.885 347.727 Q161.829 352.311 156.019 352.311 Q150.209 352.311 147.13 347.727 Q144.075 343.121 144.075 334.394 Q144.075 325.644 147.13 321.061 Q150.209 316.454 156.019 316.454 Z" fill="#000000" fill-rule="evenodd" fill-opacity="1" /><path clip-path="url(#clip810)" d="M176.227 317.079 L194.584 317.079 L194.584 321.015 L180.51 321.015 L180.51 329.487 Q181.528 329.14 182.547 328.977 Q183.565 328.792 184.584 328.792 Q190.371 328.792 193.75 331.964 Q197.13 335.135 197.13 340.551 Q197.13 346.13 193.658 349.232 Q190.186 352.311 183.866 352.311 Q181.69 352.311 179.422 351.94 Q177.176 351.57 174.769 350.829 L174.769 346.13 Q176.852 347.264 179.075 347.82 Q181.297 348.376 183.774 348.376 Q187.778 348.376 190.116 346.269 Q192.454 344.163 192.454 340.551 Q192.454 336.94 190.116 334.834 Q187.778 332.727 183.774 332.727 Q181.899 332.727 180.024 333.144 Q178.172 333.561 176.227 334.44 L176.227 317.079 Z" fill="#000000" fill-rule="evenodd" fill-opacity="1" /><path clip-path="url(#clip810)" d="M216.343 320.158 Q212.732 320.158 210.903 323.723 Q209.098 327.265 209.098 334.394 Q209.098 341.501 210.903 345.065 Q212.732 348.607 216.343 348.607 Q219.977 348.607 221.783 345.065 Q223.611 341.501 223.611 334.394 Q223.611 327.265 221.783 323.723 Q219.977 320.158 216.343 320.158 M216.343 316.454 Q222.153 316.454 225.209 321.061 Q228.287 325.644 228.287 334.394 Q228.287 343.121 225.209 347.727 Q222.153 352.311 216.343 352.311 Q210.533 352.311 207.454 347.727 Q204.399 343.121 204.399 334.394 Q204.399 325.644 207.454 321.061 Q210.533 316.454 216.343 316.454 Z" fill="#000000" fill-rule="evenodd" fill-opacity="1" /><path clip-path="url(#clip810)" d="M119.885 112.644 L136.204 112.644 L136.204 116.579 L114.26 116.579 L114.26 112.644 Q116.922 109.89 121.505 105.26 Q126.112 100.607 127.292 99.2648 Q129.538 96.7416 130.417 95.0055 Q131.32 93.2463 131.32 91.5565 Q131.32 88.8019 129.376 87.0658 Q127.455 85.3297 124.353 85.3297 Q122.154 85.3297 119.7 86.0936 Q117.269 86.8574 114.492 88.4084 L114.492 83.6862 Q117.316 82.5519 119.769 81.9732 Q122.223 81.3945 124.26 81.3945 Q129.63 81.3945 132.825 84.0797 Q136.019 86.7648 136.019 91.2556 Q136.019 93.3852 135.209 95.3065 Q134.422 97.2046 132.316 99.7972 Q131.737 100.468 128.635 103.686 Q125.533 106.88 119.885 112.644 Z" fill="#000000" fill-rule="evenodd" fill-opacity="1" /><path clip-path="url(#clip810)" d="M146.829 112.644 L154.468 112.644 L154.468 86.2787 L146.158 87.9454 L146.158 83.6862 L154.422 82.0195 L159.098 82.0195 L159.098 112.644 L166.737 112.644 L166.737 116.579 L146.829 116.579 L146.829 112.644 Z" fill="#000000" fill-rule="evenodd" fill-opacity="1" /><path clip-path="url(#clip810)" d="M186.181 85.0982 Q182.57 85.0982 180.741 88.663 Q178.936 92.2046 178.936 99.3342 Q178.936 106.441 180.741 110.005 Q182.57 113.547 186.181 113.547 Q189.815 113.547 191.621 110.005 Q193.45 106.441 193.45 99.3342 Q193.45 92.2046 191.621 88.663 Q189.815 85.0982 186.181 85.0982 M186.181 81.3945 Q191.991 81.3945 195.047 86.001 Q198.125 90.5843 198.125 99.3342 Q198.125 108.061 195.047 112.667 Q191.991 117.251 186.181 117.251 Q180.371 117.251 177.292 112.667 Q174.237 108.061 174.237 99.3342 Q174.237 90.5843 177.292 86.001 Q180.371 81.3945 186.181 81.3945 Z" fill="#000000" fill-rule="evenodd" fill-opacity="1" /><path clip-path="url(#clip810)" d="M216.343 85.0982 Q212.732 85.0982 210.903 88.663 Q209.098 92.2046 209.098 99.3342 Q209.098 106.441 210.903 110.005 Q212.732 113.547 216.343 113.547 Q219.977 113.547 221.783 110.005 Q223.611 106.441 223.611 99.3342 Q223.611 92.2046 221.783 88.663 Q219.977 85.0982 216.343 85.0982 M216.343 81.3945 Q222.153 81.3945 225.209 86.001 Q228.287 90.5843 228.287 99.3342 Q228.287 108.061 225.209 112.667 Q222.153 117.251 216.343 117.251 Q210.533 117.251 207.454 112.667 Q204.399 108.061 204.399 99.3342 Q204.399 90.5843 207.454 86.001 Q210.533 81.3945 216.343 81.3945 Z" fill="#000000" fill-rule="evenodd" fill-opacity="1" /><path clip-path="url(#clip810)" d="M44.7161 779.279 L47.5806 779.279 L47.5806 806.206 Q53.6281 805.824 56.8109 802.577 Q59.9619 799.299 59.9619 793.474 Q59.9619 790.1 59.1344 786.949 Q58.3069 783.766 56.6518 780.647 L62.1899 780.647 Q63.5267 783.798 64.227 787.108 Q64.9272 790.419 64.9272 793.824 Q64.9272 802.354 59.9619 807.351 Q54.9967 812.317 46.5303 812.317 Q37.7774 812.317 32.6531 807.606 Q27.4968 802.864 27.4968 794.843 Q27.4968 787.649 32.1438 783.48 Q36.7589 779.279 44.7161 779.279 M42.9973 785.135 Q38.1912 785.199 35.3266 787.84 Q32.4621 790.45 32.4621 794.779 Q32.4621 799.681 35.2312 802.641 Q38.0002 805.569 43.0292 806.015 L42.9973 785.135 Z" fill="#000000" fill-rule="evenodd" fill-opacity="1" /><path clip-path="url(#clip810)" d="M33.8307 749.01 Q33.2578 749.996 33.0032 751.174 Q32.7167 752.32 32.7167 753.72 Q32.7167 758.686 35.9632 761.359 Q39.1779 764.001 45.2253 764.001 L64.0042 764.001 L64.0042 769.889 L28.3562 769.889 L28.3562 764.001 L33.8944 764.001 Q30.6479 762.155 29.0883 759.195 Q27.4968 756.235 27.4968 752.002 Q27.4968 751.397 27.5923 750.665 Q27.656 749.933 27.8151 749.041 L33.8307 749.01 Z" fill="#000000" fill-rule="evenodd" fill-opacity="1" /><path clip-path="url(#clip810)" d="M33.8307 723.356 Q33.2578 724.343 33.0032 725.52 Q32.7167 726.666 32.7167 728.066 Q32.7167 733.032 35.9632 735.705 Q39.1779 738.347 45.2253 738.347 L64.0042 738.347 L64.0042 744.235 L28.3562 744.235 L28.3562 738.347 L33.8944 738.347 Q30.6479 736.501 29.0883 733.541 Q27.4968 730.581 27.4968 726.348 Q27.4968 725.743 27.5923 725.011 Q27.656 724.279 27.8151 723.388 L33.8307 723.356 Z" fill="#000000" fill-rule="evenodd" fill-opacity="1" /><path clip-path="url(#clip810)" d="M32.4621 704.832 Q32.4621 709.542 36.1542 712.28 Q39.8145 715.017 46.212 715.017 Q52.6095 715.017 56.3017 712.311 Q59.9619 709.574 59.9619 704.832 Q59.9619 700.153 56.2698 697.416 Q52.5777 694.678 46.212 694.678 Q39.8781 694.678 36.186 697.416 Q32.4621 700.153 32.4621 704.832 M27.4968 704.832 Q27.4968 697.193 32.4621 692.832 Q37.4273 688.472 46.212 688.472 Q54.9649 688.472 59.9619 692.832 Q64.9272 697.193 64.9272 704.832 Q64.9272 712.502 59.9619 716.863 Q54.9649 721.191 46.212 721.191 Q37.4273 721.191 32.4621 716.863 Q27.4968 712.502 27.4968 704.832 Z" fill="#000000" fill-rule="evenodd" fill-opacity="1" /><path clip-path="url(#clip810)" d="M33.8307 658.107 Q33.2578 659.094 33.0032 660.272 Q32.7167 661.418 32.7167 662.818 Q32.7167 667.783 35.9632 670.457 Q39.1779 673.099 45.2253 673.099 L64.0042 673.099 L64.0042 678.987 L28.3562 678.987 L28.3562 673.099 L33.8944 673.099 Q30.6479 671.253 29.0883 668.292 Q27.4968 665.332 27.4968 661.099 Q27.4968 660.494 27.5923 659.762 Q27.656 659.03 27.8151 658.139 L33.8307 658.107 Z" fill="#000000" fill-rule="evenodd" fill-opacity="1" /><polyline clip-path="url(#clip812)" style="stroke:#009af9; stroke-linecap:round; stroke-linejoin:round; stroke-width:4; stroke-opacity:1; fill:none" points="
  323.395,86.1857 328.321,99.0061 333.246,111.763 338.172,124.456 343.097,137.086 348.023,149.651 352.949,162.154 357.874,174.592 362.8,186.967 367.726,199.279 
  372.651,211.527 377.577,223.711 382.503,235.831 387.428,247.888 392.354,259.882 397.279,271.811 402.205,283.677 407.131,295.48 412.056,307.218 416.982,318.894 
  421.908,330.505 426.833,342.053 431.759,353.537 436.684,364.958 441.61,376.315 446.536,387.608 451.461,398.838 456.387,410.004 461.313,421.107 466.238,432.146 
  471.164,443.121 476.09,454.033 481.015,464.881 485.941,475.665 490.866,486.386 495.792,497.043 500.718,507.636 505.643,518.166 510.569,528.632 515.495,539.035 
  520.42,549.374 525.346,559.649 530.272,569.861 535.197,580.009 540.123,590.094 545.048,600.115 549.974,610.072 554.9,619.966 559.825,629.796 564.751,639.562 
  569.677,649.265 574.602,658.904 579.528,668.479 584.453,677.991 589.379,687.439 594.305,696.824 599.23,706.145 604.156,715.402 609.082,724.596 614.007,733.726 
  618.933,742.793 623.859,751.796 628.784,760.735 633.71,769.61 638.635,778.422 643.561,787.171 648.487,795.855 653.412,804.477 658.338,813.034 663.264,821.528 
  668.189,829.958 673.115,838.325 678.041,846.628 682.966,854.867 687.892,863.043 692.817,871.155 697.743,879.203 702.669,887.188 707.594,895.109 712.52,902.967 
  717.446,910.761 722.371,918.491 727.297,926.158 732.223,933.761 737.148,941.3 742.074,948.776 746.999,956.188 751.925,963.537 756.851,970.822 761.776,978.043 
  766.702,985.201 771.628,992.295 776.553,999.326 781.479,1006.29 786.404,1013.2 791.33,1020.04 796.256,1026.81 801.181,1033.52 806.107,1040.17 811.033,1046.76 
  815.958,1053.28 820.884,1059.74 825.81,1066.13 830.735,1072.46 835.661,1078.73 840.586,1084.93 845.512,1091.07 850.438,1097.15 855.363,1103.16 860.289,1109.11 
  865.215,1114.99 870.14,1120.82 875.066,1126.57 879.992,1132.27 884.917,1137.9 889.843,1143.47 894.768,1148.97 899.694,1154.41 904.62,1159.78 909.545,1165.1 
  914.471,1170.35 919.397,1175.53 924.322,1180.65 929.248,1185.71 934.173,1190.71 939.099,1195.64 944.025,1200.5 948.95,1205.31 953.876,1210.05 958.802,1214.72 
  963.727,1219.34 968.653,1223.88 973.579,1228.37 978.504,1232.79 983.43,1237.15 988.355,1241.44 993.281,1245.68 998.207,1249.84 1003.13,1253.95 1008.06,1257.99 
  1012.98,1261.96 1017.91,1265.88 1022.83,1269.72 1027.76,1273.51 1032.69,1277.23 1037.61,1280.89 1042.54,1284.49 1047.46,1288.02 1052.39,1291.48 1057.31,1294.89 
  1062.24,1298.23 1067.17,1301.5 1072.09,1304.72 1077.02,1307.87 1081.94,1310.95 1086.87,1313.97 1091.79,1316.93 1096.72,1319.83 1101.65,1322.66 1106.57,1325.43 
  1111.5,1328.13 1116.42,1330.77 1121.35,1333.35 1126.27,1335.86 1131.2,1338.31 1136.12,1340.69 1141.05,1343.02 1145.98,1345.28 1150.9,1347.47 1155.83,1349.6 
  1160.75,1351.67 1165.68,1353.67 1170.6,1355.61 1175.53,1357.49 1180.46,1359.3 1185.38,1361.05 1190.31,1362.74 1195.23,1364.36 1200.16,1365.92 1205.08,1367.41 
  1210.01,1368.85 1214.93,1370.21 1219.86,1371.52 1224.79,1372.76 1229.71,1373.93 1234.64,1375.05 1239.56,1376.1 1244.49,1377.08 1249.41,1378.01 1254.34,1378.86 
  1259.27,1379.66 1264.19,1380.39 1269.12,1381.06 1274.04,1381.66 1278.97,1382.2 1283.89,1382.68 1288.82,1383.09 1293.74,1383.44 1298.67,1383.73 1303.6,1383.95 
  1308.52,1384.11 1313.45,1384.21 1318.37,1384.24 1323.3,1384.21 1328.22,1384.11 1333.15,1383.95 1338.08,1383.73 1343,1383.44 1347.93,1383.09 1352.85,1382.68 
  1357.78,1382.2 1362.7,1381.66 1367.63,1381.05 1372.55,1380.39 1377.48,1379.65 1382.41,1378.86 1387.33,1378 1392.26,1377.08 1397.18,1376.09 1402.11,1375.04 
  1407.03,1373.93 1411.96,1372.75 1416.89,1371.51 1421.81,1370.2 1426.74,1368.84 1431.66,1367.4 1436.59,1365.91 1441.51,1364.35 1446.44,1362.73 1451.36,1361.04 
  1456.29,1359.29 1461.22,1357.48 1466.14,1355.6 1471.07,1353.66 1475.99,1351.65 1480.92,1349.59 1485.84,1347.45 1490.77,1345.26 1495.7,1343 1500.62,1340.68 
  1505.55,1338.29 1510.47,1335.84 1515.4,1333.33 1520.32,1330.75 1525.25,1328.11 1530.18,1325.41 1535.1,1322.64 1540.03,1319.81 1544.95,1316.91 1549.88,1313.95 
  1554.8,1310.93 1559.73,1307.84 1564.65,1304.69 1569.58,1301.48 1574.51,1298.2 1579.43,1294.86 1584.36,1291.46 1589.28,1287.99 1594.21,1284.46 1599.13,1280.87 
  1604.06,1277.21 1608.99,1273.48 1613.91,1269.7 1618.84,1265.85 1623.76,1261.94 1628.69,1257.96 1633.61,1253.92 1638.54,1249.81 1643.46,1245.65 1648.39,1241.41 
  1653.32,1237.12 1658.24,1232.76 1663.17,1228.34 1668.09,1223.85 1673.02,1219.3 1677.94,1214.69 1682.87,1210.01 1687.8,1205.27 1692.72,1200.47 1697.65,1195.6 
  1702.57,1190.67 1707.5,1185.68 1712.42,1180.62 1717.35,1175.49 1722.27,1170.31 1727.2,1165.06 1732.13,1159.75 1737.05,1154.37 1741.98,1148.93 1746.9,1143.43 
  1751.83,1137.86 1756.75,1132.23 1761.68,1126.53 1766.61,1120.77 1771.53,1114.95 1776.46,1109.07 1781.38,1103.12 1786.31,1097.1 1791.23,1091.03 1796.16,1084.89 
  1801.08,1078.68 1806.01,1072.42 1810.94,1066.09 1815.86,1059.69 1820.79,1053.23 1825.71,1046.71 1830.64,1040.13 1835.56,1033.48 1840.49,1026.76 1845.42,1019.99 
  1850.34,1013.15 1855.27,1006.24 1860.19,999.276 1865.12,992.245 1870.04,985.151 1874.97,977.993 1879.9,970.771 1884.82,963.485 1889.75,956.136 1894.67,948.724 
  1899.6,941.247 1904.52,933.708 1909.45,926.104 1914.37,918.437 1919.3,910.706 1924.23,902.912 1929.15,895.054 1934.08,887.132 1939,879.147 1943.93,871.098 
  1948.85,862.985 1953.78,854.809 1958.71,846.569 1963.63,838.266 1968.56,829.899 1973.48,821.468 1978.41,812.974 1983.33,804.416 1988.26,795.794 1993.18,787.109 
  1998.11,778.36 2003.04,769.548 2007.96,760.672 2012.89,751.732 2017.81,742.729 2022.74,733.662 2027.66,724.531 2032.59,715.337 2037.52,706.079 2042.44,696.758 
  2047.37,687.373 2052.29,677.924 2057.22,668.412 2062.14,658.836 2067.07,649.196 2071.99,639.493 2076.92,629.726 2081.85,619.896 2086.77,610.002 2091.7,600.044 
  2096.62,590.023 2101.55,579.938 2106.47,569.789 2111.4,559.577 2116.33,549.301 2121.25,538.962 2126.18,528.559 2131.1,518.092 2136.03,507.562 2140.95,496.968 
  2145.88,486.31 2150.8,475.589 2155.73,464.804 2160.66,453.956 2165.58,443.044 2170.51,432.068 2175.43,421.029 2180.36,409.926 2185.28,398.759 2190.21,387.529 
  2195.14,376.235 2200.06,364.878 2204.99,353.456 2209.91,341.972 2214.84,330.423 2219.76,318.811 2224.69,307.136 2229.62,295.397 2234.54,283.594 2239.47,271.727 
  2244.39,259.797 2249.32,247.803 2254.24,235.746 2259.17,223.625 2264.09,211.441 2269.02,199.192 2273.95,186.88 2278.87,174.505 2283.8,162.066 2288.72,149.563 
  2293.65,136.997 
  "/>
</svg>
