<?xml version="1.0" encoding="utf-8"?>
<svg xmlns="http://www.w3.org/2000/svg" xmlns:xlink="http://www.w3.org/1999/xlink" width="600" height="400" viewBox="0 0 2400 1600">
<defs>
  <clipPath id="clip730">
    <rect x="0" y="0" width="2400" height="1600"/>
  </clipPath>
</defs>
<path clip-path="url(#clip730)" d="
M0 1600 L2400 1600 L2400 0 L0 0  Z
  " fill="#ffffff" fill-rule="evenodd" fill-opacity="1"/>
<defs>
  <clipPath id="clip731">
    <rect x="480" y="0" width="1681" height="1600"/>
  </clipPath>
</defs>
<path clip-path="url(#clip730)" d="
M140.696 1486.45 L2352.76 1486.45 L2352.76 47.2441 L140.696 47.2441  Z
  " fill="#ffffff" fill-rule="evenodd" fill-opacity="1"/>
<defs>
  <clipPath id="clip732">
    <rect x="140" y="47" width="2213" height="1440"/>
  </clipPath>
</defs>
<polyline clip-path="url(#clip732)" style="stroke:#000000; stroke-linecap:round; stroke-linejoin:round; stroke-width:2; stroke-opacity:0.1; fill:none" points="
  411.986,1486.45 411.986,47.2441 
  "/>
<polyline clip-path="url(#clip732)" style="stroke:#000000; stroke-linecap:round; stroke-linejoin:round; stroke-width:2; stroke-opacity:0.1; fill:none" points="
  829.356,1486.45 829.356,47.2441 
  "/>
<polyline clip-path="url(#clip732)" style="stroke:#000000; stroke-linecap:round; stroke-linejoin:round; stroke-width:2; stroke-opacity:0.1; fill:none" points="
  1664.1,1486.45 1664.1,47.2441 
  "/>
<polyline clip-path="url(#clip732)" style="stroke:#000000; stroke-linecap:round; stroke-linejoin:round; stroke-width:2; stroke-opacity:0.1; fill:none" points="
  2081.47,1486.45 2081.47,47.2441 
  "/>
<polyline clip-path="url(#clip730)" style="stroke:#000000; stroke-linecap:round; stroke-linejoin:round; stroke-width:4; stroke-opacity:1; fill:none" points="
  140.696,1374.3 2352.76,1374.3 
  "/>
<polyline clip-path="url(#clip730)" style="stroke:#000000; stroke-linecap:round; stroke-linejoin:round; stroke-width:4; stroke-opacity:1; fill:none" points="
  411.986,1393.19 411.986,1355.4 
  "/>
<polyline clip-path="url(#clip730)" style="stroke:#000000; stroke-linecap:round; stroke-linejoin:round; stroke-width:4; stroke-opacity:1; fill:none" points="
  829.356,1393.19 829.356,1355.4 
  "/>
<polyline clip-path="url(#clip730)" style="stroke:#000000; stroke-linecap:round; stroke-linejoin:round; stroke-width:4; stroke-opacity:1; fill:none" points="
  1664.1,1393.19 1664.1,1355.4 
  "/>
<polyline clip-path="url(#clip730)" style="stroke:#000000; stroke-linecap:round; stroke-linejoin:round; stroke-width:4; stroke-opacity:1; fill:none" points="
  2081.47,1393.19 2081.47,1355.4 
  "/>
<path clip-path="url(#clip730)" d="M380.887 1419.87 L410.562 1419.87 L410.562 1423.8 L380.887 1423.8 L380.887 1419.87 Z" fill="#000000" fill-rule="evenodd" fill-opacity="1" /><path clip-path="url(#clip730)" d="M433.502 1406.21 L421.697 1424.66 L433.502 1424.66 L433.502 1406.21 M432.275 1402.14 L438.155 1402.14 L438.155 1424.66 L443.085 1424.66 L443.085 1428.55 L438.155 1428.55 L438.155 1436.7 L433.502 1436.7 L433.502 1428.55 L417.9 1428.55 L417.9 1424.03 L432.275 1402.14 Z" fill="#000000" fill-rule="evenodd" fill-opacity="1" /><path clip-path="url(#clip730)" d="M799.298 1419.87 L828.974 1419.87 L828.974 1423.8 L799.298 1423.8 L799.298 1419.87 Z" fill="#000000" fill-rule="evenodd" fill-opacity="1" /><path clip-path="url(#clip730)" d="M843.094 1432.76 L859.414 1432.76 L859.414 1436.7 L837.469 1436.7 L837.469 1432.76 Q840.131 1430.01 844.715 1425.38 Q849.321 1420.72 850.502 1419.38 Q852.747 1416.86 853.627 1415.12 Q854.529 1413.36 854.529 1411.67 Q854.529 1408.92 852.585 1407.18 Q850.664 1405.45 847.562 1405.45 Q845.363 1405.45 842.909 1406.21 Q840.478 1406.97 837.701 1408.53 L837.701 1403.8 Q840.525 1402.67 842.978 1402.09 Q845.432 1401.51 847.469 1401.51 Q852.84 1401.51 856.034 1404.2 Q859.228 1406.88 859.228 1411.37 Q859.228 1413.5 858.418 1415.42 Q857.631 1417.32 855.525 1419.91 Q854.946 1420.59 851.844 1423.8 Q848.742 1427 843.094 1432.76 Z" fill="#000000" fill-rule="evenodd" fill-opacity="1" /><path clip-path="url(#clip730)" d="M1658.75 1432.76 L1675.07 1432.76 L1675.07 1436.7 L1653.12 1436.7 L1653.12 1432.76 Q1655.79 1430.01 1660.37 1425.38 Q1664.98 1420.72 1666.16 1419.38 Q1668.4 1416.86 1669.28 1415.12 Q1670.18 1413.36 1670.18 1411.67 Q1670.18 1408.92 1668.24 1407.18 Q1666.32 1405.45 1663.22 1405.45 Q1661.02 1405.45 1658.56 1406.21 Q1656.13 1406.97 1653.35 1408.53 L1653.35 1403.8 Q1656.18 1402.67 1658.63 1402.09 Q1661.09 1401.51 1663.12 1401.51 Q1668.49 1401.51 1671.69 1404.2 Q1674.88 1406.88 1674.88 1411.37 Q1674.88 1413.5 1674.07 1415.42 Q1673.29 1417.32 1671.18 1419.91 Q1670.6 1420.59 1667.5 1423.8 Q1664.4 1427 1658.75 1432.76 Z" fill="#000000" fill-rule="evenodd" fill-opacity="1" /><path clip-path="url(#clip730)" d="M2084.47 1406.21 L2072.67 1424.66 L2084.47 1424.66 L2084.47 1406.21 M2083.25 1402.14 L2089.13 1402.14 L2089.13 1424.66 L2094.06 1424.66 L2094.06 1428.55 L2089.13 1428.55 L2089.13 1436.7 L2084.47 1436.7 L2084.47 1428.55 L2068.87 1428.55 L2068.87 1424.03 L2083.25 1402.14 Z" fill="#000000" fill-rule="evenodd" fill-opacity="1" /><polyline clip-path="url(#clip732)" style="stroke:#000000; stroke-linecap:round; stroke-linejoin:round; stroke-width:2; stroke-opacity:0.1; fill:none" points="
  140.696,1016.99 2352.76,1016.99 
  "/>
<polyline clip-path="url(#clip732)" style="stroke:#000000; stroke-linecap:round; stroke-linejoin:round; stroke-width:2; stroke-opacity:0.1; fill:none" points="
  140.696,659.674 2352.76,659.674 
  "/>
<polyline clip-path="url(#clip732)" style="stroke:#000000; stroke-linecap:round; stroke-linejoin:round; stroke-width:2; stroke-opacity:0.1; fill:none" points="
  140.696,302.363 2352.76,302.363 
  "/>
<polyline clip-path="url(#clip730)" style="stroke:#000000; stroke-linecap:round; stroke-linejoin:round; stroke-width:4; stroke-opacity:1; fill:none" points="
  1246.73,1486.45 1246.73,47.2441 
  "/>
<polyline clip-path="url(#clip730)" style="stroke:#000000; stroke-linecap:round; stroke-linejoin:round; stroke-width:4; stroke-opacity:1; fill:none" points="
  1227.83,1016.99 1265.62,1016.99 
  "/>
<polyline clip-path="url(#clip730)" style="stroke:#000000; stroke-linecap:round; stroke-linejoin:round; stroke-width:4; stroke-opacity:1; fill:none" points="
  1227.83,659.674 1265.62,659.674 
  "/>
<polyline clip-path="url(#clip730)" style="stroke:#000000; stroke-linecap:round; stroke-linejoin:round; stroke-width:4; stroke-opacity:1; fill:none" points="
  1227.83,302.363 1265.62,302.363 
  "/>
<path clip-path="url(#clip730)" d="M1159.43 1030.33 L1167.07 1030.33 L1167.07 1003.96 L1158.76 1005.63 L1158.76 1001.37 L1167.02 999.705 L1171.7 999.705 L1171.7 1030.33 L1179.34 1030.33 L1179.34 1034.27 L1159.43 1034.27 L1159.43 1030.33 Z" fill="#000000" fill-rule="evenodd" fill-opacity="1" /><path clip-path="url(#clip730)" d="M1198.78 1002.78 Q1195.17 1002.78 1193.34 1006.35 Q1191.54 1009.89 1191.54 1017.02 Q1191.54 1024.13 1193.34 1027.69 Q1195.17 1031.23 1198.78 1031.23 Q1202.42 1031.23 1204.22 1027.69 Q1206.05 1024.13 1206.05 1017.02 Q1206.05 1009.89 1204.22 1006.35 Q1202.42 1002.78 1198.78 1002.78 M1198.78 999.08 Q1204.59 999.08 1207.65 1003.69 Q1210.73 1008.27 1210.73 1017.02 Q1210.73 1025.75 1207.65 1030.35 Q1204.59 1034.94 1198.78 1034.94 Q1192.97 1034.94 1189.89 1030.35 Q1186.84 1025.75 1186.84 1017.02 Q1186.84 1008.27 1189.89 1003.69 Q1192.97 999.08 1198.78 999.08 Z" fill="#000000" fill-rule="evenodd" fill-opacity="1" /><path clip-path="url(#clip730)" d="M1162.65 673.019 L1178.97 673.019 L1178.97 676.954 L1157.02 676.954 L1157.02 673.019 Q1159.68 670.264 1164.27 665.635 Q1168.87 660.982 1170.05 659.639 Q1172.3 657.116 1173.18 655.38 Q1174.08 653.621 1174.08 651.931 Q1174.08 649.176 1172.14 647.44 Q1170.22 645.704 1167.11 645.704 Q1164.92 645.704 1162.46 646.468 Q1160.03 647.232 1157.25 648.783 L1157.25 644.061 Q1160.08 642.926 1162.53 642.348 Q1164.99 641.769 1167.02 641.769 Q1172.39 641.769 1175.59 644.454 Q1178.78 647.139 1178.78 651.63 Q1178.78 653.76 1177.97 655.681 Q1177.18 657.579 1175.08 660.172 Q1174.5 660.843 1171.4 664.061 Q1168.3 667.255 1162.65 673.019 Z" fill="#000000" fill-rule="evenodd" fill-opacity="1" /><path clip-path="url(#clip730)" d="M1198.78 645.473 Q1195.17 645.473 1193.34 649.038 Q1191.54 652.579 1191.54 659.709 Q1191.54 666.815 1193.34 670.38 Q1195.17 673.922 1198.78 673.922 Q1202.42 673.922 1204.22 670.38 Q1206.05 666.815 1206.05 659.709 Q1206.05 652.579 1204.22 649.038 Q1202.42 645.473 1198.78 645.473 M1198.78 641.769 Q1204.59 641.769 1207.65 646.376 Q1210.73 650.959 1210.73 659.709 Q1210.73 668.436 1207.65 673.042 Q1204.59 677.625 1198.78 677.625 Q1192.97 677.625 1189.89 673.042 Q1186.84 668.436 1186.84 659.709 Q1186.84 650.959 1189.89 646.376 Q1192.97 641.769 1198.78 641.769 Z" fill="#000000" fill-rule="evenodd" fill-opacity="1" /><path clip-path="url(#clip730)" d="M1172.79 301.009 Q1176.14 301.726 1178.02 303.995 Q1179.92 306.263 1179.92 309.597 Q1179.92 314.712 1176.4 317.513 Q1172.88 320.314 1166.4 320.314 Q1164.22 320.314 1161.91 319.874 Q1159.61 319.458 1157.16 318.601 L1157.16 314.087 Q1159.11 315.222 1161.42 315.8 Q1163.74 316.379 1166.26 316.379 Q1170.66 316.379 1172.95 314.643 Q1175.26 312.907 1175.26 309.597 Q1175.26 306.541 1173.11 304.828 Q1170.98 303.092 1167.16 303.092 L1163.13 303.092 L1163.13 299.25 L1167.35 299.25 Q1170.8 299.25 1172.62 297.884 Q1174.45 296.495 1174.45 293.902 Q1174.45 291.24 1172.55 289.828 Q1170.68 288.393 1167.16 288.393 Q1165.24 288.393 1163.04 288.81 Q1160.84 289.226 1158.2 290.106 L1158.2 285.939 Q1160.86 285.199 1163.18 284.828 Q1165.52 284.458 1167.58 284.458 Q1172.9 284.458 1176 286.888 Q1179.11 289.296 1179.11 293.416 Q1179.11 296.287 1177.46 298.277 Q1175.82 300.245 1172.79 301.009 Z" fill="#000000" fill-rule="evenodd" fill-opacity="1" /><path clip-path="url(#clip730)" d="M1198.78 288.162 Q1195.17 288.162 1193.34 291.726 Q1191.54 295.268 1191.54 302.398 Q1191.54 309.504 1193.34 313.069 Q1195.17 316.611 1198.78 316.611 Q1202.42 316.611 1204.22 313.069 Q1206.05 309.504 1206.05 302.398 Q1206.05 295.268 1204.22 291.726 Q1202.42 288.162 1198.78 288.162 M1198.78 284.458 Q1204.59 284.458 1207.65 289.064 Q1210.73 293.648 1210.73 302.398 Q1210.73 311.124 1207.65 315.731 Q1204.59 320.314 1198.78 320.314 Q1192.97 320.314 1189.89 315.731 Q1186.84 311.124 1186.84 302.398 Q1186.84 293.648 1189.89 289.064 Q1192.97 284.458 1198.78 284.458 Z" fill="#000000" fill-rule="evenodd" fill-opacity="1" /><polyline clip-path="url(#clip732)" style="stroke:#009af9; stroke-linecap:round; stroke-linejoin:round; stroke-width:4; stroke-opacity:1; fill:none" points="
  203.301,802.599 206.698,807.242 210.094,811.866 213.491,816.471 216.888,821.057 248.294,862.568 279.701,902.459 311.108,940.733 342.515,977.387 380.263,1019.3 
  418.011,1058.88 449.927,1090.51 481.843,1120.48 516.512,1151.13 551.182,1179.82 583.144,1204.51 615.106,1227.54 649.373,1250.35 683.639,1271.24 723.341,1293.04 
  763.042,1312.25 798.324,1327.15 833.606,1340.01 864.545,1349.6 895.484,1357.62 929.216,1364.58 962.948,1369.67 996.881,1372.91 1030.81,1374.25 1068.33,1373.54 
  1105.85,1370.52 1141.54,1365.51 1177.24,1358.4 1214.35,1348.79 1251.47,1336.92 1282.71,1325.18 1313.96,1311.83 1352.1,1293.37 1390.25,1272.52 1425.19,1251.32 
  1460.13,1228.12 1492.4,1204.91 1524.68,1180 1557.37,1153.01 1590.06,1124.28 1626.7,1089.99 1663.33,1053.5 1696.53,1018.53 1729.73,981.75 1767.74,937.421 
  1805.76,890.72 1840.95,845.366 1876.15,797.979 1910.84,749.272 1945.54,698.588 1979.23,647.489 2012.92,594.527 2047.46,538.301 2081.99,480.118 2119.83,414.124 
  2157.67,345.782 2185.15,294.67 2212.63,242.318 2240.12,188.727 2267.6,133.897 2273.24,122.495 2278.87,111.041 2284.51,99.5346 2290.15,87.9763 
  "/>
<polyline clip-path="url(#clip732)" style="stroke:#e26f46; stroke-linecap:round; stroke-linejoin:round; stroke-width:4; stroke-opacity:1; fill:none" points="
  203.301,87.9763 206.698,94.9457 210.094,101.896 213.491,108.828 216.888,115.74 248.294,178.761 279.701,240.162 311.108,299.945 342.515,358.11 380.263,425.877 
  418.011,491.305 449.927,544.8 481.843,596.624 516.512,651.024 551.182,703.453 583.144,750.04 615.106,794.95 649.373,841.237 683.639,885.597 723.341,934.583 
  763.042,980.983 798.324,1020.05 833.606,1057.07 864.545,1087.85 895.484,1117.06 929.216,1147.12 962.948,1175.32 996.881,1201.79 1030.81,1226.38 1068.33,1251.36 
  1105.85,1274.04 1141.54,1293.47 1177.24,1310.81 1214.35,1326.62 1251.47,1340.17 1282.71,1349.83 1313.96,1357.88 1352.1,1365.54 1390.25,1370.81 1425.19,1373.55 
  1460.13,1374.28 1492.4,1373.17 1524.68,1370.36 1557.37,1365.77 1590.06,1359.42 1626.7,1350.22 1663.33,1338.83 1696.53,1326.59 1729.73,1312.55 1767.74,1294.26 
  1805.76,1273.59 1840.95,1252.34 1876.15,1229.06 1910.84,1204.11 1945.54,1177.19 1979.23,1149.17 2012.92,1119.28 2047.46,1086.71 2081.99,1052.18 2119.83,1012.1 
  2157.67,969.669 2185.15,937.379 2212.63,903.85 2240.12,869.081 2267.6,833.073 2273.24,825.533 2278.87,817.94 2284.51,810.295 2290.15,802.599 
  "/>
<polyline clip-path="url(#clip732)" style="stroke:#3da44d; stroke-linecap:round; stroke-linejoin:round; stroke-width:4; stroke-opacity:1; fill:none" points="
  203.301,874.061 206.698,878.704 210.094,883.328 213.491,887.933 216.888,892.52 248.294,934.03 279.701,973.922 311.108,1012.19 342.515,1048.85 380.263,1090.76 
  418.011,1130.34 449.927,1161.98 481.843,1191.94 516.512,1222.6 551.182,1251.28 583.144,1275.98 615.106,1299 649.373,1321.82 683.639,1342.71 723.341,1364.5 
  763.042,1383.71 798.324,1398.61 833.606,1411.47 864.545,1421.06 895.484,1429.08 929.216,1436.04 962.948,1441.13 996.881,1444.37 1030.81,1445.72 1068.33,1445.01 
  1105.85,1441.99 1141.54,1436.97 1177.24,1429.86 1214.35,1420.25 1251.47,1408.38 1282.71,1396.64 1313.96,1383.3 1352.1,1364.83 1390.25,1343.98 1425.19,1322.78 
  1460.13,1299.58 1492.4,1276.37 1524.68,1251.46 1557.37,1224.48 1590.06,1195.74 1626.7,1161.45 1663.33,1124.96 1696.53,1089.99 1729.73,1053.21 1767.74,1008.88 
  1805.76,962.182 1840.95,916.828 1876.15,869.441 1910.84,820.734 1945.54,770.05 1979.23,718.951 2012.92,665.989 2047.46,609.763 2081.99,551.58 2119.83,485.587 
  2157.67,417.244 2185.15,366.132 2212.63,313.78 2240.12,260.189 2267.6,205.359 2273.24,193.957 2278.87,182.503 2284.51,170.997 2290.15,159.439 
  "/>
<path clip-path="url(#clip730)" d="
M2004.81 302.578 L2279.02 302.578 L2279.02 95.2176 L2004.81 95.2176  Z
  " fill="#ffffff" fill-rule="evenodd" fill-opacity="1"/>
<polyline clip-path="url(#clip730)" style="stroke:#000000; stroke-linecap:round; stroke-linejoin:round; stroke-width:4; stroke-opacity:1; fill:none" points="
  2004.81,302.578 2279.02,302.578 2279.02,95.2176 2004.81,95.2176 2004.81,302.578 
  "/>
<polyline clip-path="url(#clip730)" style="stroke:#009af9; stroke-linecap:round; stroke-linejoin:round; stroke-width:4; stroke-opacity:1; fill:none" points="
  2029.38,147.058 2176.85,147.058 
  "/>
<path clip-path="url(#clip730)" d="M2215.28 166.745 Q2213.47 171.375 2211.76 172.787 Q2210.04 174.199 2207.17 174.199 L2203.77 174.199 L2203.77 170.634 L2206.27 170.634 Q2208.03 170.634 2209 169.8 Q2209.97 168.967 2211.16 165.865 L2211.92 163.921 L2201.43 138.412 L2205.95 138.412 L2214.05 158.689 L2222.15 138.412 L2226.66 138.412 L2215.28 166.745 Z" fill="#000000" fill-rule="evenodd" fill-opacity="1" /><path clip-path="url(#clip730)" d="M2233.96 160.402 L2241.59 160.402 L2241.59 134.037 L2233.28 135.703 L2233.28 131.444 L2241.55 129.778 L2246.22 129.778 L2246.22 160.402 L2253.86 160.402 L2253.86 164.338 L2233.96 164.338 L2233.96 160.402 Z" fill="#000000" fill-rule="evenodd" fill-opacity="1" /><polyline clip-path="url(#clip730)" style="stroke:#e26f46; stroke-linecap:round; stroke-linejoin:round; stroke-width:4; stroke-opacity:1; fill:none" points="
  2029.38,198.898 2176.85,198.898 
  "/>
<path clip-path="url(#clip730)" d="M2215.28 218.585 Q2213.47 223.215 2211.76 224.627 Q2210.04 226.039 2207.17 226.039 L2203.77 226.039 L2203.77 222.474 L2206.27 222.474 Q2208.03 222.474 2209 221.64 Q2209.97 220.807 2211.16 217.705 L2211.92 215.761 L2201.43 190.252 L2205.95 190.252 L2214.05 210.529 L2222.15 190.252 L2226.66 190.252 L2215.28 218.585 Z" fill="#000000" fill-rule="evenodd" fill-opacity="1" /><path clip-path="url(#clip730)" d="M2237.17 212.242 L2253.49 212.242 L2253.49 216.178 L2231.55 216.178 L2231.55 212.242 Q2234.21 209.488 2238.79 204.858 Q2243.4 200.205 2244.58 198.863 Q2246.83 196.34 2247.71 194.604 Q2248.61 192.844 2248.61 191.155 Q2248.61 188.4 2246.66 186.664 Q2244.74 184.928 2241.64 184.928 Q2239.44 184.928 2236.99 185.692 Q2234.56 186.455 2231.78 188.006 L2231.78 183.284 Q2234.6 182.15 2237.06 181.571 Q2239.51 180.993 2241.55 180.993 Q2246.92 180.993 2250.11 183.678 Q2253.31 186.363 2253.31 190.854 Q2253.31 192.983 2252.5 194.905 Q2251.71 196.803 2249.6 199.395 Q2249.03 200.067 2245.92 203.284 Q2242.82 206.479 2237.17 212.242 Z" fill="#000000" fill-rule="evenodd" fill-opacity="1" /><polyline clip-path="url(#clip730)" style="stroke:#3da44d; stroke-linecap:round; stroke-linejoin:round; stroke-width:4; stroke-opacity:1; fill:none" points="
  2029.38,250.738 2176.85,250.738 
  "/>
<path clip-path="url(#clip730)" d="M2215.28 270.425 Q2213.47 275.055 2211.76 276.467 Q2210.04 277.879 2207.17 277.879 L2203.77 277.879 L2203.77 274.314 L2206.27 274.314 Q2208.03 274.314 2209 273.48 Q2209.97 272.647 2211.16 269.545 L2211.92 267.601 L2201.43 242.092 L2205.95 242.092 L2214.05 262.369 L2222.15 242.092 L2226.66 242.092 L2215.28 270.425 Z" fill="#000000" fill-rule="evenodd" fill-opacity="1" /><path clip-path="url(#clip730)" d="M2247.31 249.383 Q2250.67 250.101 2252.54 252.369 Q2254.44 254.638 2254.44 257.971 Q2254.44 263.087 2250.92 265.888 Q2247.41 268.689 2240.92 268.689 Q2238.75 268.689 2236.43 268.249 Q2234.14 267.832 2231.69 266.976 L2231.69 262.462 Q2233.63 263.596 2235.95 264.175 Q2238.26 264.754 2240.78 264.754 Q2245.18 264.754 2247.47 263.018 Q2249.79 261.281 2249.79 257.971 Q2249.79 254.916 2247.64 253.203 Q2245.51 251.467 2241.69 251.467 L2237.66 251.467 L2237.66 247.624 L2241.87 247.624 Q2245.32 247.624 2247.15 246.258 Q2248.98 244.87 2248.98 242.277 Q2248.98 239.615 2247.08 238.203 Q2245.21 236.768 2241.69 236.768 Q2239.77 236.768 2237.57 237.184 Q2235.37 237.601 2232.73 238.481 L2232.73 234.314 Q2235.39 233.573 2237.71 233.203 Q2240.04 232.833 2242.1 232.833 Q2247.43 232.833 2250.53 235.263 Q2253.63 237.67 2253.63 241.791 Q2253.63 244.661 2251.99 246.652 Q2250.34 248.62 2247.31 249.383 Z" fill="#000000" fill-rule="evenodd" fill-opacity="1" /></svg>
