<?xml version="1.0" encoding="utf-8"?>
<svg xmlns="http://www.w3.org/2000/svg" xmlns:xlink="http://www.w3.org/1999/xlink" width="600" height="400" viewBox="0 0 2400 1600">
<defs>
  <clipPath id="clip610">
    <rect x="0" y="0" width="2400" height="1600"/>
  </clipPath>
</defs>
<path clip-path="url(#clip610)" d="
M0 1600 L2400 1600 L2400 0 L0 0  Z
  " fill="#ffffff" fill-rule="evenodd" fill-opacity="1"/>
<defs>
  <clipPath id="clip611">
    <rect x="480" y="0" width="1681" height="1600"/>
  </clipPath>
</defs>
<path clip-path="url(#clip610)" d="
M587.793 1423.18 L2352.76 1423.18 L2352.76 47.2441 L587.793 47.2441  Z
  " fill="#ffffff" fill-rule="evenodd" fill-opacity="1"/>
<defs>
  <clipPath id="clip612">
    <rect x="587" y="47" width="1766" height="1377"/>
  </clipPath>
</defs>
<polyline clip-path="url(#clip612)" style="stroke:#000000; stroke-linecap:round; stroke-linejoin:round; stroke-width:2; stroke-opacity:0.1; fill:none" points="
  637.744,1424.22 637.744,48.4375 
  "/>
<polyline clip-path="url(#clip612)" style="stroke:#000000; stroke-linecap:round; stroke-linejoin:round; stroke-width:2; stroke-opacity:0.1; fill:none" points="
  1054.01,1424.22 1054.01,48.4375 
  "/>
<polyline clip-path="url(#clip612)" style="stroke:#000000; stroke-linecap:round; stroke-linejoin:round; stroke-width:2; stroke-opacity:0.1; fill:none" points="
  1470.27,1424.22 1470.27,48.4375 
  "/>
<polyline clip-path="url(#clip612)" style="stroke:#000000; stroke-linecap:round; stroke-linejoin:round; stroke-width:2; stroke-opacity:0.1; fill:none" points="
  1886.54,1424.22 1886.54,48.4375 
  "/>
<polyline clip-path="url(#clip612)" style="stroke:#000000; stroke-linecap:round; stroke-linejoin:round; stroke-width:2; stroke-opacity:0.1; fill:none" points="
  2302.8,1424.22 2302.8,48.4375 
  "/>
<polyline clip-path="url(#clip610)" style="stroke:#000000; stroke-linecap:round; stroke-linejoin:round; stroke-width:4; stroke-opacity:1; fill:none" points="
  587.793,1424.22 2352.76,1424.22 
  "/>
<polyline clip-path="url(#clip610)" style="stroke:#000000; stroke-linecap:round; stroke-linejoin:round; stroke-width:4; stroke-opacity:1; fill:none" points="
  637.744,1424.22 637.744,1403.12 
  "/>
<polyline clip-path="url(#clip610)" style="stroke:#000000; stroke-linecap:round; stroke-linejoin:round; stroke-width:4; stroke-opacity:1; fill:none" points="
  1054.01,1424.22 1054.01,1403.12 
  "/>
<polyline clip-path="url(#clip610)" style="stroke:#000000; stroke-linecap:round; stroke-linejoin:round; stroke-width:4; stroke-opacity:1; fill:none" points="
  1470.27,1424.22 1470.27,1403.12 
  "/>
<polyline clip-path="url(#clip610)" style="stroke:#000000; stroke-linecap:round; stroke-linejoin:round; stroke-width:4; stroke-opacity:1; fill:none" points="
  1886.54,1424.22 1886.54,1403.12 
  "/>
<polyline clip-path="url(#clip610)" style="stroke:#000000; stroke-linecap:round; stroke-linejoin:round; stroke-width:4; stroke-opacity:1; fill:none" points="
  2302.8,1424.22 2302.8,1403.12 
  "/>
<path clip-path="url(#clip610)" d="M637.744 1455.14 Q634.133 1455.14 632.305 1458.7 Q630.499 1462.24 630.499 1469.37 Q630.499 1476.48 632.305 1480.04 Q634.133 1483.59 637.744 1483.59 Q641.379 1483.59 643.184 1480.04 Q645.013 1476.48 645.013 1469.37 Q645.013 1462.24 643.184 1458.7 Q641.379 1455.14 637.744 1455.14 M637.744 1451.43 Q643.554 1451.43 646.61 1456.04 Q649.689 1460.62 649.689 1469.37 Q649.689 1478.1 646.61 1482.71 Q643.554 1487.29 637.744 1487.29 Q631.934 1487.29 628.855 1482.71 Q625.8 1478.1 625.8 1469.37 Q625.8 1460.62 628.855 1456.04 Q631.934 1451.43 637.744 1451.43 Z" fill="#000000" fill-rule="evenodd" fill-opacity="1" /><path clip-path="url(#clip610)" d="M1044.39 1482.68 L1052.03 1482.68 L1052.03 1456.32 L1043.72 1457.98 L1043.72 1453.73 L1051.98 1452.06 L1056.66 1452.06 L1056.66 1482.68 L1064.3 1482.68 L1064.3 1486.62 L1044.39 1486.62 L1044.39 1482.68 Z" fill="#000000" fill-rule="evenodd" fill-opacity="1" /><path clip-path="url(#clip610)" d="M1464.93 1482.68 L1481.25 1482.68 L1481.25 1486.62 L1459.3 1486.62 L1459.3 1482.68 Q1461.96 1479.93 1466.55 1475.3 Q1471.15 1470.65 1472.33 1469.3 Q1474.58 1466.78 1475.46 1465.04 Q1476.36 1463.29 1476.36 1461.6 Q1476.36 1458.84 1474.42 1457.11 Q1472.5 1455.37 1469.39 1455.37 Q1467.2 1455.37 1464.74 1456.13 Q1462.31 1456.9 1459.53 1458.45 L1459.53 1453.73 Q1462.36 1452.59 1464.81 1452.01 Q1467.26 1451.43 1469.3 1451.43 Q1474.67 1451.43 1477.87 1454.12 Q1481.06 1456.8 1481.06 1461.29 Q1481.06 1463.42 1480.25 1465.35 Q1479.46 1467.24 1477.36 1469.84 Q1476.78 1470.51 1473.68 1473.73 Q1470.58 1476.92 1464.93 1482.68 Z" fill="#000000" fill-rule="evenodd" fill-opacity="1" /><path clip-path="url(#clip610)" d="M1890.79 1467.98 Q1894.14 1468.7 1896.02 1470.97 Q1897.92 1473.24 1897.92 1476.57 Q1897.92 1481.69 1894.4 1484.49 Q1890.88 1487.29 1884.4 1487.29 Q1882.22 1487.29 1879.91 1486.85 Q1877.62 1486.43 1875.16 1485.58 L1875.16 1481.06 Q1877.11 1482.2 1879.42 1482.78 Q1881.74 1483.35 1884.26 1483.35 Q1888.66 1483.35 1890.95 1481.62 Q1893.26 1479.88 1893.26 1476.57 Q1893.26 1473.52 1891.11 1471.8 Q1888.98 1470.07 1885.16 1470.07 L1881.13 1470.07 L1881.13 1466.23 L1885.35 1466.23 Q1888.8 1466.23 1890.62 1464.86 Q1892.45 1463.47 1892.45 1460.88 Q1892.45 1458.22 1890.56 1456.8 Q1888.68 1455.37 1885.16 1455.37 Q1883.24 1455.37 1881.04 1455.79 Q1878.84 1456.2 1876.2 1457.08 L1876.2 1452.92 Q1878.87 1452.17 1881.18 1451.8 Q1883.52 1451.43 1885.58 1451.43 Q1890.9 1451.43 1894 1453.86 Q1897.11 1456.27 1897.11 1460.39 Q1897.11 1463.26 1895.46 1465.25 Q1893.82 1467.22 1890.79 1467.98 Z" fill="#000000" fill-rule="evenodd" fill-opacity="1" /><path clip-path="url(#clip610)" d="M2305.81 1456.13 L2294.01 1474.58 L2305.81 1474.58 L2305.81 1456.13 M2304.59 1452.06 L2310.47 1452.06 L2310.47 1474.58 L2315.4 1474.58 L2315.4 1478.47 L2310.47 1478.47 L2310.47 1486.62 L2305.81 1486.62 L2305.81 1478.47 L2290.21 1478.47 L2290.21 1473.96 L2304.59 1452.06 Z" fill="#000000" fill-rule="evenodd" fill-opacity="1" /><path clip-path="url(#clip610)" d="M1446.36 1532.4 L1452.21 1532.4 L1459.53 1560.21 L1466.82 1532.4 L1473.73 1532.4 L1481.05 1560.21 L1488.34 1532.4 L1494.19 1532.4 L1484.87 1568.04 L1477.96 1568.04 L1470.29 1538.83 L1462.59 1568.04 L1455.68 1568.04 L1446.36 1532.4 Z" fill="#000000" fill-rule="evenodd" fill-opacity="1" /><polyline clip-path="url(#clip612)" style="stroke:#000000; stroke-linecap:round; stroke-linejoin:round; stroke-width:2; stroke-opacity:0.1; fill:none" points="
  587.793,1255.47 2352.76,1255.47 
  "/>
<polyline clip-path="url(#clip612)" style="stroke:#000000; stroke-linecap:round; stroke-linejoin:round; stroke-width:2; stroke-opacity:0.1; fill:none" points="
  587.793,920.312 2352.76,920.312 
  "/>
<polyline clip-path="url(#clip612)" style="stroke:#000000; stroke-linecap:round; stroke-linejoin:round; stroke-width:2; stroke-opacity:0.1; fill:none" points="
  587.793,587.5 2352.76,587.5 
  "/>
<polyline clip-path="url(#clip612)" style="stroke:#000000; stroke-linecap:round; stroke-linejoin:round; stroke-width:2; stroke-opacity:0.1; fill:none" points="
  587.793,252.344 2352.76,252.344 
  "/>
<polyline clip-path="url(#clip610)" style="stroke:#000000; stroke-linecap:round; stroke-linejoin:round; stroke-width:4; stroke-opacity:1; fill:none" points="
  587.793,1424.22 587.793,48.4375 
  "/>
<polyline clip-path="url(#clip610)" style="stroke:#000000; stroke-linecap:round; stroke-linejoin:round; stroke-width:4; stroke-opacity:1; fill:none" points="
  587.793,1255.47 606.69,1255.47 
  "/>
<polyline clip-path="url(#clip610)" style="stroke:#000000; stroke-linecap:round; stroke-linejoin:round; stroke-width:4; stroke-opacity:1; fill:none" points="
  587.793,920.312 606.69,920.312 
  "/>
<polyline clip-path="url(#clip610)" style="stroke:#000000; stroke-linecap:round; stroke-linejoin:round; stroke-width:4; stroke-opacity:1; fill:none" points="
  587.793,587.5 606.69,587.5 
  "/>
<polyline clip-path="url(#clip610)" style="stroke:#000000; stroke-linecap:round; stroke-linejoin:round; stroke-width:4; stroke-opacity:1; fill:none" points="
  587.793,252.344 606.69,252.344 
  "/>
<path clip-path="url(#clip610)" d="M114.26 1262.37 L143.936 1262.37 L143.936 1266.3 L114.26 1266.3 L114.26 1262.37 Z" fill="#000000" fill-rule="evenodd" fill-opacity="1" /><path clip-path="url(#clip610)" d="M154.839 1275.26 L162.477 1275.26 L162.477 1248.9 L154.167 1250.56 L154.167 1246.3 L162.431 1244.64 L167.107 1244.64 L167.107 1275.26 L174.746 1275.26 L174.746 1279.2 L154.839 1279.2 L154.839 1275.26 Z" fill="#000000" fill-rule="evenodd" fill-opacity="1" /><path clip-path="url(#clip610)" d="M184.19 1273.32 L189.075 1273.32 L189.075 1279.2 L184.19 1279.2 L184.19 1273.32 Z" fill="#000000" fill-rule="evenodd" fill-opacity="1" /><path clip-path="url(#clip610)" d="M209.838 1260.05 Q206.69 1260.05 204.838 1262.21 Q203.01 1264.36 203.01 1268.11 Q203.01 1271.84 204.838 1274.01 Q206.69 1276.16 209.838 1276.16 Q212.986 1276.16 214.815 1274.01 Q216.667 1271.84 216.667 1268.11 Q216.667 1264.36 214.815 1262.21 Q212.986 1260.05 209.838 1260.05 M219.121 1245.4 L219.121 1249.66 Q217.361 1248.83 215.556 1248.39 Q213.774 1247.95 212.014 1247.95 Q207.385 1247.95 204.931 1251.07 Q202.5 1254.2 202.153 1260.52 Q203.519 1258.5 205.579 1257.44 Q207.639 1256.35 210.116 1256.35 Q215.324 1256.35 218.334 1259.52 Q221.366 1262.67 221.366 1268.11 Q221.366 1273.43 218.218 1276.65 Q215.07 1279.87 209.838 1279.87 Q203.843 1279.87 200.672 1275.28 Q197.5 1270.68 197.5 1261.95 Q197.5 1253.76 201.389 1248.9 Q205.278 1244.01 211.829 1244.01 Q213.588 1244.01 215.371 1244.36 Q217.176 1244.71 219.121 1245.4 Z" fill="#000000" fill-rule="evenodd" fill-opacity="1" /><path clip-path="url(#clip610)" d="M239.422 1247.72 Q235.81 1247.72 233.982 1251.28 Q232.176 1254.82 232.176 1261.95 Q232.176 1269.06 233.982 1272.62 Q235.81 1276.16 239.422 1276.16 Q243.056 1276.16 244.861 1272.62 Q246.69 1269.06 246.69 1261.95 Q246.69 1254.82 244.861 1251.28 Q243.056 1247.72 239.422 1247.72 M239.422 1244.01 Q245.232 1244.01 248.287 1248.62 Q251.366 1253.2 251.366 1261.95 Q251.366 1270.68 248.287 1275.28 Q245.232 1279.87 239.422 1279.87 Q233.611 1279.87 230.533 1275.28 Q227.477 1270.68 227.477 1261.95 Q227.477 1253.2 230.533 1248.62 Q233.611 1244.01 239.422 1244.01 Z" fill="#000000" fill-rule="evenodd" fill-opacity="1" /><path clip-path="url(#clip610)" d="M259.722 1278.48 L259.722 1274.22 Q261.482 1275.05 263.287 1275.49 Q265.093 1275.93 266.829 1275.93 Q271.458 1275.93 273.889 1272.83 Q276.343 1269.71 276.69 1263.36 Q275.347 1265.35 273.287 1266.42 Q271.227 1267.48 268.727 1267.48 Q263.542 1267.48 260.509 1264.36 Q257.5 1261.21 257.5 1255.77 Q257.5 1250.45 260.648 1247.23 Q263.796 1244.01 269.028 1244.01 Q275.023 1244.01 278.171 1248.62 Q281.343 1253.2 281.343 1261.95 Q281.343 1270.12 277.454 1275.01 Q273.588 1279.87 267.037 1279.87 Q265.278 1279.87 263.472 1279.52 Q261.667 1279.17 259.722 1278.48 M269.028 1263.83 Q272.176 1263.83 274.005 1261.67 Q275.857 1259.52 275.857 1255.77 Q275.857 1252.04 274.005 1249.89 Q272.176 1247.72 269.028 1247.72 Q265.88 1247.72 264.028 1249.89 Q262.199 1252.04 262.199 1255.77 Q262.199 1259.52 264.028 1261.67 Q265.88 1263.83 269.028 1263.83 Z" fill="#000000" fill-rule="evenodd" fill-opacity="1" /><path clip-path="url(#clip610)" d="M288.565 1244.64 L310.787 1244.64 L310.787 1246.63 L298.241 1279.2 L293.356 1279.2 L305.162 1248.57 L288.565 1248.57 L288.565 1244.64 Z" fill="#000000" fill-rule="evenodd" fill-opacity="1" /><path clip-path="url(#clip610)" d="M319.953 1244.64 L338.31 1244.64 L338.31 1248.57 L324.236 1248.57 L324.236 1257.04 Q325.254 1256.7 326.273 1256.53 Q327.291 1256.35 328.31 1256.35 Q334.097 1256.35 337.477 1259.52 Q340.856 1262.69 340.856 1268.11 Q340.856 1273.69 337.384 1276.79 Q333.912 1279.87 327.592 1279.87 Q325.416 1279.87 323.148 1279.5 Q320.903 1279.13 318.495 1278.39 L318.495 1273.69 Q320.578 1274.82 322.801 1275.38 Q325.023 1275.93 327.5 1275.93 Q331.504 1275.93 333.842 1273.83 Q336.18 1271.72 336.18 1268.11 Q336.18 1264.5 333.842 1262.39 Q331.504 1260.28 327.5 1260.28 Q325.625 1260.28 323.75 1260.7 Q321.898 1261.12 319.953 1262 L319.953 1244.64 Z" fill="#000000" fill-rule="evenodd" fill-opacity="1" /><path clip-path="url(#clip610)" d="M348.889 1244.64 L371.111 1244.64 L371.111 1246.63 L358.564 1279.2 L353.68 1279.2 L365.486 1248.57 L348.889 1248.57 L348.889 1244.64 Z" fill="#000000" fill-rule="evenodd" fill-opacity="1" /><path clip-path="url(#clip610)" d="M381.041 1275.26 L388.68 1275.26 L388.68 1248.9 L380.37 1250.56 L380.37 1246.3 L388.634 1244.64 L393.31 1244.64 L393.31 1275.26 L400.948 1275.26 L400.948 1279.2 L381.041 1279.2 L381.041 1275.26 Z" fill="#000000" fill-rule="evenodd" fill-opacity="1" /><path clip-path="url(#clip610)" d="M420.971 1260.05 Q417.823 1260.05 415.972 1262.21 Q414.143 1264.36 414.143 1268.11 Q414.143 1271.84 415.972 1274.01 Q417.823 1276.16 420.971 1276.16 Q424.12 1276.16 425.948 1274.01 Q427.8 1271.84 427.8 1268.11 Q427.8 1264.36 425.948 1262.21 Q424.12 1260.05 420.971 1260.05 M430.254 1245.4 L430.254 1249.66 Q428.495 1248.83 426.689 1248.39 Q424.907 1247.95 423.147 1247.95 Q418.518 1247.95 416.064 1251.07 Q413.634 1254.2 413.286 1260.52 Q414.652 1258.5 416.712 1257.44 Q418.772 1256.35 421.249 1256.35 Q426.458 1256.35 429.467 1259.52 Q432.499 1262.67 432.499 1268.11 Q432.499 1273.43 429.351 1276.65 Q426.203 1279.87 420.971 1279.87 Q414.976 1279.87 411.805 1275.28 Q408.634 1270.68 408.634 1261.95 Q408.634 1253.76 412.522 1248.9 Q416.411 1244.01 422.962 1244.01 Q424.721 1244.01 426.504 1244.36 Q428.309 1244.71 430.254 1245.4 Z" fill="#000000" fill-rule="evenodd" fill-opacity="1" /><path clip-path="url(#clip610)" d="M468.726 1253.73 L458.147 1264.36 L468.726 1274.94 L465.971 1277.74 L455.346 1267.11 L444.721 1277.74 L441.99 1274.94 L452.545 1264.36 L441.99 1253.73 L444.721 1250.93 L455.346 1261.56 L465.971 1250.93 L468.726 1253.73 Z" fill="#000000" fill-rule="evenodd" fill-opacity="1" /><path clip-path="url(#clip610)" d="M481.087 1275.26 L488.726 1275.26 L488.726 1248.9 L480.416 1250.56 L480.416 1246.3 L488.679 1244.64 L493.355 1244.64 L493.355 1275.26 L500.994 1275.26 L500.994 1279.2 L481.087 1279.2 L481.087 1275.26 Z" fill="#000000" fill-rule="evenodd" fill-opacity="1" /><path clip-path="url(#clip610)" d="M520.439 1247.72 Q516.827 1247.72 514.999 1251.28 Q513.193 1254.82 513.193 1261.95 Q513.193 1269.06 514.999 1272.62 Q516.827 1276.16 520.439 1276.16 Q524.073 1276.16 525.878 1272.62 Q527.707 1269.06 527.707 1261.95 Q527.707 1254.82 525.878 1251.28 Q524.073 1247.72 520.439 1247.72 M520.439 1244.01 Q526.249 1244.01 529.304 1248.62 Q532.383 1253.2 532.383 1261.95 Q532.383 1270.68 529.304 1275.28 Q526.249 1279.87 520.439 1279.87 Q514.628 1279.87 511.55 1275.28 Q508.494 1270.68 508.494 1261.95 Q508.494 1253.2 511.55 1248.62 Q514.628 1244.01 520.439 1244.01 Z" fill="#000000" fill-rule="evenodd" fill-opacity="1" /><path clip-path="url(#clip610)" d="M542.088 1226.21 Q539.154 1226.21 537.668 1229.1 Q536.201 1231.98 536.201 1237.77 Q536.201 1243.55 537.668 1246.44 Q539.154 1249.32 542.088 1249.32 Q545.041 1249.32 546.508 1246.44 Q547.993 1243.55 547.993 1237.77 Q547.993 1231.98 546.508 1229.1 Q545.041 1226.21 542.088 1226.21 M542.088 1223.2 Q546.808 1223.2 549.291 1226.94 Q551.793 1230.66 551.793 1237.77 Q551.793 1244.86 549.291 1248.61 Q546.808 1252.33 542.088 1252.33 Q537.367 1252.33 534.866 1248.61 Q532.383 1244.86 532.383 1237.77 Q532.383 1230.66 534.866 1226.94 Q537.367 1223.2 542.088 1223.2 Z" fill="#000000" fill-rule="evenodd" fill-opacity="1" /><path clip-path="url(#clip610)" d="M114.26 927.211 L143.936 927.211 L143.936 931.147 L114.26 931.147 L114.26 927.211 Z" fill="#000000" fill-rule="evenodd" fill-opacity="1" /><path clip-path="url(#clip610)" d="M154.839 940.105 L162.477 940.105 L162.477 913.739 L154.167 915.406 L154.167 911.147 L162.431 909.48 L167.107 909.48 L167.107 940.105 L174.746 940.105 L174.746 944.04 L154.839 944.04 L154.839 940.105 Z" fill="#000000" fill-rule="evenodd" fill-opacity="1" /><path clip-path="url(#clip610)" d="M184.19 938.161 L189.075 938.161 L189.075 944.04 L184.19 944.04 L184.19 938.161 Z" fill="#000000" fill-rule="evenodd" fill-opacity="1" /><path clip-path="url(#clip610)" d="M209.838 924.897 Q206.69 924.897 204.838 927.049 Q203.01 929.202 203.01 932.952 Q203.01 936.679 204.838 938.855 Q206.69 941.008 209.838 941.008 Q212.986 941.008 214.815 938.855 Q216.667 936.679 216.667 932.952 Q216.667 929.202 214.815 927.049 Q212.986 924.897 209.838 924.897 M219.121 910.244 L219.121 914.503 Q217.361 913.67 215.556 913.23 Q213.774 912.79 212.014 912.79 Q207.385 912.79 204.931 915.915 Q202.5 919.04 202.153 925.36 Q203.519 923.346 205.579 922.281 Q207.639 921.193 210.116 921.193 Q215.324 921.193 218.334 924.364 Q221.366 927.512 221.366 932.952 Q221.366 938.276 218.218 941.494 Q215.07 944.711 209.838 944.711 Q203.843 944.711 200.672 940.128 Q197.5 935.522 197.5 926.795 Q197.5 918.6 201.389 913.739 Q205.278 908.855 211.829 908.855 Q213.588 908.855 215.371 909.202 Q217.176 909.55 219.121 910.244 Z" fill="#000000" fill-rule="evenodd" fill-opacity="1" /><path clip-path="url(#clip610)" d="M239.422 912.559 Q235.81 912.559 233.982 916.124 Q232.176 919.665 232.176 926.795 Q232.176 933.901 233.982 937.466 Q235.81 941.008 239.422 941.008 Q243.056 941.008 244.861 937.466 Q246.69 933.901 246.69 926.795 Q246.69 919.665 244.861 916.124 Q243.056 912.559 239.422 912.559 M239.422 908.855 Q245.232 908.855 248.287 913.462 Q251.366 918.045 251.366 926.795 Q251.366 935.522 248.287 940.128 Q245.232 944.711 239.422 944.711 Q233.611 944.711 230.533 940.128 Q227.477 935.522 227.477 926.795 Q227.477 918.045 230.533 913.462 Q233.611 908.855 239.422 908.855 Z" fill="#000000" fill-rule="evenodd" fill-opacity="1" /><path clip-path="url(#clip610)" d="M259.722 943.323 L259.722 939.063 Q261.482 939.897 263.287 940.336 Q265.093 940.776 266.829 940.776 Q271.458 940.776 273.889 937.674 Q276.343 934.549 276.69 928.207 Q275.347 930.198 273.287 931.262 Q271.227 932.327 268.727 932.327 Q263.542 932.327 260.509 929.202 Q257.5 926.054 257.5 920.614 Q257.5 915.29 260.648 912.073 Q263.796 908.855 269.028 908.855 Q275.023 908.855 278.171 913.462 Q281.343 918.045 281.343 926.795 Q281.343 934.966 277.454 939.85 Q273.588 944.711 267.037 944.711 Q265.278 944.711 263.472 944.364 Q261.667 944.017 259.722 943.323 M269.028 928.67 Q272.176 928.67 274.005 926.517 Q275.857 924.364 275.857 920.614 Q275.857 916.887 274.005 914.735 Q272.176 912.559 269.028 912.559 Q265.88 912.559 264.028 914.735 Q262.199 916.887 262.199 920.614 Q262.199 924.364 264.028 926.517 Q265.88 928.67 269.028 928.67 Z" fill="#000000" fill-rule="evenodd" fill-opacity="1" /><path clip-path="url(#clip610)" d="M288.565 909.48 L310.787 909.48 L310.787 911.471 L298.241 944.04 L293.356 944.04 L305.162 913.415 L288.565 913.415 L288.565 909.48 Z" fill="#000000" fill-rule="evenodd" fill-opacity="1" /><path clip-path="url(#clip610)" d="M319.953 909.48 L338.31 909.48 L338.31 913.415 L324.236 913.415 L324.236 921.887 Q325.254 921.54 326.273 921.378 Q327.291 921.193 328.31 921.193 Q334.097 921.193 337.477 924.364 Q340.856 927.536 340.856 932.952 Q340.856 938.531 337.384 941.633 Q333.912 944.711 327.592 944.711 Q325.416 944.711 323.148 944.341 Q320.903 943.971 318.495 943.23 L318.495 938.531 Q320.578 939.665 322.801 940.221 Q325.023 940.776 327.5 940.776 Q331.504 940.776 333.842 938.67 Q336.18 936.563 336.18 932.952 Q336.18 929.341 333.842 927.235 Q331.504 925.128 327.5 925.128 Q325.625 925.128 323.75 925.545 Q321.898 925.961 319.953 926.841 L319.953 909.48 Z" fill="#000000" fill-rule="evenodd" fill-opacity="1" /><path clip-path="url(#clip610)" d="M348.889 909.48 L371.111 909.48 L371.111 911.471 L358.564 944.04 L353.68 944.04 L365.486 913.415 L348.889 913.415 L348.889 909.48 Z" fill="#000000" fill-rule="evenodd" fill-opacity="1" /><path clip-path="url(#clip610)" d="M381.041 940.105 L388.68 940.105 L388.68 913.739 L380.37 915.406 L380.37 911.147 L388.634 909.48 L393.31 909.48 L393.31 940.105 L400.948 940.105 L400.948 944.04 L381.041 944.04 L381.041 940.105 Z" fill="#000000" fill-rule="evenodd" fill-opacity="1" /><path clip-path="url(#clip610)" d="M420.971 924.897 Q417.823 924.897 415.972 927.049 Q414.143 929.202 414.143 932.952 Q414.143 936.679 415.972 938.855 Q417.823 941.008 420.971 941.008 Q424.12 941.008 425.948 938.855 Q427.8 936.679 427.8 932.952 Q427.8 929.202 425.948 927.049 Q424.12 924.897 420.971 924.897 M430.254 910.244 L430.254 914.503 Q428.495 913.67 426.689 913.23 Q424.907 912.79 423.147 912.79 Q418.518 912.79 416.064 915.915 Q413.634 919.04 413.286 925.36 Q414.652 923.346 416.712 922.281 Q418.772 921.193 421.249 921.193 Q426.458 921.193 429.467 924.364 Q432.499 927.512 432.499 932.952 Q432.499 938.276 429.351 941.494 Q426.203 944.711 420.971 944.711 Q414.976 944.711 411.805 940.128 Q408.634 935.522 408.634 926.795 Q408.634 918.6 412.522 913.739 Q416.411 908.855 422.962 908.855 Q424.721 908.855 426.504 909.202 Q428.309 909.55 430.254 910.244 Z" fill="#000000" fill-rule="evenodd" fill-opacity="1" /><path clip-path="url(#clip610)" d="M468.726 918.577 L458.147 929.202 L468.726 939.781 L465.971 942.582 L455.346 931.957 L444.721 942.582 L441.99 939.781 L452.545 929.202 L441.99 918.577 L444.721 915.776 L455.346 926.401 L465.971 915.776 L468.726 918.577 Z" fill="#000000" fill-rule="evenodd" fill-opacity="1" /><path clip-path="url(#clip610)" d="M481.087 940.105 L488.726 940.105 L488.726 913.739 L480.416 915.406 L480.416 911.147 L488.679 909.48 L493.355 909.48 L493.355 940.105 L500.994 940.105 L500.994 944.04 L481.087 944.04 L481.087 940.105 Z" fill="#000000" fill-rule="evenodd" fill-opacity="1" /><path clip-path="url(#clip610)" d="M520.439 912.559 Q516.827 912.559 514.999 916.124 Q513.193 919.665 513.193 926.795 Q513.193 933.901 514.999 937.466 Q516.827 941.008 520.439 941.008 Q524.073 941.008 525.878 937.466 Q527.707 933.901 527.707 926.795 Q527.707 919.665 525.878 916.124 Q524.073 912.559 520.439 912.559 M520.439 908.855 Q526.249 908.855 529.304 913.462 Q532.383 918.045 532.383 926.795 Q532.383 935.522 529.304 940.128 Q526.249 944.711 520.439 944.711 Q514.628 944.711 511.55 940.128 Q508.494 935.522 508.494 926.795 Q508.494 918.045 511.55 913.462 Q514.628 908.855 520.439 908.855 Z" fill="#000000" fill-rule="evenodd" fill-opacity="1" /><path clip-path="url(#clip610)" d="M542.088 891.051 Q539.154 891.051 537.668 893.948 Q536.201 896.825 536.201 902.618 Q536.201 908.392 537.668 911.288 Q539.154 914.166 542.088 914.166 Q545.041 914.166 546.508 911.288 Q547.993 908.392 547.993 902.618 Q547.993 896.825 546.508 893.948 Q545.041 891.051 542.088 891.051 M542.088 888.042 Q546.808 888.042 549.291 891.785 Q551.793 895.509 551.793 902.618 Q551.793 909.708 549.291 913.451 Q546.808 917.175 542.088 917.175 Q537.367 917.175 534.866 913.451 Q532.383 909.708 532.383 902.618 Q532.383 895.509 534.866 891.785 Q537.367 888.042 542.088 888.042 Z" fill="#000000" fill-rule="evenodd" fill-opacity="1" /><path clip-path="url(#clip610)" d="M114.26 594.399 L143.936 594.399 L143.936 598.334 L114.26 598.334 L114.26 594.399 Z" fill="#000000" fill-rule="evenodd" fill-opacity="1" /><path clip-path="url(#clip610)" d="M154.839 607.292 L162.477 607.292 L162.477 580.927 L154.167 582.593 L154.167 578.334 L162.431 576.668 L167.107 576.668 L167.107 607.292 L174.746 607.292 L174.746 611.228 L154.839 611.228 L154.839 607.292 Z" fill="#000000" fill-rule="evenodd" fill-opacity="1" /><path clip-path="url(#clip610)" d="M184.19 605.348 L189.075 605.348 L189.075 611.228 L184.19 611.228 L184.19 605.348 Z" fill="#000000" fill-rule="evenodd" fill-opacity="1" /><path clip-path="url(#clip610)" d="M209.838 592.084 Q206.69 592.084 204.838 594.237 Q203.01 596.39 203.01 600.14 Q203.01 603.867 204.838 606.042 Q206.69 608.195 209.838 608.195 Q212.986 608.195 214.815 606.042 Q216.667 603.867 216.667 600.14 Q216.667 596.39 214.815 594.237 Q212.986 592.084 209.838 592.084 M219.121 577.431 L219.121 581.691 Q217.361 580.857 215.556 580.418 Q213.774 579.978 212.014 579.978 Q207.385 579.978 204.931 583.103 Q202.5 586.228 202.153 592.547 Q203.519 590.533 205.579 589.468 Q207.639 588.381 210.116 588.381 Q215.324 588.381 218.334 591.552 Q221.366 594.7 221.366 600.14 Q221.366 605.464 218.218 608.681 Q215.07 611.899 209.838 611.899 Q203.843 611.899 200.672 607.316 Q197.5 602.709 197.5 593.982 Q197.5 585.788 201.389 580.927 Q205.278 576.043 211.829 576.043 Q213.588 576.043 215.371 576.39 Q217.176 576.737 219.121 577.431 Z" fill="#000000" fill-rule="evenodd" fill-opacity="1" /><path clip-path="url(#clip610)" d="M239.422 579.746 Q235.81 579.746 233.982 583.311 Q232.176 586.853 232.176 593.982 Q232.176 601.089 233.982 604.654 Q235.81 608.195 239.422 608.195 Q243.056 608.195 244.861 604.654 Q246.69 601.089 246.69 593.982 Q246.69 586.853 244.861 583.311 Q243.056 579.746 239.422 579.746 M239.422 576.043 Q245.232 576.043 248.287 580.649 Q251.366 585.232 251.366 593.982 Q251.366 602.709 248.287 607.316 Q245.232 611.899 239.422 611.899 Q233.611 611.899 230.533 607.316 Q227.477 602.709 227.477 593.982 Q227.477 585.232 230.533 580.649 Q233.611 576.043 239.422 576.043 Z" fill="#000000" fill-rule="evenodd" fill-opacity="1" /><path clip-path="url(#clip610)" d="M259.722 610.51 L259.722 606.251 Q261.482 607.084 263.287 607.524 Q265.093 607.964 266.829 607.964 Q271.458 607.964 273.889 604.862 Q276.343 601.737 276.69 595.394 Q275.347 597.385 273.287 598.45 Q271.227 599.515 268.727 599.515 Q263.542 599.515 260.509 596.39 Q257.5 593.242 257.5 587.802 Q257.5 582.478 260.648 579.26 Q263.796 576.043 269.028 576.043 Q275.023 576.043 278.171 580.649 Q281.343 585.232 281.343 593.982 Q281.343 602.154 277.454 607.038 Q273.588 611.899 267.037 611.899 Q265.278 611.899 263.472 611.552 Q261.667 611.204 259.722 610.51 M269.028 595.857 Q272.176 595.857 274.005 593.705 Q275.857 591.552 275.857 587.802 Q275.857 584.075 274.005 581.922 Q272.176 579.746 269.028 579.746 Q265.88 579.746 264.028 581.922 Q262.199 584.075 262.199 587.802 Q262.199 591.552 264.028 593.705 Q265.88 595.857 269.028 595.857 Z" fill="#000000" fill-rule="evenodd" fill-opacity="1" /><path clip-path="url(#clip610)" d="M288.565 576.668 L310.787 576.668 L310.787 578.658 L298.241 611.228 L293.356 611.228 L305.162 580.603 L288.565 580.603 L288.565 576.668 Z" fill="#000000" fill-rule="evenodd" fill-opacity="1" /><path clip-path="url(#clip610)" d="M319.953 576.668 L338.31 576.668 L338.31 580.603 L324.236 580.603 L324.236 589.075 Q325.254 588.728 326.273 588.566 Q327.291 588.381 328.31 588.381 Q334.097 588.381 337.477 591.552 Q340.856 594.723 340.856 600.14 Q340.856 605.718 337.384 608.82 Q333.912 611.899 327.592 611.899 Q325.416 611.899 323.148 611.529 Q320.903 611.158 318.495 610.417 L318.495 605.718 Q320.578 606.853 322.801 607.408 Q325.023 607.964 327.5 607.964 Q331.504 607.964 333.842 605.857 Q336.18 603.751 336.18 600.14 Q336.18 596.529 333.842 594.422 Q331.504 592.316 327.5 592.316 Q325.625 592.316 323.75 592.732 Q321.898 593.149 319.953 594.029 L319.953 576.668 Z" fill="#000000" fill-rule="evenodd" fill-opacity="1" /><path clip-path="url(#clip610)" d="M348.889 576.668 L371.111 576.668 L371.111 578.658 L358.564 611.228 L353.68 611.228 L365.486 580.603 L348.889 580.603 L348.889 576.668 Z" fill="#000000" fill-rule="evenodd" fill-opacity="1" /><path clip-path="url(#clip610)" d="M381.041 607.292 L388.68 607.292 L388.68 580.927 L380.37 582.593 L380.37 578.334 L388.634 576.668 L393.31 576.668 L393.31 607.292 L400.948 607.292 L400.948 611.228 L381.041 611.228 L381.041 607.292 Z" fill="#000000" fill-rule="evenodd" fill-opacity="1" /><path clip-path="url(#clip610)" d="M420.971 592.084 Q417.823 592.084 415.972 594.237 Q414.143 596.39 414.143 600.14 Q414.143 603.867 415.972 606.042 Q417.823 608.195 420.971 608.195 Q424.12 608.195 425.948 606.042 Q427.8 603.867 427.8 600.14 Q427.8 596.39 425.948 594.237 Q424.12 592.084 420.971 592.084 M430.254 577.431 L430.254 581.691 Q428.495 580.857 426.689 580.418 Q424.907 579.978 423.147 579.978 Q418.518 579.978 416.064 583.103 Q413.634 586.228 413.286 592.547 Q414.652 590.533 416.712 589.468 Q418.772 588.381 421.249 588.381 Q426.458 588.381 429.467 591.552 Q432.499 594.7 432.499 600.14 Q432.499 605.464 429.351 608.681 Q426.203 611.899 420.971 611.899 Q414.976 611.899 411.805 607.316 Q408.634 602.709 408.634 593.982 Q408.634 585.788 412.522 580.927 Q416.411 576.043 422.962 576.043 Q424.721 576.043 426.504 576.39 Q428.309 576.737 430.254 577.431 Z" fill="#000000" fill-rule="evenodd" fill-opacity="1" /><path clip-path="url(#clip610)" d="M468.726 585.765 L458.147 596.39 L468.726 606.968 L465.971 609.769 L455.346 599.144 L444.721 609.769 L441.99 606.968 L452.545 596.39 L441.99 585.765 L444.721 582.964 L455.346 593.589 L465.971 582.964 L468.726 585.765 Z" fill="#000000" fill-rule="evenodd" fill-opacity="1" /><path clip-path="url(#clip610)" d="M481.087 607.292 L488.726 607.292 L488.726 580.927 L480.416 582.593 L480.416 578.334 L488.679 576.668 L493.355 576.668 L493.355 607.292 L500.994 607.292 L500.994 611.228 L481.087 611.228 L481.087 607.292 Z" fill="#000000" fill-rule="evenodd" fill-opacity="1" /><path clip-path="url(#clip610)" d="M520.439 579.746 Q516.827 579.746 514.999 583.311 Q513.193 586.853 513.193 593.982 Q513.193 601.089 514.999 604.654 Q516.827 608.195 520.439 608.195 Q524.073 608.195 525.878 604.654 Q527.707 601.089 527.707 593.982 Q527.707 586.853 525.878 583.311 Q524.073 579.746 520.439 579.746 M520.439 576.043 Q526.249 576.043 529.304 580.649 Q532.383 585.232 532.383 593.982 Q532.383 602.709 529.304 607.316 Q526.249 611.899 520.439 611.899 Q514.628 611.899 511.55 607.316 Q508.494 602.709 508.494 593.982 Q508.494 585.232 511.55 580.649 Q514.628 576.043 520.439 576.043 Z" fill="#000000" fill-rule="evenodd" fill-opacity="1" /><path clip-path="url(#clip610)" d="M542.088 558.239 Q539.154 558.239 537.668 561.135 Q536.201 564.013 536.201 569.805 Q536.201 575.579 537.668 578.476 Q539.154 581.353 542.088 581.353 Q545.041 581.353 546.508 578.476 Q547.993 575.579 547.993 569.805 Q547.993 564.013 546.508 561.135 Q545.041 558.239 542.088 558.239 M542.088 555.229 Q546.808 555.229 549.291 558.972 Q551.793 562.696 551.793 569.805 Q551.793 576.896 549.291 580.639 Q546.808 584.363 542.088 584.363 Q537.367 584.363 534.866 580.639 Q532.383 576.896 532.383 569.805 Q532.383 562.696 534.866 558.972 Q537.367 555.229 542.088 555.229 Z" fill="#000000" fill-rule="evenodd" fill-opacity="1" /><path clip-path="url(#clip610)" d="M114.26 259.243 L143.936 259.243 L143.936 263.178 L114.26 263.178 L114.26 259.243 Z" fill="#000000" fill-rule="evenodd" fill-opacity="1" /><path clip-path="url(#clip610)" d="M154.839 272.136 L162.477 272.136 L162.477 245.771 L154.167 247.437 L154.167 243.178 L162.431 241.511 L167.107 241.511 L167.107 272.136 L174.746 272.136 L174.746 276.071 L154.839 276.071 L154.839 272.136 Z" fill="#000000" fill-rule="evenodd" fill-opacity="1" /><path clip-path="url(#clip610)" d="M184.19 270.192 L189.075 270.192 L189.075 276.071 L184.19 276.071 L184.19 270.192 Z" fill="#000000" fill-rule="evenodd" fill-opacity="1" /><path clip-path="url(#clip610)" d="M209.838 256.928 Q206.69 256.928 204.838 259.081 Q203.01 261.233 203.01 264.983 Q203.01 268.71 204.838 270.886 Q206.69 273.039 209.838 273.039 Q212.986 273.039 214.815 270.886 Q216.667 268.71 216.667 264.983 Q216.667 261.233 214.815 259.081 Q212.986 256.928 209.838 256.928 M219.121 242.275 L219.121 246.534 Q217.361 245.701 215.556 245.261 Q213.774 244.822 212.014 244.822 Q207.385 244.822 204.931 247.947 Q202.5 251.071 202.153 257.391 Q203.519 255.377 205.579 254.312 Q207.639 253.224 210.116 253.224 Q215.324 253.224 218.334 256.396 Q221.366 259.544 221.366 264.983 Q221.366 270.307 218.218 273.525 Q215.07 276.743 209.838 276.743 Q203.843 276.743 200.672 272.159 Q197.5 267.553 197.5 258.826 Q197.5 250.632 201.389 245.771 Q205.278 240.886 211.829 240.886 Q213.588 240.886 215.371 241.234 Q217.176 241.581 219.121 242.275 Z" fill="#000000" fill-rule="evenodd" fill-opacity="1" /><path clip-path="url(#clip610)" d="M239.422 244.59 Q235.81 244.59 233.982 248.155 Q232.176 251.696 232.176 258.826 Q232.176 265.933 233.982 269.497 Q235.81 273.039 239.422 273.039 Q243.056 273.039 244.861 269.497 Q246.69 265.933 246.69 258.826 Q246.69 251.696 244.861 248.155 Q243.056 244.59 239.422 244.59 M239.422 240.886 Q245.232 240.886 248.287 245.493 Q251.366 250.076 251.366 258.826 Q251.366 267.553 248.287 272.159 Q245.232 276.743 239.422 276.743 Q233.611 276.743 230.533 272.159 Q227.477 267.553 227.477 258.826 Q227.477 250.076 230.533 245.493 Q233.611 240.886 239.422 240.886 Z" fill="#000000" fill-rule="evenodd" fill-opacity="1" /><path clip-path="url(#clip610)" d="M259.722 275.354 L259.722 271.095 Q261.482 271.928 263.287 272.368 Q265.093 272.807 266.829 272.807 Q271.458 272.807 273.889 269.706 Q276.343 266.581 276.69 260.238 Q275.347 262.229 273.287 263.294 Q271.227 264.358 268.727 264.358 Q263.542 264.358 260.509 261.233 Q257.5 258.085 257.5 252.646 Q257.5 247.322 260.648 244.104 Q263.796 240.886 269.028 240.886 Q275.023 240.886 278.171 245.493 Q281.343 250.076 281.343 258.826 Q281.343 266.997 277.454 271.882 Q273.588 276.743 267.037 276.743 Q265.278 276.743 263.472 276.395 Q261.667 276.048 259.722 275.354 M269.028 260.701 Q272.176 260.701 274.005 258.548 Q275.857 256.396 275.857 252.646 Q275.857 248.919 274.005 246.766 Q272.176 244.59 269.028 244.59 Q265.88 244.59 264.028 246.766 Q262.199 248.919 262.199 252.646 Q262.199 256.396 264.028 258.548 Q265.88 260.701 269.028 260.701 Z" fill="#000000" fill-rule="evenodd" fill-opacity="1" /><path clip-path="url(#clip610)" d="M288.565 241.511 L310.787 241.511 L310.787 243.502 L298.241 276.071 L293.356 276.071 L305.162 245.447 L288.565 245.447 L288.565 241.511 Z" fill="#000000" fill-rule="evenodd" fill-opacity="1" /><path clip-path="url(#clip610)" d="M319.953 241.511 L338.31 241.511 L338.31 245.447 L324.236 245.447 L324.236 253.919 Q325.254 253.571 326.273 253.409 Q327.291 253.224 328.31 253.224 Q334.097 253.224 337.477 256.396 Q340.856 259.567 340.856 264.983 Q340.856 270.562 337.384 273.664 Q333.912 276.743 327.592 276.743 Q325.416 276.743 323.148 276.372 Q320.903 276.002 318.495 275.261 L318.495 270.562 Q320.578 271.696 322.801 272.252 Q325.023 272.807 327.5 272.807 Q331.504 272.807 333.842 270.701 Q336.18 268.595 336.18 264.983 Q336.18 261.372 333.842 259.266 Q331.504 257.159 327.5 257.159 Q325.625 257.159 323.75 257.576 Q321.898 257.993 319.953 258.872 L319.953 241.511 Z" fill="#000000" fill-rule="evenodd" fill-opacity="1" /><path clip-path="url(#clip610)" d="M348.889 241.511 L371.111 241.511 L371.111 243.502 L358.564 276.071 L353.68 276.071 L365.486 245.447 L348.889 245.447 L348.889 241.511 Z" fill="#000000" fill-rule="evenodd" fill-opacity="1" /><path clip-path="url(#clip610)" d="M381.041 272.136 L388.68 272.136 L388.68 245.771 L380.37 247.437 L380.37 243.178 L388.634 241.511 L393.31 241.511 L393.31 272.136 L400.948 272.136 L400.948 276.071 L381.041 276.071 L381.041 272.136 Z" fill="#000000" fill-rule="evenodd" fill-opacity="1" /><path clip-path="url(#clip610)" d="M420.971 256.928 Q417.823 256.928 415.972 259.081 Q414.143 261.233 414.143 264.983 Q414.143 268.71 415.972 270.886 Q417.823 273.039 420.971 273.039 Q424.12 273.039 425.948 270.886 Q427.8 268.71 427.8 264.983 Q427.8 261.233 425.948 259.081 Q424.12 256.928 420.971 256.928 M430.254 242.275 L430.254 246.534 Q428.495 245.701 426.689 245.261 Q424.907 244.822 423.147 244.822 Q418.518 244.822 416.064 247.947 Q413.634 251.071 413.286 257.391 Q414.652 255.377 416.712 254.312 Q418.772 253.224 421.249 253.224 Q426.458 253.224 429.467 256.396 Q432.499 259.544 432.499 264.983 Q432.499 270.307 429.351 273.525 Q426.203 276.743 420.971 276.743 Q414.976 276.743 411.805 272.159 Q408.634 267.553 408.634 258.826 Q408.634 250.632 412.522 245.771 Q416.411 240.886 422.962 240.886 Q424.721 240.886 426.504 241.234 Q428.309 241.581 430.254 242.275 Z" fill="#000000" fill-rule="evenodd" fill-opacity="1" /><path clip-path="url(#clip610)" d="M468.726 250.609 L458.147 261.233 L468.726 271.812 L465.971 274.613 L455.346 263.988 L444.721 274.613 L441.99 271.812 L452.545 261.233 L441.99 250.609 L444.721 247.808 L455.346 258.433 L465.971 247.808 L468.726 250.609 Z" fill="#000000" fill-rule="evenodd" fill-opacity="1" /><path clip-path="url(#clip610)" d="M481.087 272.136 L488.726 272.136 L488.726 245.771 L480.416 247.437 L480.416 243.178 L488.679 241.511 L493.355 241.511 L493.355 272.136 L500.994 272.136 L500.994 276.071 L481.087 276.071 L481.087 272.136 Z" fill="#000000" fill-rule="evenodd" fill-opacity="1" /><path clip-path="url(#clip610)" d="M520.439 244.59 Q516.827 244.59 514.999 248.155 Q513.193 251.696 513.193 258.826 Q513.193 265.933 514.999 269.497 Q516.827 273.039 520.439 273.039 Q524.073 273.039 525.878 269.497 Q527.707 265.933 527.707 258.826 Q527.707 251.696 525.878 248.155 Q524.073 244.59 520.439 244.59 M520.439 240.886 Q526.249 240.886 529.304 245.493 Q532.383 250.076 532.383 258.826 Q532.383 267.553 529.304 272.159 Q526.249 276.743 520.439 276.743 Q514.628 276.743 511.55 272.159 Q508.494 267.553 508.494 258.826 Q508.494 250.076 511.55 245.493 Q514.628 240.886 520.439 240.886 Z" fill="#000000" fill-rule="evenodd" fill-opacity="1" /><path clip-path="url(#clip610)" d="M542.088 223.082 Q539.154 223.082 537.668 225.979 Q536.201 228.856 536.201 234.649 Q536.201 240.423 537.668 243.32 Q539.154 246.197 542.088 246.197 Q545.041 246.197 546.508 243.32 Q547.993 240.423 547.993 234.649 Q547.993 228.856 546.508 225.979 Q545.041 223.082 542.088 223.082 M542.088 220.073 Q546.808 220.073 549.291 223.816 Q551.793 227.54 551.793 234.649 Q551.793 241.74 549.291 245.482 Q546.808 249.206 542.088 249.206 Q537.367 249.206 534.866 245.482 Q532.383 241.74 532.383 234.649 Q532.383 227.54 534.866 223.816 Q537.367 220.073 542.088 220.073 Z" fill="#000000" fill-rule="evenodd" fill-opacity="1" /><path clip-path="url(#clip610)" d="M44.7161 779.279 L47.5806 779.279 L47.5806 806.206 Q53.6281 805.824 56.8109 802.577 Q59.9619 799.299 59.9619 793.474 Q59.9619 790.1 59.1344 786.949 Q58.3069 783.766 56.6518 780.647 L62.1899 780.647 Q63.5267 783.798 64.227 787.108 Q64.9272 790.419 64.9272 793.824 Q64.9272 802.354 59.9619 807.351 Q54.9967 812.317 46.5303 812.317 Q37.7774 812.317 32.6531 807.606 Q27.4968 802.864 27.4968 794.843 Q27.4968 787.649 32.1438 783.48 Q36.7589 779.279 44.7161 779.279 M42.9973 785.135 Q38.1912 785.199 35.3266 787.84 Q32.4621 790.45 32.4621 794.779 Q32.4621 799.681 35.2312 802.641 Q38.0002 805.569 43.0292 806.015 L42.9973 785.135 Z" fill="#000000" fill-rule="evenodd" fill-opacity="1" /><path clip-path="url(#clip610)" d="M33.8307 749.01 Q33.2578 749.996 33.0032 751.174 Q32.7167 752.32 32.7167 753.72 Q32.7167 758.686 35.9632 761.359 Q39.1779 764.001 45.2253 764.001 L64.0042 764.001 L64.0042 769.889 L28.3562 769.889 L28.3562 764.001 L33.8944 764.001 Q30.6479 762.155 29.0883 759.195 Q27.4968 756.235 27.4968 752.002 Q27.4968 751.397 27.5923 750.665 Q27.656 749.933 27.8151 749.041 L33.8307 749.01 Z" fill="#000000" fill-rule="evenodd" fill-opacity="1" /><path clip-path="url(#clip610)" d="M33.8307 723.356 Q33.2578 724.343 33.0032 725.52 Q32.7167 726.666 32.7167 728.066 Q32.7167 733.032 35.9632 735.705 Q39.1779 738.347 45.2253 738.347 L64.0042 738.347 L64.0042 744.235 L28.3562 744.235 L28.3562 738.347 L33.8944 738.347 Q30.6479 736.501 29.0883 733.541 Q27.4968 730.581 27.4968 726.348 Q27.4968 725.743 27.5923 725.011 Q27.656 724.279 27.8151 723.388 L33.8307 723.356 Z" fill="#000000" fill-rule="evenodd" fill-opacity="1" /><path clip-path="url(#clip610)" d="M32.4621 704.832 Q32.4621 709.542 36.1542 712.28 Q39.8145 715.017 46.212 715.017 Q52.6095 715.017 56.3017 712.311 Q59.9619 709.574 59.9619 704.832 Q59.9619 700.153 56.2698 697.416 Q52.5777 694.678 46.212 694.678 Q39.8781 694.678 36.186 697.416 Q32.4621 700.153 32.4621 704.832 M27.4968 704.832 Q27.4968 697.193 32.4621 692.832 Q37.4273 688.472 46.212 688.472 Q54.9649 688.472 59.9619 692.832 Q64.9272 697.193 64.9272 704.832 Q64.9272 712.502 59.9619 716.863 Q54.9649 721.191 46.212 721.191 Q37.4273 721.191 32.4621 716.863 Q27.4968 712.502 27.4968 704.832 Z" fill="#000000" fill-rule="evenodd" fill-opacity="1" /><path clip-path="url(#clip610)" d="M33.8307 658.107 Q33.2578 659.094 33.0032 660.272 Q32.7167 661.418 32.7167 662.818 Q32.7167 667.783 35.9632 670.457 Q39.1779 673.099 45.2253 673.099 L64.0042 673.099 L64.0042 678.987 L28.3562 678.987 L28.3562 673.099 L33.8944 673.099 Q30.6479 671.253 29.0883 668.292 Q27.4968 665.332 27.4968 661.099 Q27.4968 660.494 27.5923 659.762 Q27.656 659.03 27.8151 658.139 L33.8307 658.107 Z" fill="#000000" fill-rule="evenodd" fill-opacity="1" /><polyline clip-path="url(#clip612)" style="stroke:#009af9; stroke-linecap:round; stroke-linejoin:round; stroke-width:4; stroke-opacity:1; fill:none" points="
  637.744,1192.19 641.907,491.406 646.07,767.969 650.232,1112.5 654.395,960.156 658.558,688.281 662.72,798.438 666.883,690.625 671.046,428.125 675.208,580.469 
  679.371,601.562 683.533,814.844 687.696,510.156 691.859,1316.41 696.021,275.781 700.184,756.25 704.347,735.156 708.509,1133.59 712.672,1290.62 716.835,887.5 
  720.997,866.406 725.16,831.25 729.323,507.812 733.485,589.844 737.648,500.781 741.811,777.344 745.973,282.812 750.136,282.812 754.299,400 758.461,681.25 
  762.624,1037.5 766.786,892.188 770.949,477.344 775.112,552.344 779.274,859.375 783.437,542.969 787.6,899.219 791.762,1274.22 795.925,758.594 800.088,714.062 
  804.25,383.594 808.413,385.938 812.576,622.656 816.738,920.312 820.901,592.188 825.064,1023.44 829.226,648.438 833.389,1002.34 837.552,1292.97 841.714,378.906 
  845.877,371.875 850.039,746.875 854.202,936.719 858.365,1192.19 862.527,702.344 866.69,554.688 870.853,875.781 875.015,317.969 879.178,367.188 883.341,746.875 
  887.503,667.188 891.666,910.938 895.829,707.031 899.991,491.406 904.154,915.625 908.317,411.719 912.479,528.906 916.642,1138.28 920.804,751.562 924.967,620.312 
  929.13,915.625 933.292,296.875 937.455,625 941.618,531.25 945.78,697.656 949.943,617.969 954.106,709.375 958.268,655.469 962.431,744.531 966.594,510.156 
  970.756,767.969 974.919,910.938 979.082,800.781 983.244,632.031 987.407,852.344 991.57,871.094 995.732,824.219 999.895,697.656 1004.06,535.938 1008.22,343.75 
  1012.38,700 1016.55,767.969 1020.71,484.375 1024.87,669.531 1029.03,688.281 1033.2,664.844 1037.36,606.25 1041.52,653.125 1045.68,489.062 1049.85,739.844 
  1054.01,730.469 1058.17,803.125 1062.33,803.125 1066.5,805.469 1070.66,606.25 1074.82,404.688 1078.99,732.812 1083.15,875.781 1087.31,782.031 1091.47,648.438 
  1095.64,709.375 1099.8,472.656 1103.96,723.438 1108.12,882.812 1112.29,287.5 1116.45,625 1120.61,550 1124.77,718.75 1128.94,517.188 1133.1,910.938 
  1137.26,721.094 1141.42,416.406 1145.59,718.75 1149.75,613.281 1153.91,894.531 1158.08,528.906 1162.24,641.406 1166.4,613.281 1170.56,847.656 1174.73,367.188 
  1178.89,636.719 1183.05,521.875 1187.21,594.531 1191.38,655.469 1195.54,749.219 1199.7,777.344 1203.86,742.188 1208.03,700 1212.19,641.406 1216.35,765.625 
  1220.52,744.531 1224.68,467.969 1228.84,646.094 1233,582.812 1237.17,697.656 1241.33,674.219 1245.49,622.656 1249.65,695.312 1253.82,751.562 1257.98,758.594 
  1262.14,669.531 1266.3,639.062 1270.47,585.156 1274.63,721.094 1278.79,718.75 1282.95,625 1287.12,779.688 1291.28,608.594 1295.44,613.281 1299.61,690.625 
  1303.77,636.719 1307.93,685.938 1312.09,721.094 1316.26,707.031 1320.42,683.594 1324.58,744.531 1328.74,662.5 1332.91,664.844 1337.07,678.906 1341.23,714.062 
  1345.39,620.312 1349.56,721.094 1353.72,648.438 1357.88,711.719 1362.05,606.25 1366.21,723.438 1370.37,704.688 1374.53,725.781 1378.7,653.125 1382.86,744.531 
  1387.02,716.406 1391.18,662.5 1395.35,765.625 1399.51,655.469 1403.67,692.969 1407.83,700 1412,674.219 1416.16,690.625 1420.32,676.562 1424.49,678.906 
  1428.65,667.188 1432.81,692.969 1436.97,669.531 1441.14,697.656 1445.3,685.938 1449.46,692.969 1453.62,702.344 1457.79,690.625 1461.95,697.656 1466.11,685.938 
  1470.27,685.938 1474.44,676.562 1478.6,667.188 1482.76,685.938 1486.92,685.938 1491.09,655.469 1495.25,709.375 1499.41,653.125 1503.58,653.125 1507.74,697.656 
  1511.9,655.469 1516.06,692.969 1520.23,685.938 1524.39,629.688 1528.55,714.062 1532.71,685.938 1536.88,702.344 1541.04,702.344 1545.2,709.375 1549.36,625 
  1553.53,662.5 1557.69,690.625 1561.85,625 1566.02,690.625 1570.18,714.062 1574.34,601.562 1578.5,730.469 1582.67,664.844 1586.83,714.062 1590.99,810.156 
  1595.15,742.188 1599.32,625 1603.48,585.156 1607.64,725.781 1611.8,632.031 1615.97,674.219 1620.13,674.219 1624.29,770.312 1628.45,653.125 1632.62,767.969 
  1636.78,775 1640.94,770.312 1645.11,718.75 1649.27,592.188 1653.43,894.531 1657.59,721.094 1661.76,721.094 1665.92,615.625 1670.08,718.75 1674.24,669.531 
  1678.41,625 1682.57,793.75 1686.73,707.031 1690.89,819.531 1695.06,625 1699.22,660.156 1703.38,568.75 1707.55,760.938 1711.71,625 1715.87,650.781 
  1720.03,653.125 1724.2,753.906 1728.36,641.406 1732.52,639.062 1736.68,627.344 1740.85,955.469 1745.01,648.438 1749.17,514.844 1753.33,664.844 1757.5,458.594 
  1761.66,625 1765.82,807.812 1769.98,547.656 1774.15,505.469 1778.31,641.406 1782.47,526.562 1786.64,653.125 1790.8,512.5 1794.96,547.656 1799.12,674.219 
  1803.29,606.25 1807.45,582.812 1811.61,402.344 1815.77,636.719 1819.94,617.969 1824.1,775 1828.26,831.25 1832.42,456.25 1836.59,552.344 1840.75,575.781 
  1844.91,552.344 1849.08,908.594 1853.24,653.125 1857.4,629.688 1861.56,491.406 1865.73,831.25 1869.89,482.031 1874.05,482.031 1878.21,721.094 1882.38,880.469 
  1886.54,608.594 1890.7,657.812 1894.86,702.344 1899.03,639.062 1903.19,402.344 1907.35,608.594 1911.52,779.688 1915.68,709.375 1919.84,746.875 1924,681.25 
  1928.17,603.906 1932.33,634.375 1936.49,580.469 1940.65,791.406 1944.82,831.25 1948.98,470.312 1953.14,636.719 1957.3,714.062 1961.47,782.031 1965.63,589.844 
  1969.79,1060.94 1973.95,547.656 1978.12,653.125 1982.28,709.375 1986.44,803.125 1990.61,779.688 1994.77,742.188 1998.93,903.906 2003.09,458.594 2007.26,512.5 
  2011.42,746.875 2015.58,456.25 2019.74,751.562 2023.91,653.125 2028.07,988.281 2032.23,573.438 2036.39,655.469 2040.56,585.156 2044.72,524.219 2048.88,477.344 
  2053.05,1004.69 2057.21,857.031 2061.37,435.156 2065.53,875.781 2069.7,662.5 2073.86,810.156 2078.02,613.281 2082.18,943.75 2086.35,899.219 2090.51,777.344 
  2094.67,1114.84 2098.83,838.281 2103,707.031 2107.16,662.5 2111.32,737.5 2115.48,702.344 2119.65,721.094 2123.81,632.031 2127.97,554.688 2132.14,306.25 
  2136.3,810.156 2140.46,709.375 2144.62,957.812 2148.79,524.219 2152.95,329.688 2157.11,632.031 2161.27,702.344 2165.44,685.938 2169.6,517.188 2173.76,620.312 
  2177.92,1330.47 2182.09,948.438 2186.25,85.9375 2190.41,925 2194.58,535.938 2198.74,721.094 2202.9,376.562 2207.06,636.719 2211.23,685.938 2215.39,322.656 
  2219.55,880.469 2223.71,1070.31 2227.88,810.156 2232.04,934.375 2236.2,976.562 2240.36,1318.75 2244.53,636.719 2248.69,847.656 2252.85,763.281 2257.01,416.406 
  2261.18,763.281 2265.34,578.125 2269.5,296.875 2273.67,507.812 2277.83,1379.69 2281.99,217.188 2286.15,1267.19 2290.32,678.906 2294.48,1082.03 2298.64,1384.38 
  2302.8,744.531 
  "/>
</svg>
